<?xml version="1.0" encoding="UTF-8" standalone="no"?>
<!-- Created with Inkscape (http://www.inkscape.org/) -->

<svg
   width="80.535645mm"
   height="47.031174mm"
   viewBox="0 0 80.535645 47.031178"
   version="1.1"
   id="svg3015"
   inkscape:version="1.2.2 (b0a8486541, 2022-12-01)"
   sodipodi:docname="catalog.svg"
   inkscape:export-filename="/Users/jsheunis/Desktop/datalad_clone.png"
   inkscape:export-xdpi="96"
   inkscape:export-ydpi="96"
   xmlns:inkscape="http://www.inkscape.org/namespaces/inkscape"
   xmlns:sodipodi="http://sodipodi.sourceforge.net/DTD/sodipodi-0.dtd"
   xmlns="http://www.w3.org/2000/svg"
   xmlns:svg="http://www.w3.org/2000/svg">
  <sodipodi:namedview
     id="namedview3017"
     pagecolor="#ffffff"
     bordercolor="#666666"
     borderopacity="1.0"
     inkscape:pageshadow="2"
     inkscape:pageopacity="1"
     inkscape:pagecheckerboard="0"
     inkscape:document-units="mm"
     showgrid="false"
     showguides="false"
     inkscape:zoom="0.62559767"
     inkscape:cx="-62.340386"
     inkscape:cy="-7.1931214"
     inkscape:window-width="1440"
     inkscape:window-height="784"
     inkscape:window-x="0"
     inkscape:window-y="32"
     inkscape:window-maximized="0"
     inkscape:current-layer="g1704"
     inkscape:showpageshadow="2"
     inkscape:deskcolor="#d1d1d1" />
  <defs
     id="defs3012">
    <inkscape:path-effect
       effect="envelope"
       id="path-effect1640"
       is_visible="true"
       lpeversion="1"
       yy="true"
       xx="true"
       bendpath1="M 0.49743672,-1.6581224 C 28.041363,-14.180799 43.556473,16.966581 74.105494,1.6581224"
       bendpath2="M 73.442245,0 V 32.377486"
       bendpath3="M -0.33162448,31.548425 C 25.053283,18.227146 50.882913,49.109478 73.442245,34.698857"
       bendpath4="M 0,0 V 32.377486"
       bendpath1-nodetypes="cc"
       bendpath3-nodetypes="cc" />
    <linearGradient
       id="c3b6ae59-f5c8-462f-a7a0-99e79fdd0e5d-486"
       x1="326.5"
       y1="672.40002"
       x2="326.5"
       y2="143.42999"
       gradientUnits="userSpaceOnUse">
      <stop
         offset="0"
         stop-color="gray"
         stop-opacity="0.25"
         id="stop57726" />
      <stop
         offset="0.54"
         stop-color="gray"
         stop-opacity="0.12"
         id="stop57728" />
      <stop
         offset="1"
         stop-color="gray"
         stop-opacity="0.1"
         id="stop57730" />
    </linearGradient>
    <inkscape:path-effect
       effect="envelope"
       id="path-effect11657"
       is_visible="true"
       lpeversion="1"
       yy="true"
       xx="true"
       bendpath1="M 0.49743672,-1.6581224 C 28.041363,-14.180799 43.556473,16.966581 74.105494,1.6581224"
       bendpath2="M 73.442245,0 V 32.377486"
       bendpath3="M -0.33162448,31.548425 C 25.053283,18.227146 50.882913,49.109478 73.442245,34.698857"
       bendpath4="M 0,0 V 32.377486"
       bendpath1-nodetypes="cc"
       bendpath3-nodetypes="cc" />
  </defs>
  <g
     inkscape:label="Layer 1"
     inkscape:groupmode="layer"
     id="layer1"
     transform="translate(-160.9446,-25.562611)">
    <g
       id="g8928">
      <g
         id="g1704"
         transform="matrix(0.77831075,0,0,0.77831075,-64.274289,73.674138)">
        <g
           id="g13900">
          <path
             d="m 291.24049,-61.815318 a 1.8737427,1.8737427 0 0 0 -1.87164,1.87164 v 56.683964 a 1.8738266,1.8738266 0 0 0 1.87164,1.87164 h 99.73164 a 1.8739088,1.8739088 0 0 0 1.87164,-1.87164 v -56.683964 a 1.8738248,1.8738248 0 0 0 -1.87164,-1.87164 z"
             fill="#ffffff"
             id="path3416"
             style="stroke-width:0.18254" />
          <path
             id="rect1815-7-21-0-1-1"
             style="fill:#333333;fill-opacity:1;stroke:#090700;stroke-width:0.220912;stroke-miterlimit:4;stroke-dasharray:none;stroke-dashoffset:0;stroke-opacity:1"
             d="m 308.98858,-57.120391 c -2.84653,0 -5.13879,2.292249 -5.13879,5.138802 v 41.464169 c 0,2.8465538 2.29226,5.1388028 5.13879,5.1388028 h 64.35577 c 2.84654,0 5.13878,-2.292249 5.13878,-5.1388028 v -34.690107 c -0.1866,-2.769761 -2.4733,-4.94463 -5.29195,-4.94463 h -15.88237 c 0,0 -1.45468,-0.168576 -2.14331,-0.70228 -0.49331,-0.382362 -1.2517,-1.278673 -1.2517,-1.278673 -0.46252,-0.611221 -1.00665,-1.548241 -2.17373,-2.717951 -1.16709,-1.169706 -3.07376,-2.26933 -5.83455,-2.26933 z"
             sodipodi:nodetypes="sssssscscsssss" />
          <path
             id="rect1815-7-3-1-3"
             style="fill:#4d4d4d;stroke:#090700;stroke-width:0.220912;stroke-dashoffset:1"
             d="m 308.9879,-45.337944 h 64.35675 c 2.84654,0 5.13817,2.291624 5.13817,5.138171 v 29.682978 c 0,2.8465467 -2.29163,5.138171 -5.13817,5.138171 H 308.9879 c -2.84654,0 -5.13817,-2.2916243 -5.13817,-5.138171 v -29.682978 c 0,-2.846547 2.29163,-5.138171 5.13817,-5.138171 z" />
          <g
             id="g1602-5-5-7"
             transform="matrix(0.38878717,0,0,0.38878705,314.42877,-63.257681)">
            <path
               inkscape:connector-curvature="0"
               d="m 73.772417,41.401472 c -1.506631,0 -2.854669,-0.642301 -4.044114,-1.926902 -1.189446,-1.284601 -1.784168,-2.878457 -1.784168,-4.781569 0,-1.903112 0.578864,-3.457321 1.73659,-4.662625 1.157726,-1.221164 2.513694,-1.831746 4.067903,-1.831746 1.55421,0 2.822952,0.547145 3.806227,1.641435 l 1.66e-4,-1.579209 1.784168,-1.592445 1.784168,1.592445 -1.66e-4,12.950304 h -3.568336 v -1.689012 c -0.999134,1.252882 -2.259947,1.879324 -3.782438,1.879324 z M 71.53626,34.835735 c 0,1.030852 0.309255,1.879322 0.927767,2.545412 0.618511,0.65023 1.340109,0.975345 2.16479,0.975345 0.824684,0 1.522493,-0.325115 2.093427,-0.975345 0.586792,-0.66609 0.880189,-1.51456 0.880189,-2.545412 0,-1.046712 -0.293397,-1.911043 -0.880189,-2.592991 -0.570934,-0.697808 -1.276672,-1.046712 -2.117216,-1.046712 -0.840541,0 -1.562137,0.348904 -2.16479,1.046712 -0.602653,0.697808 -0.903978,1.562138 -0.903978,2.592991 z"
               style="font-style:normal;font-variant:normal;font-weight:bold;font-stretch:normal;font-size:96px;line-height:25px;font-family:'Montserrat Alternates';-inkscape-font-specification:'Montserrat Alternates Bold';text-align:start;letter-spacing:0px;word-spacing:0px;writing-mode:lr-tb;text-anchor:start;display:inline;fill:#ffa200;fill-opacity:1;stroke:none;stroke-width:0.247801px;stroke-linecap:butt;stroke-linejoin:miter;stroke-opacity:1"
               id="path4588-1-0-8-9"
               inkscape:export-xdpi="299.96201"
               inkscape:export-ydpi="299.96201"
               sodipodi:nodetypes="ssscscccccccsscscscsss" />
            <path
               style="display:inline;fill:#ffa200;fill-opacity:1;fill-rule:evenodd;stroke:none;stroke-width:0.991201;stroke-linecap:butt;stroke-linejoin:miter;stroke-miterlimit:4;stroke-dasharray:none;stroke-opacity:0"
               d="m 77.555021,25.830272 1.784168,-1.592171 1.784168,1.592171 v 1.592218 l -1.784168,-1.592185 -1.784168,1.592185 z"
               id="rect2037-2-4-9"
               inkscape:connector-curvature="0"
               sodipodi:nodetypes="ccccccc" />
            <path
               style="display:inline;fill:#ffa200;fill-opacity:1;fill-rule:evenodd;stroke:none;stroke-width:0.991201;stroke-linecap:butt;stroke-linejoin:miter;stroke-miterlimit:4;stroke-dasharray:none;stroke-opacity:0"
               d="m 77.555021,23.404505 1.784168,-1.592171 1.784168,1.592171 v 1.592218 l -1.784168,-1.592184 -1.784168,1.592184 z"
               id="rect2037-6-6-4-1"
               inkscape:connector-curvature="0"
               sodipodi:nodetypes="ccccccc" />
          </g>
          <g
             id="g1608-3-6-5"
             transform="matrix(0.38878717,0,0,0.38878705,314.58408,-63.257681)"
             style="fill:#ffffff;fill-opacity:1">
            <g
               aria-label="lad"
               transform="matrix(0.24780109,0,0,0.24780109,25.297442,-39.599619)"
               style="font-style:normal;font-variant:normal;font-weight:bold;font-stretch:normal;font-size:20px;line-height:25px;font-family:Arial;-inkscape-font-specification:'Arial, Bold';text-align:start;letter-spacing:0px;word-spacing:0px;writing-mode:lr-tb;text-anchor:start;display:inline;fill:#ffffff;fill-opacity:1;stroke:none;stroke-width:1px;stroke-linecap:butt;stroke-linejoin:miter;stroke-opacity:1"
               id="flowRoot4504-8-4-8-0-4"
               inkscape:export-xdpi="299.96201"
               inkscape:export-ydpi="299.96201">
              <path
                 d="m 95.601062,248.08894 -0.0011,53.47064 c -4.1e-5,1.984 -1.622365,9.95835 -0.598365,11.11035 1.024,1.088 4.37545,1.632 5.783453,1.632 2.688,0 3.65097,0.033 6.816,0.0205 l 0.0103,12.55209 c -5.1871,0.009 -3.85034,0.003 -8.842344,0.003 -4.928,0 -9.12,-1.632 -12.576,-4.896 -3.392,-3.264 -5.088,-14.11835 -5.088,-19.75035 v -54.14264 l 7.248028,1.9e-4 z"
                 style="font-style:normal;font-variant:normal;font-weight:bold;font-stretch:normal;font-size:96px;font-family:'Montserrat Alternates';-inkscape-font-specification:'Montserrat Alternates Bold';fill:#ffffff;fill-opacity:1"
                 id="path4584-3-9-8-9"
                 inkscape:connector-curvature="0"
                 sodipodi:nodetypes="cscsccscsccc" />
            </g>
            <g
               aria-label="lad"
               transform="matrix(0.24780109,0,0,0.24780109,18.038489,-36.3429)"
               style="font-style:normal;font-variant:normal;font-weight:bold;font-stretch:normal;font-size:20px;line-height:25px;font-family:Arial;-inkscape-font-specification:'Arial, Bold';text-align:start;letter-spacing:0px;word-spacing:0px;writing-mode:lr-tb;text-anchor:start;display:inline;fill:#ffffff;fill-opacity:1;stroke:none;stroke-width:1px;stroke-linecap:butt;stroke-linejoin:miter;stroke-opacity:1"
               id="flowRoot4504-8-4-5-2-0-3-7"
               inkscape:export-xdpi="299.96201"
               inkscape:export-ydpi="299.96201">
              <path
                 d="m 124.89483,262.70731 -0.001,32.11615 c -6e-5,1.984 0.51308,3.552 1.53708,4.704 1.024,1.088 2.24,1.632 3.64801,1.632 2.688,0 3.65097,0.033 6.816,0.0205 l 0.005,6.27605 0.005,6.27604 c -5.1871,0.009 -3.85034,0.003 -8.84235,0.003 -4.928,0 -9.12,-1.632 -12.576,-4.896 -3.392,-3.264 -5.088,-7.712 -5.088,-13.344 V 262.7069 l 7.24803,2e-4 z"
                 style="font-style:normal;font-variant:normal;font-weight:bold;font-stretch:normal;font-size:96px;font-family:'Montserrat Alternates';-inkscape-font-specification:'Montserrat Alternates Bold';fill:#ffffff;fill-opacity:1"
                 id="path4584-3-1-7-6-5-7"
                 inkscape:connector-curvature="0"
                 sodipodi:nodetypes="cscscccscsccc" />
            </g>
          </g>
          <path
             d="m 328.66958,-47.163702 c -0.63511,0 -1.19001,-0.237376 -1.66479,-0.712166 -0.47479,-0.474765 -0.71217,-1.097524 -0.71217,-1.868258 0,-0.776902 0.24339,-1.396572 0.73066,-1.859017 0.48711,-0.462434 1.05127,-0.693656 1.69255,-0.693656 0.49943,0 0.9341,0.166489 1.30406,0.499439 v -0.416218 h 1.39657 v 5.052237 h -1.39657 v -0.483322 c -0.39451,0.320618 -0.84471,0.48094 -1.35031,0.48094 z m -0.98039,-2.552673 c 0,0.406951 0.12024,0.739897 0.3607,0.998864 0.24046,0.25282 0.52104,0.379189 0.84166,0.379189 0.32062,0 0.59194,-0.126405 0.8139,-0.379189 0.2221,-0.258958 0.33273,-0.58884 0.33273,-0.989621 0,-0.406952 -0.111,-0.746077 -0.33273,-1.017367 -0.22209,-0.271315 -0.49637,-0.406951 -0.82317,-0.406951 -0.32689,0 -0.60734,0.135643 -0.84163,0.406951 -0.23419,0.265135 -0.3515,0.601168 -0.3515,1.008124 z"
             style="font-style:normal;font-variant:normal;font-weight:bold;font-stretch:normal;font-size:96px;line-height:25px;font-family:'Montserrat Alternates';-inkscape-font-specification:'Montserrat Alternates Bold';text-align:start;letter-spacing:0px;word-spacing:0px;writing-mode:lr-tb;text-anchor:start;display:inline;fill:#ffffff;fill-opacity:1;stroke:none;stroke-width:0.0963421px;stroke-linecap:butt;stroke-linejoin:miter;stroke-opacity:1"
             id="path4616-0-35-2-8"
             inkscape:connector-curvature="0"
             sodipodi:nodetypes="sssssccccccsscscssscs" />
          <path
             d="m 319.71744,-47.163702 c -0.6351,0 -1.19005,-0.237376 -1.6648,-0.712166 -0.47478,-0.474765 -0.71216,-1.097524 -0.71216,-1.868258 0,-0.776902 0.24339,-1.396572 0.73066,-1.859017 0.48711,-0.462434 1.05128,-0.693656 1.69251,-0.693656 0.49947,0 0.93415,0.166489 1.30411,0.499439 v -0.416218 h 1.39655 v 5.052237 h -1.39655 v -0.483322 c -0.39452,0.320618 -0.84473,0.48094 -1.35032,0.48094 z m -0.98038,-2.552673 c 0,0.406951 0.12024,0.739897 0.36069,0.998864 0.24045,0.25282 0.52105,0.379189 0.84165,0.379189 0.32063,0 0.5919,-0.126405 0.81391,-0.379189 0.2221,-0.258958 0.33272,-0.58884 0.33272,-0.989621 0,-0.406952 -0.11099,-0.746077 -0.33272,-1.017367 -0.22209,-0.271315 -0.49636,-0.406951 -0.82317,-0.406951 -0.32689,0 -0.60734,0.135643 -0.84162,0.406951 -0.23421,0.265135 -0.35151,0.601168 -0.35151,1.008124 z"
             style="font-style:normal;font-variant:normal;font-weight:bold;font-stretch:normal;font-size:96px;line-height:25px;font-family:'Montserrat Alternates';-inkscape-font-specification:'Montserrat Alternates Bold';text-align:start;letter-spacing:0px;word-spacing:0px;writing-mode:lr-tb;text-anchor:start;display:inline;fill:#ffffff;fill-opacity:1;stroke:none;stroke-width:0.0963421px;stroke-linecap:butt;stroke-linejoin:miter;stroke-opacity:1"
             id="path4616-0-0-1-7-6"
             inkscape:connector-curvature="0"
             sodipodi:nodetypes="sssssccccccsscscssscs" />
          <path
             d="m 337.48665,-47.163702 c -0.63504,0 -1.18999,-0.237376 -1.66478,-0.712166 -0.47475,-0.474765 -0.71212,-1.097524 -0.71212,-1.868258 0,-0.776902 0.24338,-1.396572 0.73065,-1.859017 0.48707,-0.462434 1.05129,-0.693656 1.69252,-0.693656 0.49941,0 0.93413,0.166489 1.30409,0.499439 v -0.416218 h 1.39657 v 5.052237 h -1.39657 v -0.483322 c -0.39451,0.320618 -0.84475,0.48094 -1.35036,0.48094 z m -0.98034,-2.552673 c 0,0.406951 0.12024,0.739897 0.3607,0.998864 0.24046,0.25282 0.521,0.379189 0.84162,0.379189 0.32062,0 0.59193,-0.126405 0.8139,-0.379189 0.2221,-0.258958 0.33316,-0.58884 0.33316,-0.989621 0,-0.406952 -0.11101,-0.746077 -0.33316,-1.017367 -0.22209,-0.271315 -0.49633,-0.406951 -0.82312,-0.406951 -0.32688,0 -0.60734,0.135643 -0.84167,0.406951 -0.23419,0.265135 -0.35151,0.601168 -0.35151,1.008124 z"
             style="font-style:normal;font-variant:normal;font-weight:bold;font-stretch:normal;font-size:96px;line-height:25px;font-family:'Montserrat Alternates';-inkscape-font-specification:'Montserrat Alternates Bold';text-align:start;letter-spacing:0px;word-spacing:0px;writing-mode:lr-tb;text-anchor:start;display:inline;fill:#ffa200;fill-opacity:1;stroke:none;stroke-width:0.0963421px;stroke-linecap:butt;stroke-linejoin:miter;stroke-opacity:1"
             id="path4616-0-3-5-4-1"
             inkscape:connector-curvature="0"
             sodipodi:nodetypes="sssssccccccsscscssscs" />
          <g
             id="g1613-7-2-3"
             transform="matrix(0.38878717,0,0,0.38878705,314.56371,-63.257681)"
             style="fill:#ffffff;fill-opacity:1">
            <g
               aria-label="lad"
               transform="matrix(0.24780109,0,0,0.24780109,2.3242158,-39.579569)"
               style="font-style:normal;font-variant:normal;font-weight:bold;font-stretch:normal;font-size:20px;line-height:25px;font-family:Arial;-inkscape-font-specification:'Arial, Bold';text-align:start;letter-spacing:0px;word-spacing:0px;writing-mode:lr-tb;text-anchor:start;display:inline;fill:#ffffff;fill-opacity:1;stroke:none;stroke-width:1px;stroke-linecap:butt;stroke-linejoin:miter;stroke-opacity:1"
               id="flowRoot4504-8-4-5-8-6-1"
               inkscape:export-xdpi="299.96201"
               inkscape:export-ydpi="299.96201">
              <path
                 d="m 95.601062,275.84978 -0.0011,32.11615 c -6.8e-5,1.984 0.513084,3.552 1.537084,4.704 1.024,1.088 2.240001,1.632 3.648004,1.632 2.688,0 3.65097,0.033 6.816,0.0205 l 0.005,6.27605 0.005,6.27604 c -5.1871,0.009 -3.85034,0.003 -8.842344,0.003 -4.928,0 -9.12,-1.632 -12.576,-4.896 -3.392,-3.264 -5.088,-7.712 -5.088,-13.344 v -32.78815 l 7.248028,4.2711 z"
                 style="font-style:normal;font-variant:normal;font-weight:bold;font-stretch:normal;font-size:96px;font-family:'Montserrat Alternates';-inkscape-font-specification:'Montserrat Alternates Bold';fill:#ffffff;fill-opacity:1"
                 id="path4584-3-1-6-7-3"
                 inkscape:connector-curvature="0"
                 sodipodi:nodetypes="cscscccscsccc" />
            </g>
            <path
               d="m 22.440993,36.906717 -9.4e-5,-6.149432 -9.5e-5,-5.091098 1.796092,-2e-6 h 1.796092 v 2.77168 h 3.092558 v 2.783301 h -3.092558 l -2.47e-4,5.519026 -8e-6,0.401997 -1.692075,0.538366 -1.899675,-0.512416"
               style="font-style:normal;font-variant:normal;font-weight:bold;font-stretch:normal;font-size:96px;line-height:25px;font-family:'Montserrat Alternates';-inkscape-font-specification:'Montserrat Alternates Bold';text-align:start;letter-spacing:0px;word-spacing:0px;writing-mode:lr-tb;text-anchor:start;display:inline;fill:#ffffff;fill-opacity:1;stroke:none;stroke-width:0.247801px;stroke-linecap:butt;stroke-linejoin:miter;stroke-opacity:1"
               id="path4614-2-9-5-2"
               inkscape:connector-curvature="0"
               sodipodi:nodetypes="ccccccccccccc" />
          </g>
          <path
             style="font-style:normal;font-variant:normal;font-weight:bold;font-stretch:normal;font-size:192px;line-height:25px;font-family:Montserrat;-inkscape-font-specification:'Montserrat Bold';text-align:start;letter-spacing:0px;word-spacing:0px;writing-mode:lr-tb;text-anchor:start;display:inline;fill:#ffffff;fill-opacity:1;stroke:none;stroke-width:0.0562506px;stroke-linecap:butt;stroke-linejoin:miter;stroke-opacity:1"
             d="m 312.60786,-54.732616 -0.79763,0.797613 0.81169,0.811674 h 0.11817 c 0.39618,0 0.74886,0.09355 1.05847,0.280792 0.30976,0.180013 0.55076,0.435551 0.72355,0.766753 0.17994,0.331223 0.2701,0.712783 0.2701,1.144791 0,0.424802 -0.0826,0.802814 -0.24839,1.134016 -0.16573,0.331223 -0.39618,0.586853 -0.69125,0.766853 -0.10563,0.06442 -0.21708,0.116849 -0.33397,0.158224 0.0813,0.08671 0.73061,0.642923 0.73061,0.642923 l -0.51921,0.972741 c 0.40077,-0.07832 0.77287,-0.205062 1.11611,-0.380691 0.62641,-0.316821 1.10886,-0.76313 1.44725,-1.339138 0.34567,-0.576019 0.51845,-1.234856 0.51845,-1.97647 0,-0.7416 -0.16949,-1.39678 -0.50768,-1.965586 -0.33856,-0.576006 -0.81361,-1.022437 -1.42563,-1.339249 -0.60478,-0.316779 -1.30322,-0.475267 -2.09519,-0.475267 z"
             id="path1711-6-2-1-7-5-6"
             inkscape:connector-curvature="0"
             sodipodi:nodetypes="cccsccssscccccsccsc"
             inkscape:export-xdpi="299.96201"
             inkscape:export-ydpi="299.96201" />
          <path
             style="font-style:normal;font-variant:normal;font-weight:bold;font-stretch:normal;font-size:192px;line-height:25px;font-family:Montserrat;-inkscape-font-specification:'Montserrat Bold';text-align:start;letter-spacing:0px;word-spacing:0px;writing-mode:lr-tb;text-anchor:start;fill:#ffa200;fill-opacity:1;stroke:none;stroke-width:0.0562506px;stroke-linecap:butt;stroke-linejoin:miter;stroke-opacity:1"
             d="m 309.52178,-54.732616 v 7.570975 c 0,0 2.81301,7.18e-4 3.044,0 0.23085,-7.17e-4 0.32896,-0.04221 0.32896,-0.04221 l 0.52965,-0.828165 -0.84764,-0.728061 h -1.07845 v -4.363269 l -0.37656,-0.376518 -0.43518,-0.435177 -2e-4,-1.09e-4 c 5e-5,5.5e-5 0.40076,-0.400564 0.79757,-0.797504 z"
             id="path1711-6-2-1-9-5-7-8"
             inkscape:connector-curvature="0"
             sodipodi:nodetypes="cczcccccccccc"
             inkscape:export-xdpi="299.96201"
             inkscape:export-ydpi="299.96201" />
          <g
             aria-label="catalog"
             transform="scale(1.0161109,0.98414454)"
             id="text851-7-7-9-5"
             style="font-size:18.4978px;line-height:39.4304px;font-family:'Roboto Slab';word-spacing:2.76742px;white-space:pre;fill:#ffffff;stroke-width:0.576546">
            <path
               d="m 308.83677,-20.505636 q -1.32773,0 -2.31223,-0.614185 -0.9845,-0.623217 -1.52643,-1.725136 -0.54193,-1.10192 -0.54193,-2.547061 v -0.379349 q 0,-1.390948 0.52387,-2.492868 0.52386,-1.10192 1.50836,-1.743201 0.98451,-0.641281 2.34836,-0.641281 1.18321,0 2.06835,0.388381 0.89419,0.388382 1.49934,1.065792 l 0.0452,2.348353 h -1.39095 l -0.30709,-1.707072 q -0.30709,-0.316125 -0.76773,-0.505799 -0.46064,-0.189675 -1.08386,-0.189675 -0.79483,0 -1.39998,0.469671 -0.59612,0.46967 -0.93031,1.255466 -0.33419,0.785795 -0.33419,1.752233 v 0.379349 q 0,1.065791 0.3071,1.851587 0.31612,0.785795 0.89418,1.219337 0.58709,0.42451 1.39095,0.42451 0.90321,0 1.49933,-0.496767 0.59612,-0.496767 0.7316,-1.363851 h 1.59869 l 0.0181,0.05419 q -0.0452,0.839988 -0.49676,1.571591 -0.45161,0.731602 -1.2916,1.183209 -0.83096,0.442574 -2.05029,0.442574 z"
               style="font-size:18.4978px;line-height:39.4304px;font-family:'Roboto Slab';word-spacing:2.76742px;white-space:pre;fill:#ffffff;stroke-width:0.576546"
               id="path1032" />
            <path
               d="m 317.40826,-20.505636 q -1.52643,0 -2.32126,-0.740634 -0.79483,-0.749667 -0.79483,-2.104487 0,-0.930309 0.5058,-1.616751 0.51483,-0.695474 1.48127,-1.074823 0.96644,-0.388382 2.31223,-0.388382 h 1.7432 v -0.957405 q 0,-0.885149 -0.54193,-1.372884 -0.5329,-0.487735 -1.50837,-0.487735 -0.61418,0 -1.06579,0.153546 -0.4516,0.144514 -0.82192,0.406446 l -0.18968,1.363851 h -1.37288 v -2.239968 q 0.65935,-0.532895 1.53546,-0.803859 0.87612,-0.279996 1.94191,-0.279996 1.77933,0 2.79093,0.84902 1.0116,0.84902 1.0116,2.429643 v 4.705739 q 0,0.189675 0,0.370318 0.009,0.180642 0.0271,0.361285 l 0.94838,0.09935 v 1.138048 h -2.5561 q -0.0813,-0.397413 -0.12645,-0.713538 -0.0452,-0.316124 -0.0632,-0.632249 -0.51483,0.659346 -1.29159,1.10192 -0.76774,0.433542 -1.64385,0.433542 z m 0.26193,-1.490301 q 0.88515,0 1.61675,-0.42451 0.7316,-0.42451 1.04773,-1.020631 v -1.770297 h -1.80643 q -1.22837,0 -1.84255,0.587088 -0.61419,0.587089 -0.61419,1.309659 0,0.641281 0.39742,0.984502 0.39741,0.334189 1.20127,0.334189 z"
               style="font-size:18.4978px;line-height:39.4304px;font-family:'Roboto Slab';word-spacing:2.76742px;white-space:pre;fill:#ffffff;stroke-width:0.576546"
               id="path1034" />
            <path
               d="m 327.92166,-20.541764 q -1.08386,0 -1.72514,-0.632249 -0.63225,-0.641282 -0.63225,-2.041262 v -5.934109 h -1.54449 v -1.318691 h 1.54449 v -2.357385 h 1.77933 v 2.357385 h 2.12255 v 1.318691 h -2.12255 v 5.934109 q 0,0.704506 0.28,1.038695 0.27999,0.334189 0.74966,0.334189 0.31613,0 0.70451,-0.05419 0.38838,-0.06322 0.60515,-0.108385 l 0.24387,1.165144 q -0.38838,0.117418 -0.95741,0.207739 -0.55999,0.09032 -1.04772,0.09032 z"
               style="font-size:18.4978px;line-height:39.4304px;font-family:'Roboto Slab';word-spacing:2.76742px;white-space:pre;fill:#ffffff;stroke-width:0.576546"
               id="path1036" />
            <path
               d="m 334.24415,-20.505636 q -1.52643,0 -2.32126,-0.740634 -0.79483,-0.749667 -0.79483,-2.104487 0,-0.930309 0.5058,-1.616751 0.51483,-0.695474 1.48127,-1.074823 0.96644,-0.388382 2.31223,-0.388382 h 1.7432 v -0.957405 q 0,-0.885149 -0.54193,-1.372884 -0.5329,-0.487735 -1.50837,-0.487735 -0.61418,0 -1.06579,0.153546 -0.4516,0.144514 -0.82192,0.406446 l -0.18968,1.363851 h -1.37288 v -2.239968 q 0.65935,-0.532895 1.53546,-0.803859 0.87612,-0.279996 1.94191,-0.279996 1.77933,0 2.79093,0.84902 1.0116,0.84902 1.0116,2.429643 v 4.705739 q 0,0.189675 0,0.370318 0.009,0.180642 0.0271,0.361285 l 0.94838,0.09935 v 1.138048 h -2.5561 q -0.0813,-0.397413 -0.12645,-0.713538 -0.0452,-0.316124 -0.0632,-0.632249 -0.51483,0.659346 -1.2916,1.10192 -0.76773,0.433542 -1.64384,0.433542 z m 0.26193,-1.490301 q 0.88515,0 1.61675,-0.42451 0.7316,-0.42451 1.04773,-1.020631 v -1.770297 h -1.80643 q -1.22837,0 -1.84255,0.587088 -0.61419,0.587089 -0.61419,1.309659 0,0.641281 0.39742,0.984502 0.39741,0.334189 1.20127,0.334189 z"
               style="font-size:18.4978px;line-height:39.4304px;font-family:'Roboto Slab';word-spacing:2.76742px;white-space:pre;fill:#ffffff;stroke-width:0.576546"
               id="path1038" />
            <path
               d="m 341.21695,-20.695311 v -1.138048 l 1.47224,-0.2529 v -11.299193 l -1.47224,-0.2529 v -1.14708 h 3.25157 v 12.699173 l 1.47223,0.2529 v 1.138048 z"
               style="font-size:18.4978px;line-height:39.4304px;font-family:'Roboto Slab';word-spacing:2.76742px;white-space:pre;fill:#ffffff;stroke-width:0.576546"
               id="path1040" />
            <path
               d="m 351.43229,-20.505636 q -1.35482,0 -2.33932,-0.632249 -0.97547,-0.641281 -1.50837,-1.761265 -0.5329,-1.129016 -0.5329,-2.574157 v -0.198707 q 0,-1.445141 0.5329,-2.565125 0.5329,-1.129016 1.50837,-1.770297 0.9845,-0.641281 2.32125,-0.641281 1.35482,0 2.33029,0.641281 0.9845,0.641281 1.5174,1.761265 0.5329,1.119984 0.5329,2.574157 v 0.198707 q 0,1.454173 -0.5329,2.583189 -0.5329,1.119984 -1.50837,1.752233 -0.97547,0.632249 -2.32125,0.632249 z m 0,-1.390948 q 0.84902,0 1.41804,-0.460638 0.57806,-0.469671 0.86709,-1.273531 0.29806,-0.812891 0.29806,-1.842554 v -0.198707 q 0,-1.029663 -0.29806,-1.833522 -0.28903,-0.812892 -0.86709,-1.27353 -0.57805,-0.469671 -1.43611,-0.469671 -0.84902,0 -1.42707,0.469671 -0.57806,0.460638 -0.86709,1.27353 -0.28903,0.803859 -0.28903,1.833522 v 0.198707 q 0,1.029663 0.28903,1.842554 0.28903,0.80386 0.86709,1.273531 0.58709,0.460638 1.44514,0.460638 z"
               style="font-size:18.4978px;line-height:39.4304px;font-family:'Roboto Slab';word-spacing:2.76742px;white-space:pre;fill:#ffffff;stroke-width:0.576546"
               id="path1042" />
            <path
               d="m 361.78311,-16.74827 q -0.70451,0 -1.52643,-0.198707 -0.82192,-0.189675 -1.44514,-0.523863 l 0.46064,-1.381916 q 0.49676,0.261932 1.17417,0.433542 0.67741,0.17161 1.3187,0.17161 1.19224,0 1.7432,-0.668377 0.55999,-0.668378 0.55999,-1.905779 v -0.93031 q -0.4787,0.614185 -1.14708,0.93031 -0.66838,0.316124 -1.53546,0.316124 -1.19225,0 -2.05933,-0.587088 -0.86708,-0.596121 -1.33675,-1.65288 -0.46064,-1.065791 -0.46064,-2.465771 v -0.189675 q 0,-1.57159 0.46064,-2.754799 0.46967,-1.183209 1.33675,-1.833523 0.86708,-0.659345 2.07739,-0.659345 0.92128,0 1.61675,0.361285 0.69548,0.361285 1.16515,1.047727 l 0.16257,-1.22837 h 1.49934 v 9.646315 q 0,1.264498 -0.47871,2.176743 -0.46967,0.912245 -1.38191,1.39998 -0.90321,0.496767 -2.20384,0.496767 z m 0.0452,-5.202507 q 0.80386,0 1.34579,-0.361285 0.54193,-0.370317 0.89418,-1.038695 v -4.498 q -0.34322,-0.623217 -0.89418,-0.984502 -0.55096,-0.370317 -1.32773,-0.370317 -0.84902,0 -1.41804,0.487735 -0.55999,0.487735 -0.83999,1.345787 -0.27999,0.84902 -0.27999,1.969004 v 0.189675 q 0,1.472237 0.62321,2.366418 0.62322,0.89418 1.89675,0.89418 z m 3.74833,-7.063125 -0.69547,-1.454173 h 2.17674 v 1.138049 z"
               style="font-size:18.4978px;line-height:39.4304px;font-family:'Roboto Slab';word-spacing:2.76742px;white-space:pre;fill:#ffffff;stroke-width:0.576546"
               id="path1044" />
          </g>
        </g>
      </g>
    </g>
  </g>
</svg>
