<?xml version="1.0" encoding="UTF-8" standalone="no"?>
<!-- Created with Inkscape (http://www.inkscape.org/) -->

<svg
   width="23.568684mm"
   height="21.939264mm"
   viewBox="0 0 23.568684 21.939264"
   version="1.1"
   id="svg47351"
   xmlns:xlink="http://www.w3.org/1999/xlink"
   xmlns="http://www.w3.org/2000/svg"
   xmlns:svg="http://www.w3.org/2000/svg">
  <defs
     id="defs47348" />
  <g
     id="layer1"
     transform="translate(-9.3913604,1236.7499)">
    <g
       id="g2727"
       transform="translate(410.8577,123.31479)"
       style="display:inline;stroke-linecap:butt;stroke-linejoin:round;stroke-miterlimit:100000">
      <path
         style="display:inline;fill:#333333;fill-opacity:1;stroke-width:0.376025;stroke-linecap:butt;stroke-linejoin:round;stroke-miterlimit:100000"
         d="m -390.20896,-1360.0647 -3.27581,1.5334 c -1.8017,0.8435 -3.57976,1.6736 -3.95121,1.8447 -2.73894,1.2622 -3.91448,1.8374 -3.98563,1.9502 -0.0591,0.093 -0.0595,0.1674 -0.002,0.259 0.0649,0.1025 10.81552,5.1927 11.2456,5.324 h 3e-4 c 0.0656,0.02 0.33939,0.024 0.60861,0.011 0.46293,-0.025 0.78967,-0.1676 6.01949,-2.6174 3.04142,-1.4248 5.56583,-2.6476 5.60986,-2.7174 0.0568,-0.09 0.0561,-0.1649 -0.002,-0.2577 -0.0711,-0.1128 -1.24671,-0.6879 -3.98563,-1.9501 -0.37147,-0.1712 -2.14952,-1.0014 -3.95122,-1.8447 l -3.27581,-1.5335 h -0.52713 z"
         id="path13231" />
      <path
         style="display:inline;fill:#333333;fill-opacity:1;stroke-width:0.376025;stroke-linecap:butt;stroke-linejoin:round;stroke-miterlimit:100000"
         d="m -398.56601,-1345.9767 c -0.39345,0.011 -0.55136,0.075 -1.57539,0.5584 -1.23593,0.5833 -1.42668,0.7263 -1.28049,0.9601 0.068,0.1088 10.80414,5.1928 11.22986,5.3178 0.0734,0.022 0.35381,0.027 0.62304,0.014 0.46431,-0.024 0.77376,-0.1583 6.01697,-2.6125 3.04015,-1.4229 5.5647,-2.6464 5.61001,-2.7189 0.14619,-0.2339 -0.0447,-0.3769 -1.28065,-0.9602 -1.1703,-0.5521 -1.20911,-0.5646 -1.76145,-0.5576 l -0.5648,0.01 -3.71896,1.7474 c -2.04548,0.961 -3.88019,1.7845 -4.07712,1.8299 -0.26464,0.061 -0.44866,0.06 -0.70526,0 -0.19093,-0.048 -2.01608,-0.8716 -4.05593,-1.8299 l -3.70881,-1.7427 -0.5648,-0.01 c -0.069,-7e-4 -0.13,0 -0.18622,-7e-4 z"
         id="path6636" />
      <use
         x="0"
         y="0"
         xlink:href="#path6636"
         id="use2330"
         transform="translate(0,-4.7625)"
         width="100%"
         height="100%" />
    </g>
    <g
       id="g13239"
       transform="matrix(0.0509403,0,0,0.0509403,-0.74418908,-1226.6422)"
       style="display:inline;stroke-linecap:butt;stroke-linejoin:round;stroke-miterlimit:100000">
      <path
         style="fill:#e6e6e6;fill-opacity:1;stroke:#ffffff;stroke-width:1.1274;stroke-miterlimit:100;stroke-dasharray:none"
         d="m 235.34808,78.297183 h 43.45252 l 23.03172,22.942287 v 53.77047 c 0,2.82549 -2.29103,5.11414 -5.11413,5.11414 h -61.37011 c -2.8231,0 -5.11413,-2.28865 -5.11413,-5.11414 V 83.411314 c 0,-2.825485 2.29129,-5.114131 5.11413,-5.114131 z"
         id="path13233" />
      <path
         style="fill:#c2c5c7;stroke-width:0.264583"
         d="m 301.7585,101.31091 h -17.82551 c -2.8231,0 -5.11413,-2.291031 -5.11413,-5.114136 V 78.348248 Z"
         id="path13235" />
      <path
         style="fill:#666666;stroke-width:0.264583"
         d="m 240.46248,111.53943 v 5.11413 h 51.14184 v -5.11413 z m 0,15.34504 h 51.14184 v -5.11413 h -51.14184 z m 0,10.22588 h 51.14184 v -5.11413 h -51.14184 z m 0,10.22826 h 51.14184 v -5.11174 h -51.14184 z m 28.12785,-46.0277 h -28.12785 v 5.11413 h 28.12812 z m 0,-10.228267 h -28.12785 v 5.114131 h 28.12812 z"
         id="path13237" />
    </g>
    <g
       id="g13255"
       transform="matrix(0.0509403,0,0,0.0509403,7.9061909,-1222.6035)"
       style="display:inline;stroke-linecap:butt;stroke-linejoin:round;stroke-miterlimit:100000">
      <g
         id="g13245"
         transform="matrix(0.26458333,0,0,0.26458333,219.13431,70.589534)"
         style="stroke:#ffffff;stroke-width:4.26104;stroke-miterlimit:100;stroke-dasharray:none">
        <path
           style="fill:#e6e6e6;fill-opacity:1;stroke:#ffffff;stroke-width:4.26104;stroke-miterlimit:100;stroke-dasharray:none"
           d="m 38.658,-2.5196849e-7 h 164.23 L 289.937,86.711 v 203.227 c 0,10.679 -8.659,19.329 -19.329,19.329 H 38.658 c -10.67,0 -19.329,-8.65 -19.329,-19.329 V 19.329 C 19.329,8.6499997 27.989,-2.5196849e-7 38.658,-2.5196849e-7 Z"
           id="path13241" />
        <path
           style="fill:#c2c5c7;stroke:none;stroke-width:4.26104;stroke-miterlimit:100;stroke-dasharray:none"
           d="m 289.658,86.981 h -67.372 c -10.67,0 -19.329,-8.659 -19.329,-19.329 V 0.193 Z"
           id="path13243" />
      </g>
      <g
         id="g13253"
         transform="matrix(0.2233203,0,0,0.21863132,202.72137,72.037539)"
         style="fill:#666666;fill-opacity:1;stroke-linecap:butt;stroke-linejoin:round;stroke-miterlimit:100000">
        <path
           d="m 308.683,161.287 c -3.828,4.477 -3.302,11.211 1.177,15.039 l 53.481,45.723 -53.481,45.723 c -4.478,3.828 -5.004,10.561 -1.177,15.039 2.11,2.467 5.101,3.736 8.112,3.736 2.452,0 4.916,-0.841 6.926,-2.559 l 62.963,-53.83 c 2.371,-2.026 3.735,-4.989 3.735,-8.108 0,-3.119 -1.364,-6.081 -3.734,-8.108 l -62.963,-53.83 c -4.476,-3.83 -11.212,-3.303 -15.039,1.175 z"
           id="path13247"
           style="fill:#666666;fill-opacity:1" />
        <path
           d="m 195.204,286.546 c 3.01,0 6.003,-1.267 8.112,-3.735 3.828,-4.477 3.302,-11.211 -1.177,-15.039 l -53.481,-45.723 53.481,-45.723 c 4.478,-3.828 5.004,-10.561 1.177,-15.039 -3.827,-4.478 -10.562,-5.006 -15.039,-1.177 l -62.963,53.83 c -2.371,2.026 -3.735,4.989 -3.735,8.108 0,3.119 1.364,6.081 3.735,8.108 l 62.963,53.83 c 2.01,1.72 4.474,2.56 6.927,2.56 z"
           id="path13249"
           style="fill:#666666;fill-opacity:1" />
        <path
           d="m 229.031,304.897 c 1.096,0.357 2.21,0.527 3.305,0.527 4.494,0 8.674,-2.864 10.141,-7.367 L 289.81,152.648 c 1.824,-5.602 -1.239,-11.622 -6.841,-13.444 -5.602,-1.825 -11.622,1.239 -13.444,6.841 l -47.333,145.409 c -1.826,5.6 1.238,11.62 6.839,13.443 z"
           id="path13251"
           style="fill:#666666;fill-opacity:1" />
      </g>
    </g>
    <g
       id="g2972"
       transform="translate(410.8577,123.31479)"
       style="display:inline;stroke-linecap:butt;stroke-linejoin:round;stroke-miterlimit:100000">
      <path
         style="display:inline;fill:#e6e6e6;stroke:#ffffff;stroke-width:0.0574301;stroke-miterlimit:100;stroke-dasharray:none"
         d="m -382.91243,-1345.9622 h 2.21348 l 1.17324,1.1686 v 2.7391 c 0,0.144 -0.1167,0.2605 -0.26052,0.2605 h -3.1262 c -0.14382,0 -0.26052,-0.1165 -0.26052,-0.2605 v -3.6473 c 0,-0.1438 0.11672,-0.2604 0.26052,-0.2604 z"
         id="path13257" />
      <path
         style="display:inline;fill:#c2c5c7;stroke-width:0.013478"
         d="m -379.52946,-1344.7899 h -0.90804 c -0.14381,0 -0.26052,-0.1167 -0.26052,-0.2606 v -0.9091 z"
         id="path13295" />
      <g
         id="g13293"
         transform="matrix(0.01111088,0,0,0.01111088,-382.74552,-1344.9867)"
         style="display:inline;fill:#666666;fill-opacity:1">
        <g
           id="g13261"
           style="fill:#666666;fill-opacity:1">
          <path
             id="path13259"
             d="M 75.067,2.72 C 73.792,2.757 72.58,3.28 71.678,4.181 l -15,15 c -1.975,1.93 -2.012,5.096 -0.082,7.071 1.93,1.975 5.096,2.012 7.071,0.082 0.028,-0.027 0.056,-0.055 0.083,-0.083 l 6.463,-6.463 v 42.928 h -10 c -2.761,-0.039 -5.032,2.168 -5.071,4.929 -0.039,2.761 2.168,5.032 4.929,5.071 0.047,0.001 0.094,0.001 0.141,0 h 14.182 c 0.535,0.088 1.08,0.088 1.615,0 h 9.203 c 2.761,0.039 5.032,-2.168 5.071,-4.929 0.039,-2.761 -2.168,-5.032 -4.929,-5.071 -0.047,-10e-4 -0.094,-10e-4 -0.141,0 h -5 v -55 C 80.212,4.954 77.972,2.717 75.21,2.718 c -0.047,0 -0.095,10e-4 -0.143,0.002 z m 55.143,0 c -1.275,0.037 -2.487,0.56 -3.389,1.461 l -15,15 c -1.992,1.913 -2.057,5.078 -0.144,7.07 1.913,1.992 5.078,2.057 7.07,0.144 0.049,-0.047 0.097,-0.095 0.144,-0.144 l 6.465,-6.465 v 42.93 h -10 c -2.761,-0.039 -5.032,2.168 -5.071,4.929 -0.039,2.761 2.168,5.032 4.929,5.071 0.047,0.001 0.094,0.001 0.141,0 h 14.182 c 0.537,0.088 1.084,0.088 1.621,0 h 9.197 c 2.761,0.039 5.032,-2.168 5.071,-4.929 0.039,-2.761 -2.168,-5.032 -4.929,-5.071 -0.047,-10e-4 -0.094,-10e-4 -0.141,0 h -5 v -55 c -0.001,-2.762 -2.241,-4.999 -5.003,-4.998 -0.047,0 -0.095,10e-4 -0.143,0.002 z M 17.571,2.754 c -9.609,0 -17.5,7.891 -17.5,17.5 v 35 c 0,9.609 7.891,17.5 17.5,17.5 9.609,0 17.5,-7.891 17.5,-17.5 v -35 c 0,-9.609 -7.891,-17.5 -17.5,-17.5 z m 165.428,0 c -9.609,0 -17.5,7.891 -17.5,17.5 v 35 c 0,9.609 7.891,17.5 17.5,17.5 9.609,0 17.5,-7.891 17.5,-17.5 v -35 c 0,-9.609 -7.892,-17.5 -17.5,-17.5 z m 55.143,0 c -9.609,0 -17.5,7.891 -17.5,17.5 v 35 c 0,9.609 7.891,17.5 17.5,17.5 9.609,0 17.5,-7.891 17.5,-17.5 v -35 c 0,-9.609 -7.892,-17.5 -17.5,-17.5 z m -220.571,10 c 4.241,0 7.5,3.259 7.5,7.5 v 35 c 0,4.241 -3.259,7.5 -7.5,7.5 -4.241,0 -7.5,-3.259 -7.5,-7.5 v -35 c 0,-4.242 3.259,-7.5 7.5,-7.5 z m 165.428,0 c 4.241,0 7.5,3.259 7.5,7.5 v 35 c 0,4.241 -3.259,7.5 -7.5,7.5 -4.241,0 -7.5,-3.259 -7.5,-7.5 v -35 c 0,-4.242 3.258,-7.5 7.5,-7.5 z m 55.143,0 c 4.241,0 7.5,3.259 7.5,7.5 v 35 c 0,4.241 -3.259,7.5 -7.5,7.5 -4.241,0 -7.5,-3.259 -7.5,-7.5 v -35 c 0,-4.242 3.258,-7.5 7.5,-7.5 z M 19.925,92.791 c -1.275,0.037 -2.487,0.56 -3.389,1.461 l -15,15 c -1.952,1.954 -1.949,5.121 0.005,7.072 1.952,1.95 5.115,1.95 7.067,0 l 6.463,-6.463 v 42.928 h -10 C 2.31,152.75 0.039,154.957 0,157.718 c -0.039,2.761 2.168,5.032 4.929,5.071 0.047,0.001 0.094,0.001 0.141,0 h 14.182 c 0.537,0.088 1.084,0.088 1.621,0 h 9.197 c 2.761,0.039 5.032,-2.168 5.071,-4.929 0.039,-2.761 -2.168,-5.032 -4.929,-5.071 -0.047,-10e-4 -0.094,-10e-4 -0.141,0 h -5 v -55 c 0,-2.762 -2.239,-5 -5.001,-5 -0.048,0 -0.097,0 -0.145,0.002 z m 110.285,0 c -1.275,0.037 -2.487,0.56 -3.389,1.461 l -15,15 c -1.976,1.93 -2.013,5.095 -0.084,7.071 1.93,1.976 5.095,2.013 7.071,0.084 0.028,-0.027 0.056,-0.055 0.083,-0.083 l 6.465,-6.465 v 42.93 h -10 c -2.761,-0.039 -5.032,2.168 -5.071,4.929 -0.039,2.761 2.168,5.032 4.929,5.071 0.047,0.001 0.094,0.001 0.141,0 h 14.182 c 0.537,0.088 1.084,0.088 1.621,0 h 9.197 c 2.761,0.039 5.032,-2.168 5.071,-4.929 0.039,-2.761 -2.168,-5.032 -4.929,-5.071 -0.047,-10e-4 -0.094,-10e-4 -0.141,0 h -5 v -55 c 0,-2.762 -2.239,-5 -5.001,-5 -0.048,0 -0.097,0 -0.145,0.002 z m 55.142,0 c -1.275,0.037 -2.487,0.56 -3.389,1.461 l -15,15 c -1.976,1.93 -2.013,5.095 -0.084,7.071 1.93,1.976 5.095,2.013 7.071,0.084 0.028,-0.027 0.056,-0.055 0.083,-0.083 l 6.465,-6.465 v 42.93 h -10 c -2.761,-0.039 -5.032,2.168 -5.071,4.929 -0.039,2.761 2.168,5.032 4.929,5.071 0.047,0.001 0.094,0.001 0.141,0 h 14.182 c 0.537,0.088 1.084,0.088 1.621,0 h 9.197 c 2.761,0.039 5.032,-2.168 5.071,-4.929 0.039,-2.761 -2.168,-5.032 -4.929,-5.071 -0.047,-10e-4 -0.094,-10e-4 -0.141,0 h -5 v -55 c 0,-2.762 -2.239,-5 -5.001,-5 -0.047,0 -0.096,0 -0.145,0.002 z M 72.714,92.824 c -9.609,0 -17.5,7.891 -17.5,17.5 v 35 c 0,9.609 7.891,17.5 17.5,17.5 9.609,0 17.5,-7.891 17.5,-17.5 v -35 c 0,-9.609 -7.892,-17.5 -17.5,-17.5 z m 165.428,0 c -9.609,0 -17.5,7.891 -17.5,17.5 v 35 c 0,9.609 7.891,17.5 17.5,17.5 9.609,0 17.5,-7.891 17.5,-17.5 v -35 c 0,-9.609 -7.892,-17.5 -17.5,-17.5 z m -165.428,10 c 4.241,0 7.5,3.259 7.5,7.5 v 35 c 0,4.241 -3.259,7.5 -7.5,7.5 -4.241,0 -7.5,-3.259 -7.5,-7.5 v -35 c 0,-4.242 3.258,-7.5 7.5,-7.5 z m 165.428,0 c 4.241,0 7.5,3.259 7.5,7.5 v 35 c 0,4.241 -3.259,7.5 -7.5,7.5 -4.241,0 -7.5,-3.259 -7.5,-7.5 v -35 c 0,-4.242 3.258,-7.5 7.5,-7.5 z M 19.925,182.861 c -1.275,0.037 -2.487,0.56 -3.389,1.461 l -15,15 c -1.953,1.953 -1.953,5.119 0,7.072 1.953,1.953 5.119,1.953 7.072,0 l 6.463,-6.463 v 42.926 h -10 C 2.31,242.818 0.039,245.025 0,247.786 c -0.039,2.761 2.168,5.032 4.929,5.071 0.047,0.001 0.094,0.001 0.141,0 h 14.182 c 0.537,0.088 1.084,0.088 1.621,0 h 9.197 c 2.761,0.039 5.032,-2.168 5.071,-4.929 0.039,-2.761 -2.168,-5.032 -4.929,-5.071 -0.047,-0.001 -0.094,-0.001 -0.141,0 h -5 v -55 c -0.001,-2.762 -2.241,-4.999 -5.003,-4.998 -0.047,0 -0.095,0.001 -0.143,0.002 z m 55.142,0 c -1.275,0.037 -2.487,0.56 -3.389,1.461 l -15,15 c -1.953,1.953 -1.953,5.119 0,7.072 1.953,1.953 5.119,1.953 7.072,0 l 6.463,-6.463 v 42.926 h -10 c -2.761,-0.039 -5.032,2.168 -5.071,4.929 -0.039,2.761 2.168,5.032 4.929,5.071 0.047,0.001 0.094,0.001 0.141,0 h 14.182 c 0.535,0.088 1.08,0.088 1.615,0 h 9.203 c 2.761,0.039 5.032,-2.168 5.071,-4.929 0.039,-2.761 -2.168,-5.032 -4.929,-5.071 -0.047,-0.001 -0.094,-0.001 -0.141,0 h -5 v -55 c -10e-4,-2.762 -2.241,-4.999 -5.003,-4.998 -0.047,0 -0.095,0.001 -0.143,0.002 z m 55.143,0 c -1.275,0.037 -2.487,0.56 -3.389,1.461 l -15,15 c -1.976,1.93 -2.013,5.095 -0.084,7.071 1.93,1.976 5.095,2.013 7.071,0.084 0.028,-0.027 0.056,-0.055 0.083,-0.083 l 6.465,-6.465 v 42.928 h -10 c -2.761,-0.039 -5.032,2.168 -5.071,4.929 -0.039,2.761 2.168,5.032 4.929,5.071 0.047,0.001 0.094,0.001 0.141,0 h 14.182 c 0.537,0.088 1.084,0.088 1.621,0 h 9.197 c 2.761,0.039 5.032,-2.168 5.071,-4.929 0.039,-2.761 -2.168,-5.032 -4.929,-5.071 -0.047,-0.001 -0.094,-0.001 -0.141,0 h -5 v -55 c -0.001,-2.762 -2.241,-4.999 -5.003,-4.998 -0.047,0 -0.095,0.001 -0.143,0.002 z m 55.142,0 c -1.275,0.037 -2.487,0.56 -3.389,1.461 l -15,15 c -1.976,1.93 -2.013,5.095 -0.084,7.071 1.93,1.976 5.095,2.013 7.071,0.084 0.028,-0.027 0.056,-0.055 0.083,-0.083 l 6.465,-6.465 v 42.928 h -10 c -2.761,-0.039 -5.032,2.168 -5.071,4.929 -0.039,2.761 2.168,5.032 4.929,5.071 0.047,0.001 0.094,0.001 0.141,0 h 14.182 c 0.537,0.088 1.084,0.088 1.621,0 h 9.197 c 2.761,0.039 5.032,-2.168 5.071,-4.929 0.039,-2.761 -2.168,-5.032 -4.929,-5.071 -0.047,-0.001 -0.094,-0.001 -0.141,0 h -5 v -55 c -10e-4,-2.762 -2.241,-4.999 -5.003,-4.998 -0.047,0 -0.095,0.001 -0.143,0.002 z m 52.79,0.033 c -9.609,0 -17.5,7.891 -17.5,17.5 v 35 c 0,9.609 7.891,17.5 17.5,17.5 9.609,0 17.5,-7.891 17.5,-17.5 v -35 c 0,-9.608 -7.892,-17.5 -17.5,-17.5 z m 0,10 c 4.241,0 7.5,3.259 7.5,7.5 v 35 c 0,4.241 -3.259,7.5 -7.5,7.5 -4.241,0 -7.5,-3.259 -7.5,-7.5 v -35 c 0,-4.241 3.258,-7.5 7.5,-7.5 z"
             style="fill:#666666;fill-opacity:1" />
        </g>
        <g
           id="g13263"
           style="fill:#666666;fill-opacity:1" />
        <g
           id="g13265"
           style="fill:#666666;fill-opacity:1" />
        <g
           id="g13267"
           style="fill:#666666;fill-opacity:1" />
        <g
           id="g13269"
           style="fill:#666666;fill-opacity:1" />
        <g
           id="g13271"
           style="fill:#666666;fill-opacity:1" />
        <g
           id="g13273"
           style="fill:#666666;fill-opacity:1" />
        <g
           id="g13275"
           style="fill:#666666;fill-opacity:1" />
        <g
           id="g13277"
           style="fill:#666666;fill-opacity:1" />
        <g
           id="g13279"
           style="fill:#666666;fill-opacity:1" />
        <g
           id="g13281"
           style="fill:#666666;fill-opacity:1" />
        <g
           id="g13283"
           style="fill:#666666;fill-opacity:1" />
        <g
           id="g13285"
           style="fill:#666666;fill-opacity:1" />
        <g
           id="g13287"
           style="fill:#666666;fill-opacity:1" />
        <g
           id="g13289"
           style="fill:#666666;fill-opacity:1" />
        <g
           id="g13291"
           style="fill:#666666;fill-opacity:1" />
      </g>
    </g>
  </g>
</svg>
