<?xml version="1.0" encoding="UTF-8" standalone="no"?>
<!-- Created with Inkscape (http://www.inkscape.org/) -->

<svg
   width="23.568684mm"
   height="21.939154mm"
   viewBox="0 0 23.568684 21.939153"
   version="1.1"
   id="svg47351"
   xmlns="http://www.w3.org/2000/svg"
   xmlns:svg="http://www.w3.org/2000/svg">
  <defs
     id="defs47348" />
  <g
     id="layer1"
     transform="translate(-9.0854604,1236.6838)">
    <path
       style="display:inline;fill:#6fcc33;fill-opacity:1;stroke:none;stroke-width:0.1;stroke-linecap:butt;stroke-linejoin:round;stroke-miterlimit:100;stroke-dasharray:none"
       d="m 19.33696,-1225.0011 c 0,2.2598 0,4.5197 0,6.7795 0,0 -0.007,0.2148 0.27188,0.2148 h 2.37773 c 0.38814,0 0.32144,-0.2567 0.32144,-0.2567 0,-2.253 0,-4.5061 0,-6.7591 -1.48887,0 -1.382,0.022 -2.97105,0.022 z"
       id="path2854" />
    <g
       id="use2729"
       transform="translate(410.5518,123.3809)"
       style="display:inline;stroke-linecap:butt;stroke-linejoin:round;stroke-miterlimit:100000">
      <path
         style="display:inline;fill:#333333;fill-opacity:1;stroke-width:0.376025;stroke-linecap:butt;stroke-linejoin:round;stroke-miterlimit:100000"
         d="m -390.20896,-1360.0647 -3.27581,1.5334 c -1.8017,0.8435 -3.57976,1.6736 -3.95121,1.8447 -2.73894,1.2622 -3.91448,1.8374 -3.98563,1.9502 -0.0591,0.093 -0.0595,0.1674 -0.002,0.259 0.0649,0.1025 10.81552,5.1927 11.2456,5.324 h 3e-4 c 0.0656,0.02 0.33939,0.024 0.60861,0.011 0.46293,-0.025 0.78967,-0.1676 6.01949,-2.6174 3.04142,-1.4248 5.56583,-2.6476 5.60986,-2.7174 0.0568,-0.09 0.0561,-0.1649 -0.002,-0.2577 -0.0711,-0.1128 -1.24671,-0.6879 -3.98563,-1.9501 -0.37147,-0.1712 -2.14952,-1.0014 -3.95122,-1.8447 l -3.27581,-1.5335 h -0.52713 z"
         id="path73571" />
      <path
         style="display:inline;fill:#333333;fill-opacity:1;stroke-width:0.376025;stroke-linecap:butt;stroke-linejoin:round;stroke-miterlimit:100000"
         d="m -398.56601,-1345.9767 c -0.39345,0.011 -0.55136,0.075 -1.57539,0.5584 -1.23593,0.5833 -1.42668,0.7263 -1.28049,0.9601 0.068,0.1088 10.80414,5.1928 11.22986,5.3178 0.0734,0.022 0.35381,0.027 0.62304,0.014 0.46431,-0.024 0.77376,-0.1583 6.01697,-2.6125 3.04015,-1.4229 5.5647,-2.6464 5.61001,-2.7189 0.14619,-0.2339 -0.0447,-0.3769 -1.28065,-0.9602 -1.1703,-0.5521 -1.20911,-0.5646 -1.76145,-0.5576 l -0.5648,0.01 -3.71896,1.7474 c -2.04548,0.961 -3.88019,1.7845 -4.07712,1.8299 -0.26464,0.061 -0.44866,0.06 -0.70526,0 -0.19093,-0.048 -2.01608,-0.8716 -4.05593,-1.8299 l -3.70881,-1.7427 -0.5648,-0.01 c -0.069,-7e-4 -0.13,0 -0.18622,-7e-4 z"
         id="path73573" />
      <path
         style="display:inline;fill:#333333;fill-opacity:1;stroke-width:0.376025;stroke-linecap:butt;stroke-linejoin:round;stroke-miterlimit:100000"
         d="m -398.56601,-1350.7392 c -0.39345,0.011 -0.55136,0.075 -1.57539,0.5584 -1.23593,0.5833 -1.42668,0.7263 -1.28049,0.9601 0.068,0.1088 10.80414,5.1928 11.22986,5.3178 0.0734,0.022 0.35381,0.027 0.62304,0.014 0.46431,-0.024 0.77376,-0.1583 6.01697,-2.6125 3.04015,-1.4229 5.5647,-2.6464 5.61001,-2.7189 0.14619,-0.2339 -0.0447,-0.3769 -1.28065,-0.9602 -1.1703,-0.5521 -1.20911,-0.5646 -1.76145,-0.5576 l -0.5648,0.01 -3.71896,1.7474 c -2.04548,0.961 -3.88019,1.7845 -4.07712,1.8299 -0.26464,0.061 -0.44866,0.06 -0.70526,0 -0.19093,-0.048 -2.01608,-0.8716 -4.05593,-1.8299 l -3.70881,-1.7427 -0.5648,-0.01 c -0.069,-7e-4 -0.13,0 -0.18622,-7e-4 z"
         id="use73575" />
    </g>
    <g
       id="g2832"
       transform="translate(410.5518,123.3809)"
       style="display:inline;stroke-linecap:butt;stroke-linejoin:round;stroke-miterlimit:100000">
      <g
         id="g2772"
         transform="matrix(0.0509403,0,0,0.0509403,-411.60189,-1349.9571)"
         style="display:inline;stroke-linecap:butt;stroke-linejoin:round;stroke-miterlimit:100000">
        <path
           style="fill:#ffa200;fill-opacity:1;stroke:#ffffff;stroke-width:1.1274;stroke-miterlimit:100;stroke-dasharray:none"
           d="m 235.34808,78.297183 h 43.45252 l 23.03172,22.942287 v 53.77047 c 0,2.82549 -2.29103,5.11414 -5.11413,5.11414 h -61.37011 c -2.8231,0 -5.11413,-2.28865 -5.11413,-5.11414 V 83.411314 c 0,-2.825485 2.29129,-5.114131 5.11413,-5.114131 z"
           id="path2766" />
        <path
           style="fill:#c2c5c7;stroke-width:0.264583"
           d="m 301.7585,101.31091 h -17.82551 c -2.8231,0 -5.11413,-2.291031 -5.11413,-5.114136 V 78.348248 Z"
           id="path2768" />
        <path
           style="fill:#666666;stroke-width:0.264583"
           d="m 240.46248,111.53943 v 5.11413 h 51.14184 v -5.11413 z m 0,15.34504 h 51.14184 v -5.11413 h -51.14184 z m 0,10.22588 h 51.14184 v -5.11413 h -51.14184 z m 0,10.22826 h 51.14184 v -5.11174 h -51.14184 z m 28.12785,-46.0277 h -28.12785 v 5.11413 h 28.12812 z m 0,-10.228267 h -28.12785 v 5.114131 h 28.12812 z"
           id="path2770" />
      </g>
      <g
         id="g2788"
         transform="matrix(0.0509403,0,0,0.0509403,-402.94661,-1345.9184)"
         style="display:inline;stroke-linecap:butt;stroke-linejoin:round;stroke-miterlimit:100000">
        <g
           id="g2778"
           transform="matrix(0.26458333,0,0,0.26458333,219.13431,70.589534)"
           style="fill:#8dd35f;fill-opacity:1;stroke:#ffffff;stroke-width:4.26104;stroke-miterlimit:100;stroke-dasharray:none">
          <path
             style="fill:#ffa200;fill-opacity:1;stroke:#ffffff;stroke-width:4.26104;stroke-miterlimit:100;stroke-dasharray:none"
             d="m 38.658,-2.5196849e-7 h 164.23 L 289.937,86.711 v 203.227 c 0,10.679 -8.659,19.329 -19.329,19.329 H 38.658 c -10.67,0 -19.329,-8.65 -19.329,-19.329 V 19.329 C 19.329,8.6499997 27.989,-2.5196849e-7 38.658,-2.5196849e-7 Z"
             id="path2774" />
          <path
             style="fill:#c2c5c7;fill-opacity:1;stroke:none;stroke-width:4.26104;stroke-miterlimit:100;stroke-dasharray:none"
             d="m 289.658,86.981 h -67.372 c -10.67,0 -19.329,-8.659 -19.329,-19.329 V 0.193 Z"
             id="path2776" />
        </g>
        <g
           id="g2786"
           transform="matrix(0.2233203,0,0,0.21863132,202.72137,72.037539)"
           style="fill:#666666;fill-opacity:1;stroke-linecap:butt;stroke-linejoin:round;stroke-miterlimit:100000">
          <path
             d="m 308.683,161.287 c -3.828,4.477 -3.302,11.211 1.177,15.039 l 53.481,45.723 -53.481,45.723 c -4.478,3.828 -5.004,10.561 -1.177,15.039 2.11,2.467 5.101,3.736 8.112,3.736 2.452,0 4.916,-0.841 6.926,-2.559 l 62.963,-53.83 c 2.371,-2.026 3.735,-4.989 3.735,-8.108 0,-3.119 -1.364,-6.081 -3.734,-8.108 l -62.963,-53.83 c -4.476,-3.83 -11.212,-3.303 -15.039,1.175 z"
             id="path2780"
             style="fill:#666666;fill-opacity:1" />
          <path
             d="m 195.204,286.546 c 3.01,0 6.003,-1.267 8.112,-3.735 3.828,-4.477 3.302,-11.211 -1.177,-15.039 l -53.481,-45.723 53.481,-45.723 c 4.478,-3.828 5.004,-10.561 1.177,-15.039 -3.827,-4.478 -10.562,-5.006 -15.039,-1.177 l -62.963,53.83 c -2.371,2.026 -3.735,4.989 -3.735,8.108 0,3.119 1.364,6.081 3.735,8.108 l 62.963,53.83 c 2.01,1.72 4.474,2.56 6.927,2.56 z"
             id="path2782"
             style="fill:#666666;fill-opacity:1" />
          <path
             d="m 229.031,304.897 c 1.096,0.357 2.21,0.527 3.305,0.527 4.494,0 8.674,-2.864 10.141,-7.367 L 289.81,152.648 c 1.824,-5.602 -1.239,-11.622 -6.841,-13.444 -5.602,-1.825 -11.622,1.239 -13.444,6.841 l -47.333,145.409 c -1.826,5.6 1.238,11.62 6.839,13.443 z"
             id="path2784"
             style="fill:#666666;fill-opacity:1" />
        </g>
      </g>
      <g
         id="use2369"
         transform="matrix(0.05104695,0,0,0.05104695,-394.61873,-1354.4241)"
         style="display:inline;stroke-linecap:butt;stroke-linejoin:round;stroke-miterlimit:100000">
        <path
           style="fill:#ffa200;fill-opacity:1;stroke:#ffffff;stroke-width:1.1274;stroke-miterlimit:100;stroke-dasharray:none"
           d="m 229.36257,165.83958 h 43.45252 l 23.03172,22.94229 v 53.77047 c 0,2.82549 -2.29103,5.11413 -5.11413,5.11413 h -61.37011 c -2.8231,0 -5.11413,-2.28864 -5.11413,-5.11413 v -71.59863 c 0,-2.82548 2.29129,-5.11413 5.11413,-5.11413 z"
           id="path72522" />
        <g
           id="g72558"
           transform="matrix(0.21811568,0,0,0.21811568,232.63915,184.9902)"
           style="fill:#666666;fill-opacity:1">
          <g
             id="g72526"
             style="fill:#666666;fill-opacity:1">
            <path
               id="path72524"
               d="M 75.067,2.72 C 73.792,2.757 72.58,3.28 71.678,4.181 l -15,15 c -1.975,1.93 -2.012,5.096 -0.082,7.071 1.93,1.975 5.096,2.012 7.071,0.082 0.028,-0.027 0.056,-0.055 0.083,-0.083 l 6.463,-6.463 v 42.928 h -10 c -2.761,-0.039 -5.032,2.168 -5.071,4.929 -0.039,2.761 2.168,5.032 4.929,5.071 0.047,0.001 0.094,0.001 0.141,0 h 14.182 c 0.535,0.088 1.08,0.088 1.615,0 h 9.203 c 2.761,0.039 5.032,-2.168 5.071,-4.929 0.039,-2.761 -2.168,-5.032 -4.929,-5.071 -0.047,-10e-4 -0.094,-10e-4 -0.141,0 h -5 v -55 C 80.212,4.954 77.972,2.717 75.21,2.718 c -0.047,0 -0.095,10e-4 -0.143,0.002 z m 55.143,0 c -1.275,0.037 -2.487,0.56 -3.389,1.461 l -15,15 c -1.992,1.913 -2.057,5.078 -0.144,7.07 1.913,1.992 5.078,2.057 7.07,0.144 0.049,-0.047 0.097,-0.095 0.144,-0.144 l 6.465,-6.465 v 42.93 h -10 c -2.761,-0.039 -5.032,2.168 -5.071,4.929 -0.039,2.761 2.168,5.032 4.929,5.071 0.047,0.001 0.094,0.001 0.141,0 h 14.182 c 0.537,0.088 1.084,0.088 1.621,0 h 9.197 c 2.761,0.039 5.032,-2.168 5.071,-4.929 0.039,-2.761 -2.168,-5.032 -4.929,-5.071 -0.047,-10e-4 -0.094,-10e-4 -0.141,0 h -5 v -55 c -0.001,-2.762 -2.241,-4.999 -5.003,-4.998 -0.047,0 -0.095,10e-4 -0.143,0.002 z M 17.571,2.754 c -9.609,0 -17.5,7.891 -17.5,17.5 v 35 c 0,9.609 7.891,17.5 17.5,17.5 9.609,0 17.5,-7.891 17.5,-17.5 v -35 c 0,-9.609 -7.891,-17.5 -17.5,-17.5 z m 165.428,0 c -9.609,0 -17.5,7.891 -17.5,17.5 v 35 c 0,9.609 7.891,17.5 17.5,17.5 9.609,0 17.5,-7.891 17.5,-17.5 v -35 c 0,-9.609 -7.892,-17.5 -17.5,-17.5 z m 55.143,0 c -9.609,0 -17.5,7.891 -17.5,17.5 v 35 c 0,9.609 7.891,17.5 17.5,17.5 9.609,0 17.5,-7.891 17.5,-17.5 v -35 c 0,-9.609 -7.892,-17.5 -17.5,-17.5 z m -220.571,10 c 4.241,0 7.5,3.259 7.5,7.5 v 35 c 0,4.241 -3.259,7.5 -7.5,7.5 -4.241,0 -7.5,-3.259 -7.5,-7.5 v -35 c 0,-4.242 3.259,-7.5 7.5,-7.5 z m 165.428,0 c 4.241,0 7.5,3.259 7.5,7.5 v 35 c 0,4.241 -3.259,7.5 -7.5,7.5 -4.241,0 -7.5,-3.259 -7.5,-7.5 v -35 c 0,-4.242 3.258,-7.5 7.5,-7.5 z m 55.143,0 c 4.241,0 7.5,3.259 7.5,7.5 v 35 c 0,4.241 -3.259,7.5 -7.5,7.5 -4.241,0 -7.5,-3.259 -7.5,-7.5 v -35 c 0,-4.242 3.258,-7.5 7.5,-7.5 z M 19.925,92.791 c -1.275,0.037 -2.487,0.56 -3.389,1.461 l -15,15 c -1.952,1.954 -1.949,5.121 0.005,7.072 1.952,1.95 5.115,1.95 7.067,0 l 6.463,-6.463 v 42.928 h -10 C 2.31,152.75 0.039,154.957 0,157.718 c -0.039,2.761 2.168,5.032 4.929,5.071 0.047,0.001 0.094,0.001 0.141,0 h 14.182 c 0.537,0.088 1.084,0.088 1.621,0 h 9.197 c 2.761,0.039 5.032,-2.168 5.071,-4.929 0.039,-2.761 -2.168,-5.032 -4.929,-5.071 -0.047,-10e-4 -0.094,-10e-4 -0.141,0 h -5 v -55 c 0,-2.762 -2.239,-5 -5.001,-5 -0.048,0 -0.097,0 -0.145,0.002 z m 110.285,0 c -1.275,0.037 -2.487,0.56 -3.389,1.461 l -15,15 c -1.976,1.93 -2.013,5.095 -0.084,7.071 1.93,1.976 5.095,2.013 7.071,0.084 0.028,-0.027 0.056,-0.055 0.083,-0.083 l 6.465,-6.465 v 42.93 h -10 c -2.761,-0.039 -5.032,2.168 -5.071,4.929 -0.039,2.761 2.168,5.032 4.929,5.071 0.047,0.001 0.094,0.001 0.141,0 h 14.182 c 0.537,0.088 1.084,0.088 1.621,0 h 9.197 c 2.761,0.039 5.032,-2.168 5.071,-4.929 0.039,-2.761 -2.168,-5.032 -4.929,-5.071 -0.047,-10e-4 -0.094,-10e-4 -0.141,0 h -5 v -55 c 0,-2.762 -2.239,-5 -5.001,-5 -0.048,0 -0.097,0 -0.145,0.002 z m 55.142,0 c -1.275,0.037 -2.487,0.56 -3.389,1.461 l -15,15 c -1.976,1.93 -2.013,5.095 -0.084,7.071 1.93,1.976 5.095,2.013 7.071,0.084 0.028,-0.027 0.056,-0.055 0.083,-0.083 l 6.465,-6.465 v 42.93 h -10 c -2.761,-0.039 -5.032,2.168 -5.071,4.929 -0.039,2.761 2.168,5.032 4.929,5.071 0.047,0.001 0.094,0.001 0.141,0 h 14.182 c 0.537,0.088 1.084,0.088 1.621,0 h 9.197 c 2.761,0.039 5.032,-2.168 5.071,-4.929 0.039,-2.761 -2.168,-5.032 -4.929,-5.071 -0.047,-10e-4 -0.094,-10e-4 -0.141,0 h -5 v -55 c 0,-2.762 -2.239,-5 -5.001,-5 -0.047,0 -0.096,0 -0.145,0.002 z M 72.714,92.824 c -9.609,0 -17.5,7.891 -17.5,17.5 v 35 c 0,9.609 7.891,17.5 17.5,17.5 9.609,0 17.5,-7.891 17.5,-17.5 v -35 c 0,-9.609 -7.892,-17.5 -17.5,-17.5 z m 165.428,0 c -9.609,0 -17.5,7.891 -17.5,17.5 v 35 c 0,9.609 7.891,17.5 17.5,17.5 9.609,0 17.5,-7.891 17.5,-17.5 v -35 c 0,-9.609 -7.892,-17.5 -17.5,-17.5 z m -165.428,10 c 4.241,0 7.5,3.259 7.5,7.5 v 35 c 0,4.241 -3.259,7.5 -7.5,7.5 -4.241,0 -7.5,-3.259 -7.5,-7.5 v -35 c 0,-4.242 3.258,-7.5 7.5,-7.5 z m 165.428,0 c 4.241,0 7.5,3.259 7.5,7.5 v 35 c 0,4.241 -3.259,7.5 -7.5,7.5 -4.241,0 -7.5,-3.259 -7.5,-7.5 v -35 c 0,-4.242 3.258,-7.5 7.5,-7.5 z M 19.925,182.861 c -1.275,0.037 -2.487,0.56 -3.389,1.461 l -15,15 c -1.953,1.953 -1.953,5.119 0,7.072 1.953,1.953 5.119,1.953 7.072,0 l 6.463,-6.463 v 42.926 h -10 C 2.31,242.818 0.039,245.025 0,247.786 c -0.039,2.761 2.168,5.032 4.929,5.071 0.047,0.001 0.094,0.001 0.141,0 h 14.182 c 0.537,0.088 1.084,0.088 1.621,0 h 9.197 c 2.761,0.039 5.032,-2.168 5.071,-4.929 0.039,-2.761 -2.168,-5.032 -4.929,-5.071 -0.047,-0.001 -0.094,-0.001 -0.141,0 h -5 v -55 c -0.001,-2.762 -2.241,-4.999 -5.003,-4.998 -0.047,0 -0.095,0.001 -0.143,0.002 z m 55.142,0 c -1.275,0.037 -2.487,0.56 -3.389,1.461 l -15,15 c -1.953,1.953 -1.953,5.119 0,7.072 1.953,1.953 5.119,1.953 7.072,0 l 6.463,-6.463 v 42.926 h -10 c -2.761,-0.039 -5.032,2.168 -5.071,4.929 -0.039,2.761 2.168,5.032 4.929,5.071 0.047,0.001 0.094,0.001 0.141,0 h 14.182 c 0.535,0.088 1.08,0.088 1.615,0 h 9.203 c 2.761,0.039 5.032,-2.168 5.071,-4.929 0.039,-2.761 -2.168,-5.032 -4.929,-5.071 -0.047,-0.001 -0.094,-0.001 -0.141,0 h -5 v -55 c -10e-4,-2.762 -2.241,-4.999 -5.003,-4.998 -0.047,0 -0.095,0.001 -0.143,0.002 z m 55.143,0 c -1.275,0.037 -2.487,0.56 -3.389,1.461 l -15,15 c -1.976,1.93 -2.013,5.095 -0.084,7.071 1.93,1.976 5.095,2.013 7.071,0.084 0.028,-0.027 0.056,-0.055 0.083,-0.083 l 6.465,-6.465 v 42.928 h -10 c -2.761,-0.039 -5.032,2.168 -5.071,4.929 -0.039,2.761 2.168,5.032 4.929,5.071 0.047,0.001 0.094,0.001 0.141,0 h 14.182 c 0.537,0.088 1.084,0.088 1.621,0 h 9.197 c 2.761,0.039 5.032,-2.168 5.071,-4.929 0.039,-2.761 -2.168,-5.032 -4.929,-5.071 -0.047,-0.001 -0.094,-0.001 -0.141,0 h -5 v -55 c -0.001,-2.762 -2.241,-4.999 -5.003,-4.998 -0.047,0 -0.095,0.001 -0.143,0.002 z m 55.142,0 c -1.275,0.037 -2.487,0.56 -3.389,1.461 l -15,15 c -1.976,1.93 -2.013,5.095 -0.084,7.071 1.93,1.976 5.095,2.013 7.071,0.084 0.028,-0.027 0.056,-0.055 0.083,-0.083 l 6.465,-6.465 v 42.928 h -10 c -2.761,-0.039 -5.032,2.168 -5.071,4.929 -0.039,2.761 2.168,5.032 4.929,5.071 0.047,0.001 0.094,0.001 0.141,0 h 14.182 c 0.537,0.088 1.084,0.088 1.621,0 h 9.197 c 2.761,0.039 5.032,-2.168 5.071,-4.929 0.039,-2.761 -2.168,-5.032 -4.929,-5.071 -0.047,-0.001 -0.094,-0.001 -0.141,0 h -5 v -55 c -10e-4,-2.762 -2.241,-4.999 -5.003,-4.998 -0.047,0 -0.095,0.001 -0.143,0.002 z m 52.79,0.033 c -9.609,0 -17.5,7.891 -17.5,17.5 v 35 c 0,9.609 7.891,17.5 17.5,17.5 9.609,0 17.5,-7.891 17.5,-17.5 v -35 c 0,-9.608 -7.892,-17.5 -17.5,-17.5 z m 0,10 c 4.241,0 7.5,3.259 7.5,7.5 v 35 c 0,4.241 -3.259,7.5 -7.5,7.5 -4.241,0 -7.5,-3.259 -7.5,-7.5 v -35 c 0,-4.241 3.258,-7.5 7.5,-7.5 z"
               style="fill:#666666;fill-opacity:1" />
          </g>
          <g
             id="g72528"
             style="fill:#666666;fill-opacity:1" />
          <g
             id="g72530"
             style="fill:#666666;fill-opacity:1" />
          <g
             id="g72532"
             style="fill:#666666;fill-opacity:1" />
          <g
             id="g72534"
             style="fill:#666666;fill-opacity:1" />
          <g
             id="g72536"
             style="fill:#666666;fill-opacity:1" />
          <g
             id="g72538"
             style="fill:#666666;fill-opacity:1" />
          <g
             id="g72540"
             style="fill:#666666;fill-opacity:1" />
          <g
             id="g72542"
             style="fill:#666666;fill-opacity:1" />
          <g
             id="g72544"
             style="fill:#666666;fill-opacity:1" />
          <g
             id="g72546"
             style="fill:#666666;fill-opacity:1" />
          <g
             id="g72548"
             style="fill:#666666;fill-opacity:1" />
          <g
             id="g72550"
             style="fill:#666666;fill-opacity:1" />
          <g
             id="g72552"
             style="fill:#666666;fill-opacity:1" />
          <g
             id="g72554"
             style="fill:#666666;fill-opacity:1" />
          <g
             id="g72556"
             style="fill:#666666;fill-opacity:1" />
        </g>
        <path
           style="fill:#c2c5c7;stroke-width:0.264583"
           d="m 295.77299,188.8533 h -17.82551 c -2.8231,0 -5.11413,-2.29102 -5.11413,-5.11413 v -17.84853 z"
           id="path72560" />
      </g>
    </g>
    <g
       id="g19296"
       transform="matrix(0.01791999,0,0,0.01791999,16.073484,-1235.829)"
       style="display:inline;stroke-linecap:butt;stroke-linejoin:round;stroke-miterlimit:100000">
      <circle
         style="fill:#77cbf8;fill-opacity:1"
         cx="256"
         cy="256"
         id="circle19211"
         r="256" />
      <path
         style="fill:#0ea3f1;fill-opacity:1"
         d="M 412,280 352,216 292,343.252 172,280 52,400 v 10.62 C 98.752,472.204 172.72,512 256,512 397.384,512 512,397.384 512,256 512,211.248 500.488,169.2 480.304,132.596 Z"
         id="path19213" />
      <path
         style="fill:#f5f5f5"
         d="m 52,408 c -2.048,0 -4.092,-0.78 -5.656,-2.344 -3.124,-3.124 -3.124,-8.188 0,-11.312 l 120,-120 c 2.48,-2.48 6.28,-3.064 9.388,-1.42 l 112.6,59.36 56.432,-119.688 c 1.124,-2.4 3.368,-4.08 5.984,-4.492 2.624,-0.424 5.268,0.496 7.084,2.428 l 51.892,55.356 71.016,-153.248 c 1.86,-4.012 6.612,-5.748 10.62,-3.896 4.008,1.856 5.752,6.612 3.896,10.62 l -76,164 c -1.116,2.416 -3.36,4.112 -5.984,4.54 -2.616,0.408 -5.288,-0.492 -7.104,-2.424 L 354.22,230.056 299.24,346.66 c -0.924,1.976 -2.628,3.484 -4.7,4.176 -2.064,0.696 -4.332,0.508 -6.264,-0.508 L 173.496,289.824 57.664,405.652 C 56.096,407.22 54.048,408 52,408 Z"
         id="path19215" />
      <circle
         style="fill:#0ea3f1;fill-opacity:1"
         cx="172"
         cy="280"
         r="16"
         id="circle19217" />
      <path
         style="fill:#f5f5f5"
         d="m 172,264 c 8.84,0 16,7.16 16,16 0,8.84 -7.16,16 -16,16 -8.84,0 -16,-7.16 -16,-16 0,-8.84 7.16,-16 16,-16 m 0,-8 c -13.236,0 -24,10.764 -24,24 0,13.236 10.764,24 24,24 13.236,0 24,-10.764 24,-24 0,-13.236 -10.764,-24 -24,-24 z"
         id="path19219" />
      <circle
         style="fill:#0ea3f1;fill-opacity:1"
         cx="46.964001"
         cy="404"
         id="circle19221"
         r="16" />
      <path
         style="fill:#f5f5f5"
         d="m 46.964,388 c 8.84,0 16,7.16 16,16 0,8.84 -7.16,16 -16,16 -8.84,0 -16,-7.16 -16,-16 0,-8.84 7.16,-16 16,-16 m 0,-8 c -13.236,0 -24,10.764 -24,24 0,13.236 10.764,24 24,24 13.236,0 24,-10.764 24,-24 0,-13.236 -10.764,-24 -24,-24 z"
         id="path19223" />
      <circle
         style="fill:#0ea3f1;fill-opacity:1"
         cx="486.95999"
         cy="116"
         r="16"
         id="circle19225" />
      <path
         style="fill:#f5f5f5"
         d="m 486.96,100 c 8.844,0 16,7.16 16,16 0,8.84 -7.156,16 -16,16 -8.836,0 -16,-7.16 -16,-16 0,-8.84 7.164,-16 16,-16 m 0,-8 c -13.236,0 -24,10.764 -24,24 0,13.236 10.764,24 24,24 13.24,0 24,-10.764 24,-24 0,-13.236 -10.76,-24 -24,-24 z"
         id="path19227" />
      <circle
         style="fill:#0ea3f1;fill-opacity:1"
         cx="352"
         cy="216"
         r="16"
         id="circle19229" />
      <path
         style="fill:#f5f5f5"
         d="m 352,200 c 8.84,0 16,7.16 16,16 0,8.84 -7.16,16 -16,16 -8.84,0 -16,-7.16 -16,-16 0,-8.84 7.16,-16 16,-16 m 0,-8 c -13.236,0 -24,10.764 -24,24 0,13.236 10.764,24 24,24 13.236,0 24,-10.764 24,-24 0,-13.236 -10.764,-24 -24,-24 z"
         id="path19231" />
      <g
         id="g19233" />
      <g
         id="g19235" />
      <g
         id="g19237" />
      <g
         id="g19239" />
      <g
         id="g19241" />
      <g
         id="g19243" />
      <g
         id="g19245" />
      <g
         id="g19247" />
      <g
         id="g19249" />
      <g
         id="g19251" />
      <g
         id="g19253" />
      <g
         id="g19255" />
      <g
         id="g19257" />
      <g
         id="g19259" />
      <g
         id="g19261" />
    </g>
    <g
       id="g2852"
       transform="translate(410.55178,123.3809)"
       style="display:inline;stroke-linecap:butt;stroke-linejoin:round;stroke-miterlimit:100000">
      <path
         style="fill:#6fcc33;fill-opacity:1;stroke:#ffffff;stroke-width:0.1;stroke-miterlimit:100;stroke-dasharray:none"
         d="m -386.51466,-1348.6893 -2.999,-3.6235 c 0,0 -0.24584,-0.2884 -0.50375,-0.03 -0.35447,0.3551 -2.90562,3.7409 -2.90562,3.7409 0,0 -0.45294,0.4498 0.14737,0.4498 2.22627,0 3.40331,-0.022 6.22162,-0.022 0.49358,0 0.0394,-0.5159 0.0394,-0.5159 z"
         id="path2842" />
      <path
         style="fill:#6fcc33;fill-opacity:1;stroke:none;stroke-width:0.1;stroke-miterlimit:100;stroke-dasharray:none"
         d="m -391.21485,-1348.6089 v 0.7919 c 1.53666,0 1.50086,-0.042 2.97105,-0.042 v -0.7715 c -1.48887,0 -1.382,0.022 -2.97105,0.022 z"
         id="path2844" />
      <g
         id="g2850"
         transform="matrix(0.15741451,0,0,0.15741451,-355.47364,-1138.8942)"
         style="display:inline;fill:#ffffff;stroke-linecap:butt;stroke-linejoin:round;stroke-miterlimit:100000">
        <path
           d="m -215.43995,-1345.8284 c -1.40221,0 -2.76693,0.3946 -3.94671,1.141 -1.14725,0.7259 -2.07253,1.7513 -2.67583,2.9651 l 1.15119,0.5722 c 1.04008,-2.0928 3.13661,-3.3928 5.47135,-3.3928 3.36702,0 6.10627,2.7393 6.10627,6.1063 0,3.367 -2.73925,6.1063 -6.10627,6.1063 -2.33474,0 -4.43127,-1.3001 -5.47135,-3.3928 l -1.15119,0.5721 c 0.6033,1.214 1.52858,2.2393 2.67583,2.9652 1.17978,0.7464 2.5445,1.141 3.94671,1.141 4.07586,0 7.3918,-3.3159 7.3918,-7.3918 0,-4.0759 -3.31594,-7.3918 -7.3918,-7.3918 z"
           id="path2846"
           style="stroke-width:0.042851" />
        <polygon
           points="0,220 0,250 261.287,250 226.894,284.394 248.106,305.606 318.713,235 248.106,164.394 226.894,185.606 261.287,220 "
           id="polygon2848"
           transform="matrix(0.04285103,0,0,0.04285103,-228.18813,-1348.5066)" />
      </g>
    </g>
  </g>
</svg>
