<?xml version="1.0" encoding="UTF-8" standalone="no"?>
<!-- Created with Inkscape (http://www.inkscape.org/) -->

<svg
   width="148.54068mm"
   height="198.11108mm"
   viewBox="0 0 148.54068 198.11108"
   version="1.1"
   id="svg5"
   xml:space="preserve"
   inkscape:version="1.2.2 (b0a8486541, 2022-12-01)"
   sodipodi:docname="distributed_consortium.svg"
   xmlns:inkscape="http://www.inkscape.org/namespaces/inkscape"
   xmlns:sodipodi="http://sodipodi.sourceforge.net/DTD/sodipodi-0.dtd"
   xmlns="http://www.w3.org/2000/svg"
   xmlns:svg="http://www.w3.org/2000/svg"><sodipodi:namedview
     id="namedview7"
     pagecolor="#ffffff"
     bordercolor="#666666"
     borderopacity="1.0"
     inkscape:showpageshadow="2"
     inkscape:pageopacity="0.0"
     inkscape:pagecheckerboard="0"
     inkscape:deskcolor="#d1d1d1"
     inkscape:document-units="mm"
     showgrid="false"
     inkscape:zoom="1.4465559"
     inkscape:cx="229.51066"
     inkscape:cy="371.22659"
     inkscape:window-width="2560"
     inkscape:window-height="1371"
     inkscape:window-x="0"
     inkscape:window-y="32"
     inkscape:window-maximized="1"
     inkscape:current-layer="layer1" /><defs
     id="defs2" /><g
     inkscape:label="Layer 1"
     inkscape:groupmode="layer"
     id="layer1"
     transform="translate(-33.900922,-66.434903)"><g
       style="fill:none;stroke:#000000;stroke-width:0.308317;stroke-dasharray:none;stroke-opacity:1"
       id="g265"
       transform="matrix(1.132565,0,0,1.132565,74.888846,85.987407)"><path
         d="m 16,5 c -3.855469,0 -7,3.144531 -7,7 0,3.515625 2.997197,6.509883 6.380009,6.998164 L 15.50314,28.040341 16.815531,28 16.750452,18.90625 C 20.133265,18.417969 23,15.515625 23,12 23,8.144531 19.855469,5 16,5 Z m 0.02734,1.5336731 c 2.773438,0 5.44064,2.651582 5.44064,5.4250189 0,2.773438 -2.673845,5.6047 -5.447283,5.6047 -2.773437,0 -5.499973,-2.714987 -5.499973,-5.488425 0,-2.7734373 2.733179,-5.5412939 5.506616,-5.5412939 z M 16,8 c -2.199219,0 -4,1.800781 -4,4 l 0.986405,-0.01398 c 0.34385,-2.4674277 1.741592,-2.9848135 3.02972,-2.8857307 z"
         id="path256"
         style="fill:#000000;fill-opacity:1;stroke:#000000;stroke-width:0.308317;stroke-dasharray:none;stroke-opacity:1"
         sodipodi:nodetypes="ssccccsssssssccccc" /></g><g
       style="fill:#000000"
       id="g339"
       transform="matrix(0.81410256,0,0,0.81410256,-0.84404502,109.85611)"><path
         d="m 156.55319,188.50523 9.84587,-6.93529 7.79889,0.94527 15.00308,-3.42621 2.98214,-6.59767 -16.73242,-9.92786 2.71621,-16.20444 5.98548,-2.30462 -3.20042,-22.17973 14.93252,-3.32717 15.97043,3.40916 12.42721,-32.351684 -5.8727,-17.991869 5.29985,-14.746345 -4.67416,-8.743769 -10.09332,2.91289 3.85686,6.885144 -5.38636,0.696567 -5.24867,-22.171726 -5.49341,-3.75634 -7.54006,-19.237901 -2.44556,-11.6316545 -5.82223,-0.3138 -7.9095,-6.499298 0.002,-19.6188935 -10.23117,-3.580762 -2.06795,9.374031 -32.12521,-13.219808 -9.92094,-10.504113 -15.09484,3.61118 -18.262303,-12.706794 -11.214746,-0.87332 -10.460261,6.316395 -14.393105,5.508912 9.614504,5.835756 3.108621,-7.460514 14.626092,4.544572 10.520121,15.281376 -0.711331,15.5179615 -4.633683,1.115161 -0.0075,-0.0228 L 80.600503,-10.307915 58.810115,0.22667151 43.610011,17.925509 l 6.495501,16.222308 9.290268,8.198705 -0.551615,18.106888 22.08454,10.294337 9.547881,-5.349538 21.399404,12.418163 -1.96438,4.31378 -13.306354,3.1244 -7.203831,13.09183 -0.307219,14.487898 -16.666504,12.00165 6.0039,5.46016 5.809448,-6.65691 13.444243,1.11201 6.032857,3.68083 27.68418,3.93709 -10.71518,14.88814 2.07205,6.36949 10.69211,10.27545 -9.41834,12.12808 17.20845,-0.30644 0.55644,-6.79912 13.81422,-0.95858 z"
         id="path331"
         style="fill:none;stroke:#000000;stroke-width:1.61405;stroke-dasharray:none;stroke-dashoffset:0;stroke-opacity:1" /><g
         id="g3686"
         transform="matrix(2.0079665,0,0,2.0079665,172.95168,-42.936139)"><path
           d="M 21.254,17.528 A 4.165,4.165 0 0 0 17.094,14 4.22,4.22 0 0 0 13.409,16.137 1.717,1.717 0 0 0 12.875,16.045 1.67,1.67 0 0 0 11.319,17.085 2.996,2.996 0 0 0 12,23 h 8.018 A 2.918,2.918 0 0 0 23,20.136 2.858,2.858 0 0 0 21.254,17.528 Z M 19.994,22 h -7.54 l -0.46,-0.003 a 1.995,1.995 0 0 1 -0.448,-3.938 l 0.506,-0.118 0.195,-0.481 a 0.67,0.67 0 0 1 0.628,-0.415 0.734,0.734 0 0 1 0.225,0.043 l 0.777,0.252 0.402,-0.711 A 3.231,3.231 0 0 1 17.094,15 a 3.18,3.18 0 0 1 3.17,2.67 l 0.08,0.552 0.51,0.223 A 1.863,1.863 0 0 1 22,20.137 1.916,1.916 0 0 1 19.995,22 Z M 11.5,2 C 6.78,2 2,3.03 2,5 v 12.58 c 0,1.64 2.676,2.695 6,3.123 V 19.697 C 4.84,19.271 3,18.316 3,17.579 V 11.331 C 4.643,12.429 8.082,13 11.5,13 c 3.418,0 6.857,-0.57 8.5,-1.67 v 2.568 a 5.22,5.22 0 0 1 1,0.856 V 5 C 21,3.03 16.22,2 11.5,2 Z M 20,9.848 C 20,10.726 16.689,12 11.5,12 6.311,12 3,10.726 3,9.848 V 6.41 C 4.643,7.457 8.082,8 11.5,8 14.918,8 18.357,7.457 20,6.411 Z M 11.5,7 C 6,7 3,5.679 3,5 3,4.321 6,3 11.5,3 17,3 20,4.321 20,5 20,5.679 17,7 11.5,7 Z"
           id="path3674" /><path
           fill="none"
           d="M 0,0 H 24 V 24 H 0 Z"
           id="path3676" /></g><path
         style="fill:none;stroke:#000000;stroke-width:0.939685;stroke-linecap:butt;stroke-linejoin:miter;stroke-dasharray:2.81906, 2.81906;stroke-dashoffset:0;stroke-opacity:1"
         d="M 119.31729,9.3825145 177.96667,-6.006021 v 0"
         id="path4051" /><path
         style="fill:none;stroke:#000000;stroke-width:0.325px;stroke-linecap:butt;stroke-linejoin:miter;stroke-opacity:1"
         d="M 200.82489,106.70867 Z"
         id="path4053" /><path
         style="fill:none;stroke:#000000;stroke-width:0.939685;stroke-linecap:butt;stroke-linejoin:miter;stroke-dasharray:2.81906, 2.81906;stroke-dashoffset:0;stroke-opacity:1"
         d="M 200.2314,105.6256 198.80718,93.079784 Z"
         id="path4055"
         sodipodi:nodetypes="ccc" /><path
         style="fill:none;stroke:#000000;stroke-width:0.939685;stroke-linecap:butt;stroke-linejoin:miter;stroke-dasharray:1.87937, 3.75874;stroke-dashoffset:0;stroke-opacity:1"
         d="m 188.24408,-2.4616003 8.47277,77.1452593 z"
         id="path4057"
         sodipodi:nodetypes="ccc" /><path
         style="fill:none;stroke:#000000;stroke-width:0.939685;stroke-linecap:butt;stroke-linejoin:miter;stroke-dasharray:2.81906, 2.81906;stroke-dashoffset:0;stroke-opacity:1"
         d="M 144.36132,146.40017 185.22298,-3.0374241"
         id="path4059"
         sodipodi:nodetypes="cc" /></g><g
       style="fill:none;stroke:#000000;stroke-width:0.308317;stroke-dasharray:none;stroke-opacity:1"
       id="g993"
       transform="matrix(1.3006091,0,0,1.3006091,143.24762,162.53503)"><path
         d="m 16,5 c -3.855469,0 -7,3.144531 -7,7 0,3.515625 2.997197,6.509883 6.380009,6.998164 L 15.50314,28.040341 16.815531,28 16.750452,18.90625 C 20.133265,18.417969 23,15.515625 23,12 23,8.144531 19.855469,5 16,5 Z m 0.02734,1.5336731 c 2.773438,0 5.44064,2.651582 5.44064,5.4250189 0,2.773438 -2.673845,5.6047 -5.447283,5.6047 -2.773437,0 -5.499973,-2.714987 -5.499973,-5.488425 0,-2.7734373 2.733179,-5.5412939 5.506616,-5.5412939 z M 16,8 c -2.199219,0 -4,1.800781 -4,4 l 0.986405,-0.01398 c 0.34385,-2.4674277 1.741592,-2.9848135 3.02972,-2.8857307 z"
         id="path991"
         style="fill:#000000;fill-opacity:1;stroke:#000000;stroke-width:0.308317;stroke-dasharray:none;stroke-opacity:1"
         sodipodi:nodetypes="ssccccsssssssccccc" /></g><g
       style="fill:none;stroke:#000000;stroke-width:0.308317;stroke-dasharray:none;stroke-opacity:1"
       id="g997"
       transform="matrix(0.97371746,0,0,0.97371746,99.199097,203.93024)"><path
         d="m 16,5 c -3.855469,0 -7,3.144531 -7,7 0,3.515625 2.997197,6.509883 6.380009,6.998164 L 15.50314,28.040341 16.815531,28 16.750452,18.90625 C 20.133265,18.417969 23,15.515625 23,12 23,8.144531 19.855469,5 16,5 Z m 0.02734,1.5336731 c 2.773438,0 5.44064,2.651582 5.44064,5.4250189 0,2.773438 -2.673845,5.6047 -5.447283,5.6047 -2.773437,0 -5.499973,-2.714987 -5.499973,-5.488425 0,-2.7734373 2.733179,-5.5412939 5.506616,-5.5412939 z M 16,8 c -2.199219,0 -4,1.800781 -4,4 l 0.986405,-0.01398 c 0.34385,-2.4674277 1.741592,-2.9848135 3.02972,-2.8857307 z"
         id="path995"
         style="fill:#000000;fill-opacity:1;stroke:#000000;stroke-width:0.308317;stroke-dasharray:none;stroke-opacity:1"
         sodipodi:nodetypes="ssccccsssssssccccc" /></g><path
       style="fill:none;fill-opacity:1;stroke:#000000;stroke-width:0.614;stroke-miterlimit:100000;stroke-dasharray:0.614, 0.614;stroke-dashoffset:0;stroke-opacity:1;stop-color:#000000"
       id="path1779"
       sodipodi:type="arc"
       sodipodi:cx="93.167763"
       sodipodi:cy="117.6842"
       sodipodi:rx="2.8162963"
       sodipodi:ry="2.7636757"
       sodipodi:start="0"
       sodipodi:end="6.2685594"
       sodipodi:open="true"
       sodipodi:arc-type="arc"
       d="m 95.984059,117.6842 a 2.8162963,2.7636757 0 0 1 -2.805999,2.76365 2.8162963,2.7636757 0 0 1 -2.826518,-2.74344 2.8162963,2.7636757 0 0 1 2.785328,-2.78372 2.8162963,2.7636757 0 0 1 2.846888,2.72309" /><path
       style="fill:none;fill-opacity:1;stroke:#000000;stroke-width:0.614;stroke-miterlimit:100000;stroke-dasharray:0.614, 0.614;stroke-dashoffset:0;stroke-opacity:1;stop-color:#000000"
       id="path1781"
       sodipodi:type="arc"
       sodipodi:cx="115.07349"
       sodipodi:cy="230.67433"
       sodipodi:rx="2.8162963"
       sodipodi:ry="2.7636757"
       sodipodi:start="0"
       sodipodi:end="6.2685594"
       sodipodi:open="true"
       sodipodi:arc-type="arc"
       d="m 117.88978,230.67433 a 2.8162963,2.7636757 0 0 1 -2.806,2.76366 2.8162963,2.7636757 0 0 1 -2.82651,-2.74345 2.8162963,2.7636757 0 0 1 2.78532,-2.78372 2.8162963,2.7636757 0 0 1 2.84689,2.72309" /><path
       style="fill:none;fill-opacity:1;stroke:#000000;stroke-width:0.614;stroke-miterlimit:100000;stroke-dasharray:0.614, 0.614;stroke-dashoffset:0;stroke-opacity:1;stop-color:#000000"
       id="path1783"
       sodipodi:type="arc"
       sodipodi:cx="164.12906"
       sodipodi:cy="198.38432"
       sodipodi:rx="2.8162963"
       sodipodi:ry="2.7636757"
       sodipodi:start="0"
       sodipodi:end="6.2685594"
       sodipodi:open="true"
       sodipodi:arc-type="arc"
       d="m 166.94536,198.38432 a 2.8162963,2.7636757 0 0 1 -2.806,2.76366 2.8162963,2.7636757 0 0 1 -2.82652,-2.74345 2.8162963,2.7636757 0 0 1 2.78533,-2.78372 2.8162963,2.7636757 0 0 1 2.84688,2.72309" /><g
       id="g11784"
       transform="translate(0.20841165,0.0689229)"><path
         id="rect1815-7-21-0-1-1"
         style="fill:#333333;fill-opacity:1;stroke:#090700;stroke-width:0.0725514;stroke-miterlimit:4;stroke-dasharray:none;stroke-dashoffset:0;stroke-opacity:1"
         d="m 156.00068,96.591814 c -0.93485,0 -1.68767,0.752815 -1.68767,1.687672 v 13.617574 c 0,0.93486 0.75282,1.68767 1.68767,1.68767 h 21.13558 c 0.93486,0 1.68767,-0.75281 1.68767,-1.68767 v -11.39285 c -0.0613,-0.90964 -0.81227,-1.623904 -1.73797,-1.623904 h -5.21605 c 0,0 -0.47775,-0.05537 -0.70391,-0.23064 -0.16201,-0.125576 -0.41108,-0.419942 -0.41108,-0.419942 -0.1519,-0.200736 -0.3306,-0.508469 -0.71389,-0.892623 -0.38329,-0.384151 -1.00948,-0.745287 -1.91617,-0.745287 z"
         sodipodi:nodetypes="sssssscscsssss" /><path
         id="rect1815-7-3-1-3"
         style="fill:#4d4d4d;stroke:#090700;stroke-width:0.0725514;stroke-dashoffset:1"
         d="m 156.00045,100.46138 h 21.13591 c 0.93486,0 1.68747,0.75261 1.68747,1.68746 v 9.74843 c 0,0.93485 -0.75261,1.68746 -1.68747,1.68746 h -21.13591 c -0.93485,0 -1.68746,-0.75261 -1.68746,-1.68746 v -9.74843 c 0,-0.93485 0.75261,-1.68746 1.68746,-1.68746 z" /><g
         id="g1602-5-5-7"
         transform="matrix(0.12768467,0,0,0.12768463,157.78733,94.576217)"><path
           inkscape:connector-curvature="0"
           d="m 73.772417,41.401472 c -1.506631,0 -2.854669,-0.642301 -4.044114,-1.926902 -1.189446,-1.284601 -1.784168,-2.878457 -1.784168,-4.781569 0,-1.903112 0.578864,-3.457321 1.73659,-4.662625 1.157726,-1.221164 2.513694,-1.831746 4.067903,-1.831746 1.55421,0 2.822952,0.547145 3.806227,1.641435 l 1.66e-4,-1.579209 1.784168,-1.592445 1.784168,1.592445 -1.66e-4,12.950304 h -3.568336 v -1.689012 c -0.999134,1.252882 -2.259947,1.879324 -3.782438,1.879324 z M 71.53626,34.835735 c 0,1.030852 0.309255,1.879322 0.927767,2.545412 0.618511,0.65023 1.340109,0.975345 2.16479,0.975345 0.824684,0 1.522493,-0.325115 2.093427,-0.975345 0.586792,-0.66609 0.880189,-1.51456 0.880189,-2.545412 0,-1.046712 -0.293397,-1.911043 -0.880189,-2.592991 -0.570934,-0.697808 -1.276672,-1.046712 -2.117216,-1.046712 -0.840541,0 -1.562137,0.348904 -2.16479,1.046712 -0.602653,0.697808 -0.903978,1.562138 -0.903978,2.592991 z"
           style="font-style:normal;font-variant:normal;font-weight:bold;font-stretch:normal;font-size:96px;line-height:25px;font-family:'Montserrat Alternates';-inkscape-font-specification:'Montserrat Alternates Bold';text-align:start;letter-spacing:0px;word-spacing:0px;writing-mode:lr-tb;text-anchor:start;display:inline;fill:#ffa200;fill-opacity:1;stroke:none;stroke-width:0.247801px;stroke-linecap:butt;stroke-linejoin:miter;stroke-opacity:1"
           id="path4588-1-0-8-9"
           inkscape:export-xdpi="299.96201"
           inkscape:export-ydpi="299.96201"
           sodipodi:nodetypes="ssscscccccccsscscscsss" /><path
           style="display:inline;fill:#ffa200;fill-opacity:1;fill-rule:evenodd;stroke:none;stroke-width:0.991201;stroke-linecap:butt;stroke-linejoin:miter;stroke-miterlimit:4;stroke-dasharray:none;stroke-opacity:0"
           d="m 77.555021,25.830272 1.784168,-1.592171 1.784168,1.592171 v 1.592218 l -1.784168,-1.592185 -1.784168,1.592185 z"
           id="rect2037-2-4-9"
           inkscape:connector-curvature="0"
           sodipodi:nodetypes="ccccccc" /><path
           style="display:inline;fill:#ffa200;fill-opacity:1;fill-rule:evenodd;stroke:none;stroke-width:0.991201;stroke-linecap:butt;stroke-linejoin:miter;stroke-miterlimit:4;stroke-dasharray:none;stroke-opacity:0"
           d="m 77.555021,23.404505 1.784168,-1.592171 1.784168,1.592171 v 1.592218 l -1.784168,-1.592184 -1.784168,1.592184 z"
           id="rect2037-6-6-4-1"
           inkscape:connector-curvature="0"
           sodipodi:nodetypes="ccccccc" /></g><g
         id="g1608-3-6-5"
         transform="matrix(0.12768467,0,0,0.12768463,157.83834,94.576217)"
         style="fill:#ffffff;fill-opacity:1"><g
           aria-label="lad"
           transform="matrix(0.24780109,0,0,0.24780109,25.297442,-39.599619)"
           style="font-style:normal;font-variant:normal;font-weight:bold;font-stretch:normal;font-size:20px;line-height:25px;font-family:Arial;-inkscape-font-specification:'Arial, Bold';text-align:start;letter-spacing:0px;word-spacing:0px;writing-mode:lr-tb;text-anchor:start;display:inline;fill:#ffffff;fill-opacity:1;stroke:none;stroke-width:1px;stroke-linecap:butt;stroke-linejoin:miter;stroke-opacity:1"
           id="flowRoot4504-8-4-8-0-4"
           inkscape:export-xdpi="299.96201"
           inkscape:export-ydpi="299.96201"><path
             d="m 95.601062,248.08894 -0.0011,53.47064 c -4.1e-5,1.984 -1.622365,9.95835 -0.598365,11.11035 1.024,1.088 4.37545,1.632 5.783453,1.632 2.688,0 3.65097,0.033 6.816,0.0205 l 0.0103,12.55209 c -5.1871,0.009 -3.85034,0.003 -8.842344,0.003 -4.928,0 -9.12,-1.632 -12.576,-4.896 -3.392,-3.264 -5.088,-14.11835 -5.088,-19.75035 v -54.14264 l 7.248028,1.9e-4 z"
             style="font-style:normal;font-variant:normal;font-weight:bold;font-stretch:normal;font-size:96px;font-family:'Montserrat Alternates';-inkscape-font-specification:'Montserrat Alternates Bold';fill:#ffffff;fill-opacity:1"
             id="path4584-3-9-8-9"
             inkscape:connector-curvature="0"
             sodipodi:nodetypes="cscsccscsccc" /></g><g
           aria-label="lad"
           transform="matrix(0.24780109,0,0,0.24780109,18.038489,-36.3429)"
           style="font-style:normal;font-variant:normal;font-weight:bold;font-stretch:normal;font-size:20px;line-height:25px;font-family:Arial;-inkscape-font-specification:'Arial, Bold';text-align:start;letter-spacing:0px;word-spacing:0px;writing-mode:lr-tb;text-anchor:start;display:inline;fill:#ffffff;fill-opacity:1;stroke:none;stroke-width:1px;stroke-linecap:butt;stroke-linejoin:miter;stroke-opacity:1"
           id="flowRoot4504-8-4-5-2-0-3-7"
           inkscape:export-xdpi="299.96201"
           inkscape:export-ydpi="299.96201"><path
             d="m 124.89483,262.70731 -0.001,32.11615 c -6e-5,1.984 0.51308,3.552 1.53708,4.704 1.024,1.088 2.24,1.632 3.64801,1.632 2.688,0 3.65097,0.033 6.816,0.0205 l 0.005,6.27605 0.005,6.27604 c -5.1871,0.009 -3.85034,0.003 -8.84235,0.003 -4.928,0 -9.12,-1.632 -12.576,-4.896 -3.392,-3.264 -5.088,-7.712 -5.088,-13.344 V 262.7069 l 7.24803,2e-4 z"
             style="font-style:normal;font-variant:normal;font-weight:bold;font-stretch:normal;font-size:96px;font-family:'Montserrat Alternates';-inkscape-font-specification:'Montserrat Alternates Bold';fill:#ffffff;fill-opacity:1"
             id="path4584-3-1-7-6-5-7"
             inkscape:connector-curvature="0"
             sodipodi:nodetypes="cscscccscsccc" /></g></g><path
         d="m 162.46427,99.861765 c -0.20858,0 -0.39082,-0.07796 -0.54675,-0.233885 -0.15593,-0.155924 -0.23389,-0.360449 -0.23389,-0.613571 0,-0.255148 0.0799,-0.458657 0.23996,-0.610534 0.15998,-0.151872 0.34526,-0.227809 0.55587,-0.227809 0.16402,0 0.30677,0.05468 0.42828,0.164026 v -0.136695 h 0.45865 v 1.659245 h -0.45865 v -0.15873 c -0.12957,0.105297 -0.27742,0.157949 -0.44347,0.157949 z m -0.32198,-0.838342 c 0,0.133652 0.0395,0.242996 0.11846,0.328046 0.079,0.08303 0.17112,0.12453 0.27642,0.12453 0.1053,0 0.1944,-0.04152 0.2673,-0.12453 0.0729,-0.08505 0.10927,-0.193385 0.10927,-0.325008 0,-0.133652 -0.0365,-0.245025 -0.10927,-0.334122 -0.0729,-0.08911 -0.16302,-0.133653 -0.27035,-0.133653 -0.10735,0 -0.19946,0.04455 -0.2764,0.133653 -0.0769,0.08708 -0.11544,0.197432 -0.11544,0.331084 z"
         style="font-style:normal;font-variant:normal;font-weight:bold;font-stretch:normal;font-size:96px;line-height:25px;font-family:'Montserrat Alternates';-inkscape-font-specification:'Montserrat Alternates Bold';text-align:start;letter-spacing:0px;word-spacing:0px;writing-mode:lr-tb;text-anchor:start;display:inline;fill:#ffffff;fill-opacity:1;stroke:none;stroke-width:0.0316405px;stroke-linecap:butt;stroke-linejoin:miter;stroke-opacity:1"
         id="path4616-0-35-2-8"
         inkscape:connector-curvature="0"
         sodipodi:nodetypes="sssssccccccsscscssscs" /><path
         d="m 159.52423,99.861765 c -0.20858,0 -0.39084,-0.07796 -0.54675,-0.233885 -0.15593,-0.155924 -0.23389,-0.360449 -0.23389,-0.613571 0,-0.255148 0.0799,-0.458657 0.23996,-0.610534 0.15998,-0.151872 0.34526,-0.227809 0.55585,-0.227809 0.16404,0 0.30679,0.05468 0.4283,0.164026 v -0.136695 h 0.45865 v 1.659245 h -0.45865 v -0.15873 c -0.12957,0.105297 -0.27743,0.157949 -0.44347,0.157949 z m -0.32198,-0.838342 c 0,0.133652 0.0395,0.242996 0.11846,0.328046 0.079,0.08303 0.17112,0.12453 0.27641,0.12453 0.1053,0 0.19439,-0.04152 0.26731,-0.12453 0.0729,-0.08505 0.10927,-0.193385 0.10927,-0.325008 0,-0.133652 -0.0365,-0.245025 -0.10927,-0.334122 -0.0729,-0.08911 -0.16302,-0.133653 -0.27035,-0.133653 -0.10736,0 -0.19946,0.04455 -0.2764,0.133653 -0.0769,0.08708 -0.11544,0.197432 -0.11544,0.331084 z"
         style="font-style:normal;font-variant:normal;font-weight:bold;font-stretch:normal;font-size:96px;line-height:25px;font-family:'Montserrat Alternates';-inkscape-font-specification:'Montserrat Alternates Bold';text-align:start;letter-spacing:0px;word-spacing:0px;writing-mode:lr-tb;text-anchor:start;display:inline;fill:#ffffff;fill-opacity:1;stroke:none;stroke-width:0.0316405px;stroke-linecap:butt;stroke-linejoin:miter;stroke-opacity:1"
         id="path4616-0-0-1-7-6"
         inkscape:connector-curvature="0"
         sodipodi:nodetypes="sssssccccccsscscssscs" /><path
         d="m 165.35996,99.861765 c -0.20856,0 -0.39082,-0.07796 -0.54675,-0.233885 -0.15592,-0.155924 -0.23387,-0.360449 -0.23387,-0.613571 0,-0.255148 0.0799,-0.458657 0.23995,-0.610534 0.15997,-0.151872 0.34527,-0.227809 0.55586,-0.227809 0.16401,0 0.30678,0.05468 0.42828,0.164026 v -0.136695 h 0.45866 v 1.659245 h -0.45866 v -0.15873 c -0.12956,0.105297 -0.27742,0.157949 -0.44347,0.157949 z m -0.32197,-0.838342 c 0,0.133652 0.0395,0.242996 0.11846,0.328046 0.079,0.08303 0.17111,0.12453 0.2764,0.12453 0.1053,0 0.19441,-0.04152 0.2673,-0.12453 0.0729,-0.08505 0.10942,-0.193385 0.10942,-0.325008 0,-0.133652 -0.0365,-0.245025 -0.10942,-0.334122 -0.0729,-0.08911 -0.163,-0.133653 -0.27032,-0.133653 -0.10736,0 -0.19946,0.04455 -0.27642,0.133653 -0.0769,0.08708 -0.11545,0.197432 -0.11545,0.331084 z"
         style="font-style:normal;font-variant:normal;font-weight:bold;font-stretch:normal;font-size:96px;line-height:25px;font-family:'Montserrat Alternates';-inkscape-font-specification:'Montserrat Alternates Bold';text-align:start;letter-spacing:0px;word-spacing:0px;writing-mode:lr-tb;text-anchor:start;display:inline;fill:#ffa200;fill-opacity:1;stroke:none;stroke-width:0.0316405px;stroke-linecap:butt;stroke-linejoin:miter;stroke-opacity:1"
         id="path4616-0-3-5-4-1"
         inkscape:connector-curvature="0"
         sodipodi:nodetypes="sssssccccccsscscssscs" /><g
         id="g1613-7-2-3"
         transform="matrix(0.12768467,0,0,0.12768463,157.83165,94.576217)"
         style="fill:#ffffff;fill-opacity:1"><g
           aria-label="lad"
           transform="matrix(0.24780109,0,0,0.24780109,2.3242158,-39.579569)"
           style="font-style:normal;font-variant:normal;font-weight:bold;font-stretch:normal;font-size:20px;line-height:25px;font-family:Arial;-inkscape-font-specification:'Arial, Bold';text-align:start;letter-spacing:0px;word-spacing:0px;writing-mode:lr-tb;text-anchor:start;display:inline;fill:#ffffff;fill-opacity:1;stroke:none;stroke-width:1px;stroke-linecap:butt;stroke-linejoin:miter;stroke-opacity:1"
           id="flowRoot4504-8-4-5-8-6-1"
           inkscape:export-xdpi="299.96201"
           inkscape:export-ydpi="299.96201"><path
             d="m 95.601062,275.84978 -0.0011,32.11615 c -6.8e-5,1.984 0.513084,3.552 1.537084,4.704 1.024,1.088 2.240001,1.632 3.648004,1.632 2.688,0 3.65097,0.033 6.816,0.0205 l 0.005,6.27605 0.005,6.27604 c -5.1871,0.009 -3.85034,0.003 -8.842344,0.003 -4.928,0 -9.12,-1.632 -12.576,-4.896 -3.392,-3.264 -5.088,-7.712 -5.088,-13.344 v -32.78815 l 7.248028,4.2711 z"
             style="font-style:normal;font-variant:normal;font-weight:bold;font-stretch:normal;font-size:96px;font-family:'Montserrat Alternates';-inkscape-font-specification:'Montserrat Alternates Bold';fill:#ffffff;fill-opacity:1"
             id="path4584-3-1-6-7-3"
             inkscape:connector-curvature="0"
             sodipodi:nodetypes="cscscccscsccc" /></g><path
           d="m 22.440993,36.906717 -9.4e-5,-6.149432 -9.5e-5,-5.091098 1.796092,-2e-6 h 1.796092 v 2.77168 h 3.092558 v 2.783301 h -3.092558 l -2.47e-4,5.519026 -8e-6,0.401997 -1.692075,0.538366 -1.899675,-0.512416"
           style="font-style:normal;font-variant:normal;font-weight:bold;font-stretch:normal;font-size:96px;line-height:25px;font-family:'Montserrat Alternates';-inkscape-font-specification:'Montserrat Alternates Bold';text-align:start;letter-spacing:0px;word-spacing:0px;writing-mode:lr-tb;text-anchor:start;display:inline;fill:#ffffff;fill-opacity:1;stroke:none;stroke-width:0.247801px;stroke-linecap:butt;stroke-linejoin:miter;stroke-opacity:1"
           id="path4614-2-9-5-2"
           inkscape:connector-curvature="0"
           sodipodi:nodetypes="ccccccccccccc" /></g><path
         style="font-style:normal;font-variant:normal;font-weight:bold;font-stretch:normal;font-size:192px;line-height:25px;font-family:Montserrat;-inkscape-font-specification:'Montserrat Bold';text-align:start;letter-spacing:0px;word-spacing:0px;writing-mode:lr-tb;text-anchor:start;display:inline;fill:#ffffff;fill-opacity:1;stroke:none;stroke-width:0.0184737px;stroke-linecap:butt;stroke-linejoin:miter;stroke-opacity:1"
         d="m 157.18931,97.376001 -0.26195,0.261951 0.26657,0.266566 h 0.0388 c 0.13011,0 0.24594,0.03072 0.34762,0.09222 0.10173,0.05912 0.18088,0.143041 0.23763,0.251814 0.0591,0.108778 0.0887,0.234088 0.0887,0.375969 0,0.139513 -0.0271,0.263659 -0.0816,0.372432 -0.0544,0.108778 -0.13011,0.192732 -0.22702,0.251849 -0.0347,0.02114 -0.0713,0.03836 -0.10968,0.05196 0.0267,0.02848 0.23995,0.211146 0.23995,0.211146 l -0.17052,0.319464 c 0.13162,-0.0257 0.25382,-0.06735 0.36655,-0.125024 0.20572,-0.104051 0.36417,-0.250624 0.4753,-0.439798 0.11352,-0.189175 0.17027,-0.405548 0.17027,-0.649109 0,-0.243553 -0.0557,-0.458724 -0.16673,-0.645531 -0.11119,-0.18917 -0.26721,-0.33579 -0.46821,-0.439833 -0.19862,-0.104039 -0.428,-0.156088 -0.68809,-0.156088 z"
         id="path1711-6-2-1-7-5-6"
         inkscape:connector-curvature="0"
         sodipodi:nodetypes="cccsccssscccccsccsc"
         inkscape:export-xdpi="299.96201"
         inkscape:export-ydpi="299.96201" /><path
         style="font-style:normal;font-variant:normal;font-weight:bold;font-stretch:normal;font-size:192px;line-height:25px;font-family:Montserrat;-inkscape-font-specification:'Montserrat Bold';text-align:start;letter-spacing:0px;word-spacing:0px;writing-mode:lr-tb;text-anchor:start;fill:#ffa200;fill-opacity:1;stroke:none;stroke-width:0.0184737px;stroke-linecap:butt;stroke-linejoin:miter;stroke-opacity:1"
         d="m 156.17579,97.376001 v 2.486444 c 0,0 0.92384,2.36e-4 0.9997,0 0.0758,-2.37e-4 0.10804,-0.01388 0.10804,-0.01388 l 0.17395,-0.271984 -0.27839,-0.239109 h -0.35418 v -1.432976 l -0.12367,-0.123657 -0.14292,-0.142918 -6e-5,-3.8e-5 c 1e-5,2.1e-5 0.13162,-0.131551 0.26193,-0.261912 z"
         id="path1711-6-2-1-9-5-7-8"
         inkscape:connector-curvature="0"
         sodipodi:nodetypes="cczcccccccccc"
         inkscape:export-xdpi="299.96201"
         inkscape:export-ydpi="299.96201" /><g
         aria-label="catalog"
         transform="matrix(0.33370901,0,0,0.32321069,54.523297,115.35117)"
         id="text851-7-7-9-5"
         style="font-size:18.4978px;line-height:39.4304px;font-family:'Roboto Slab';word-spacing:2.76742px;white-space:pre;fill:#ffffff;stroke-width:0.576546"><path
           d="m 308.83677,-20.505636 q -1.32773,0 -2.31223,-0.614185 -0.9845,-0.623217 -1.52643,-1.725136 -0.54193,-1.10192 -0.54193,-2.547061 v -0.379349 q 0,-1.390948 0.52387,-2.492868 0.52386,-1.10192 1.50836,-1.743201 0.98451,-0.641281 2.34836,-0.641281 1.18321,0 2.06835,0.388381 0.89419,0.388382 1.49934,1.065792 l 0.0452,2.348353 h -1.39095 l -0.30709,-1.707072 q -0.30709,-0.316125 -0.76773,-0.505799 -0.46064,-0.189675 -1.08386,-0.189675 -0.79483,0 -1.39998,0.469671 -0.59612,0.46967 -0.93031,1.255466 -0.33419,0.785795 -0.33419,1.752233 v 0.379349 q 0,1.065791 0.3071,1.851587 0.31612,0.785795 0.89418,1.219337 0.58709,0.42451 1.39095,0.42451 0.90321,0 1.49933,-0.496767 0.59612,-0.496767 0.7316,-1.363851 h 1.59869 l 0.0181,0.05419 q -0.0452,0.839988 -0.49676,1.571591 -0.45161,0.731602 -1.2916,1.183209 -0.83096,0.442574 -2.05029,0.442574 z"
           style="font-size:18.4978px;line-height:39.4304px;font-family:'Roboto Slab';word-spacing:2.76742px;white-space:pre;fill:#ffffff;stroke-width:0.576546"
           id="path1032" /><path
           d="m 317.40826,-20.505636 q -1.52643,0 -2.32126,-0.740634 -0.79483,-0.749667 -0.79483,-2.104487 0,-0.930309 0.5058,-1.616751 0.51483,-0.695474 1.48127,-1.074823 0.96644,-0.388382 2.31223,-0.388382 h 1.7432 v -0.957405 q 0,-0.885149 -0.54193,-1.372884 -0.5329,-0.487735 -1.50837,-0.487735 -0.61418,0 -1.06579,0.153546 -0.4516,0.144514 -0.82192,0.406446 l -0.18968,1.363851 h -1.37288 v -2.239968 q 0.65935,-0.532895 1.53546,-0.803859 0.87612,-0.279996 1.94191,-0.279996 1.77933,0 2.79093,0.84902 1.0116,0.84902 1.0116,2.429643 v 4.705739 q 0,0.189675 0,0.370318 0.009,0.180642 0.0271,0.361285 l 0.94838,0.09935 v 1.138048 h -2.5561 q -0.0813,-0.397413 -0.12645,-0.713538 -0.0452,-0.316124 -0.0632,-0.632249 -0.51483,0.659346 -1.29159,1.10192 -0.76774,0.433542 -1.64385,0.433542 z m 0.26193,-1.490301 q 0.88515,0 1.61675,-0.42451 0.7316,-0.42451 1.04773,-1.020631 v -1.770297 h -1.80643 q -1.22837,0 -1.84255,0.587088 -0.61419,0.587089 -0.61419,1.309659 0,0.641281 0.39742,0.984502 0.39741,0.334189 1.20127,0.334189 z"
           style="font-size:18.4978px;line-height:39.4304px;font-family:'Roboto Slab';word-spacing:2.76742px;white-space:pre;fill:#ffffff;stroke-width:0.576546"
           id="path1034" /><path
           d="m 327.92166,-20.541764 q -1.08386,0 -1.72514,-0.632249 -0.63225,-0.641282 -0.63225,-2.041262 v -5.934109 h -1.54449 v -1.318691 h 1.54449 v -2.357385 h 1.77933 v 2.357385 h 2.12255 v 1.318691 h -2.12255 v 5.934109 q 0,0.704506 0.28,1.038695 0.27999,0.334189 0.74966,0.334189 0.31613,0 0.70451,-0.05419 0.38838,-0.06322 0.60515,-0.108385 l 0.24387,1.165144 q -0.38838,0.117418 -0.95741,0.207739 -0.55999,0.09032 -1.04772,0.09032 z"
           style="font-size:18.4978px;line-height:39.4304px;font-family:'Roboto Slab';word-spacing:2.76742px;white-space:pre;fill:#ffffff;stroke-width:0.576546"
           id="path1036" /><path
           d="m 334.24415,-20.505636 q -1.52643,0 -2.32126,-0.740634 -0.79483,-0.749667 -0.79483,-2.104487 0,-0.930309 0.5058,-1.616751 0.51483,-0.695474 1.48127,-1.074823 0.96644,-0.388382 2.31223,-0.388382 h 1.7432 v -0.957405 q 0,-0.885149 -0.54193,-1.372884 -0.5329,-0.487735 -1.50837,-0.487735 -0.61418,0 -1.06579,0.153546 -0.4516,0.144514 -0.82192,0.406446 l -0.18968,1.363851 h -1.37288 v -2.239968 q 0.65935,-0.532895 1.53546,-0.803859 0.87612,-0.279996 1.94191,-0.279996 1.77933,0 2.79093,0.84902 1.0116,0.84902 1.0116,2.429643 v 4.705739 q 0,0.189675 0,0.370318 0.009,0.180642 0.0271,0.361285 l 0.94838,0.09935 v 1.138048 h -2.5561 q -0.0813,-0.397413 -0.12645,-0.713538 -0.0452,-0.316124 -0.0632,-0.632249 -0.51483,0.659346 -1.2916,1.10192 -0.76773,0.433542 -1.64384,0.433542 z m 0.26193,-1.490301 q 0.88515,0 1.61675,-0.42451 0.7316,-0.42451 1.04773,-1.020631 v -1.770297 h -1.80643 q -1.22837,0 -1.84255,0.587088 -0.61419,0.587089 -0.61419,1.309659 0,0.641281 0.39742,0.984502 0.39741,0.334189 1.20127,0.334189 z"
           style="font-size:18.4978px;line-height:39.4304px;font-family:'Roboto Slab';word-spacing:2.76742px;white-space:pre;fill:#ffffff;stroke-width:0.576546"
           id="path1038" /><path
           d="m 341.21695,-20.695311 v -1.138048 l 1.47224,-0.2529 v -11.299193 l -1.47224,-0.2529 v -1.14708 h 3.25157 v 12.699173 l 1.47223,0.2529 v 1.138048 z"
           style="font-size:18.4978px;line-height:39.4304px;font-family:'Roboto Slab';word-spacing:2.76742px;white-space:pre;fill:#ffffff;stroke-width:0.576546"
           id="path1040" /><path
           d="m 351.43229,-20.505636 q -1.35482,0 -2.33932,-0.632249 -0.97547,-0.641281 -1.50837,-1.761265 -0.5329,-1.129016 -0.5329,-2.574157 v -0.198707 q 0,-1.445141 0.5329,-2.565125 0.5329,-1.129016 1.50837,-1.770297 0.9845,-0.641281 2.32125,-0.641281 1.35482,0 2.33029,0.641281 0.9845,0.641281 1.5174,1.761265 0.5329,1.119984 0.5329,2.574157 v 0.198707 q 0,1.454173 -0.5329,2.583189 -0.5329,1.119984 -1.50837,1.752233 -0.97547,0.632249 -2.32125,0.632249 z m 0,-1.390948 q 0.84902,0 1.41804,-0.460638 0.57806,-0.469671 0.86709,-1.273531 0.29806,-0.812891 0.29806,-1.842554 v -0.198707 q 0,-1.029663 -0.29806,-1.833522 -0.28903,-0.812892 -0.86709,-1.27353 -0.57805,-0.469671 -1.43611,-0.469671 -0.84902,0 -1.42707,0.469671 -0.57806,0.460638 -0.86709,1.27353 -0.28903,0.803859 -0.28903,1.833522 v 0.198707 q 0,1.029663 0.28903,1.842554 0.28903,0.80386 0.86709,1.273531 0.58709,0.460638 1.44514,0.460638 z"
           style="font-size:18.4978px;line-height:39.4304px;font-family:'Roboto Slab';word-spacing:2.76742px;white-space:pre;fill:#ffffff;stroke-width:0.576546"
           id="path1042" /><path
           d="m 361.78311,-16.74827 q -0.70451,0 -1.52643,-0.198707 -0.82192,-0.189675 -1.44514,-0.523863 l 0.46064,-1.381916 q 0.49676,0.261932 1.17417,0.433542 0.67741,0.17161 1.3187,0.17161 1.19224,0 1.7432,-0.668377 0.55999,-0.668378 0.55999,-1.905779 v -0.93031 q -0.4787,0.614185 -1.14708,0.93031 -0.66838,0.316124 -1.53546,0.316124 -1.19225,0 -2.05933,-0.587088 -0.86708,-0.596121 -1.33675,-1.65288 -0.46064,-1.065791 -0.46064,-2.465771 v -0.189675 q 0,-1.57159 0.46064,-2.754799 0.46967,-1.183209 1.33675,-1.833523 0.86708,-0.659345 2.07739,-0.659345 0.92128,0 1.61675,0.361285 0.69548,0.361285 1.16515,1.047727 l 0.16257,-1.22837 h 1.49934 v 9.646315 q 0,1.264498 -0.47871,2.176743 -0.46967,0.912245 -1.38191,1.39998 -0.90321,0.496767 -2.20384,0.496767 z m 0.0452,-5.202507 q 0.80386,0 1.34579,-0.361285 0.54193,-0.370317 0.89418,-1.038695 v -4.498 q -0.34322,-0.623217 -0.89418,-0.984502 -0.55096,-0.370317 -1.32773,-0.370317 -0.84902,0 -1.41804,0.487735 -0.55999,0.487735 -0.83999,1.345787 -0.27999,0.84902 -0.27999,1.969004 v 0.189675 q 0,1.472237 0.62321,2.366418 0.62322,0.89418 1.89675,0.89418 z m 3.74833,-7.063125 -0.69547,-1.454173 h 2.17674 v 1.138049 z"
           style="font-size:18.4978px;line-height:39.4304px;font-family:'Roboto Slab';word-spacing:2.76742px;white-space:pre;fill:#ffffff;stroke-width:0.576546"
           id="path1044" /></g></g></g></svg>
