<?xml version="1.0" encoding="UTF-8" standalone="no"?>
<!-- Created with Inkscape (http://www.inkscape.org/) -->

<svg
   width="12.849289mm"
   height="13.926851mm"
   viewBox="0 0 12.849289 13.926851"
   version="1.1"
   id="svg47351"
   xmlns="http://www.w3.org/2000/svg"
   xmlns:svg="http://www.w3.org/2000/svg">
  <defs
     id="defs47348" />
  <g
     id="layer1"
     transform="translate(-44.580076,-50.403783)">
    <g
       id="g35652"
       transform="matrix(0.06566829,0,0,0.08934793,84.305706,80.849022)"
       style="stroke-width:1.32115;stroke-linecap:butt;stroke-linejoin:round;stroke-miterlimit:100000">
      <path
         id="path4215"
         style="fill:#9a9a9a;fill-opacity:1;stroke:#000000;stroke-width:1.17645;stroke-miterlimit:100000;stroke-dasharray:none;stroke-opacity:1"
         d="m -503.49435,-251.18074 a 97.255578,27.373382 0.62017767 0 0 88.35933,-17.58405 97.255578,27.373382 0.62017767 0 0 -5.96335,-21.5602 97.255578,27.373382 0.62017767 0 1 -113.45998,13.89245 97.255578,27.373382 0.62017767 0 1 -60.71374,-14.27832 l -7.2276,5.85251 a 97.255578,27.373382 0.62017767 0 0 70.06044,32.46402 97.255578,27.373382 0.62017767 0 0 28.9449,1.21359 z" />
      <path
         id="path4215-7"
         style="fill:#9a9a9a;fill-opacity:1;stroke:#000000;stroke-width:1.17645;stroke-linecap:butt;stroke-linejoin:round;stroke-miterlimit:100000;stroke-dasharray:none;stroke-opacity:1"
         d="m -503.49435,-218.32308 a 97.255578,27.373382 0.62017767 0 0 88.35933,-17.58405 97.255578,27.373382 0.62017767 0 0 -5.96335,-21.5602 97.255578,27.373382 0.62017767 0 1 -113.45998,13.89245 97.255578,27.373382 0.62017767 0 1 -60.71374,-14.27832 l -7.2276,5.85251 a 97.255578,27.373382 0.62017767 0 0 70.06044,32.46402 97.255578,27.373382 0.62017767 0 0 28.9449,1.21359 z" />
      <path
         id="path4215-7-5"
         style="fill:#9a9a9a;fill-opacity:1;stroke:#000000;stroke-width:1.17645;stroke-linecap:butt;stroke-linejoin:round;stroke-miterlimit:100000;stroke-dasharray:none;stroke-opacity:1"
         d="m -503.49435,-185.46539 a 97.255578,27.373382 0.62017767 0 0 88.35933,-17.58405 97.255578,27.373382 0.62017767 0 0 -5.96335,-21.5602 97.255578,27.373382 0.62017767 0 1 -113.45998,13.89245 97.255578,27.373382 0.62017767 0 1 -60.71374,-14.27832 l -7.2276,5.85251 a 97.255578,27.373382 0.62017767 0 0 70.06044,32.46402 97.255578,27.373382 0.62017767 0 0 28.9449,1.21359 z" />
      <path
         style="fill:#9a9a9a;fill-opacity:1;stroke:#000000;stroke-width:1.17645;stroke-linecap:butt;stroke-linejoin:round;stroke-miterlimit:100000;stroke-dasharray:none;stroke-opacity:1"
         id="path4215-6"
         d="m -411.66285,-307.52666 a 97.255577,27.373383 0 0 1 -114.11724,21.60865 97.255577,27.373383 0 0 1 -76.77583,-32.11888 97.255577,27.373383 0 0 1 114.11466,-21.60973 97.255577,27.373383 0 0 1 76.77966,32.11815" />
    </g>
  </g>
</svg>
