<?xml version="1.0" encoding="UTF-8" standalone="no"?>
<!-- Created with Inkscape (http://www.inkscape.org/) -->

<svg
   xmlns:dc="http://purl.org/dc/elements/1.1/"
   xmlns:cc="http://creativecommons.org/ns#"
   xmlns:rdf="http://www.w3.org/1999/02/22-rdf-syntax-ns#"
   xmlns:svg="http://www.w3.org/2000/svg"
   xmlns="http://www.w3.org/2000/svg"
   xmlns:xlink="http://www.w3.org/1999/xlink"
   xmlns:sodipodi="http://sodipodi.sourceforge.net/DTD/sodipodi-0.dtd"
   xmlns:inkscape="http://www.inkscape.org/namespaces/inkscape"
   width="107in"
   height="11.027184in"
   id="svg2"
   version="1.1"
   inkscape:version="0.91 r13725"
   sodipodi:docname="banner.svg"
   style="display:inline"
   inkscape:export-filename="/home/yoh/proj/datalad/artwork/banners/banner-x32.png"
   inkscape:export-xdpi="2.9019191"
   inkscape:export-ydpi="2.9019191">
  <defs
     id="defs4">
    <filter
       style="color-interpolation-filters:sRGB"
       inkscape:menu-tooltip="Darken the edges with an inner blur"
       inkscape:menu="Shadows and Glows"
       id="filter3894"
       inkscape:label="Darken edges">
      <feFlood
         id="feFlood3896"
         result="flood"
         flood-color="rgb(0,0,0)"
         flood-opacity="0.3" />
      <feComposite
         id="feComposite3898"
         result="composite1"
         operator="in"
         in2="SourceGraphic"
         in="flood" />
      <feGaussianBlur
         id="feGaussianBlur3900"
         result="blur"
         stdDeviation="2" />
      <feOffset
         id="feOffset3902"
         result="offset"
         dy="2"
         dx="2" />
      <feComposite
         id="feComposite3904"
         result="fbSourceGraphic"
         operator="over"
         in2="offset"
         in="SourceGraphic" />
      <feColorMatrix
         id="feColorMatrix3924"
         values="0 0 0 -1 0 0 0 0 -1 0 0 0 0 -1 0 0 0 0 1 0"
         in="fbSourceGraphic"
         result="fbSourceGraphicAlpha" />
      <feGaussianBlur
         in="fbSourceGraphic"
         result="result8"
         stdDeviation="4"
         id="feGaussianBlur3926" />
      <feOffset
         result="result11"
         dy="4"
         dx="4"
         id="feOffset3928" />
      <feComposite
         operator="in"
         in="fbSourceGraphic"
         result="result6"
         in2="result11"
         id="feComposite3930" />
      <feFlood
         flood-color="rgb(0,0,0)"
         flood-opacity="1"
         in="result6"
         result="result10"
         id="feFlood3932" />
      <feBlend
         result="result12"
         in="result6"
         mode="normal"
         in2="result10"
         id="feBlend3934" />
      <feComposite
         operator="in"
         result="fbSourceGraphic"
         in2="fbSourceGraphic"
         id="feComposite3936" />
      <feColorMatrix
         result="fbSourceGraphicAlpha"
         in="fbSourceGraphic"
         values="0 0 0 -1 0 0 0 0 -1 0 0 0 0 -1 0 0 0 0 1 0"
         id="feColorMatrix4162" />
      <feGaussianBlur
         id="feGaussianBlur4164"
         result="result6"
         stdDeviation="1.5"
         in="fbSourceGraphic" />
      <feComposite
         id="feComposite4166"
         in2="result6"
         operator="atop"
         in="fbSourceGraphic"
         result="result8" />
      <feComposite
         id="feComposite4168"
         in2="fbSourceGraphicAlpha"
         in="result8"
         operator="atop"
         result="result9" />
    </filter>
  </defs>
  <sodipodi:namedview
     id="base"
     pagecolor="#000000"
     bordercolor="#666666"
     borderopacity="1.0"
     inkscape:pageopacity="0"
     inkscape:pageshadow="2"
     inkscape:zoom="0.088388348"
     inkscape:cx="4876.3927"
     inkscape:cy="841.68494"
     inkscape:document-units="in"
     inkscape:current-layer="g6091"
     showgrid="false"
     units="ft"
     showguides="false"
     inkscape:guide-bbox="true"
     inkscape:window-width="928"
     inkscape:window-height="1179"
     inkscape:window-x="990"
     inkscape:window-y="19"
     inkscape:window-maximized="0"
     inkscape:snap-global="false"
     fit-margin-top="0"
     fit-margin-left="0"
     fit-margin-right="0"
     fit-margin-bottom="0">
    <sodipodi:guide
       orientation="1,0"
       position="-788.90937,1511.8156"
       id="guide4169" />
    <sodipodi:guide
       orientation="0,1"
       position="-575.48872,-554.99485"
       id="guide4171" />
    <sodipodi:guide
       orientation="0,1"
       position="-722.55886,1245.2825"
       id="guide4299"
       inkscape:label=""
       inkscape:color="rgb(0,0,255)" />
    <inkscape:grid
       type="xygrid"
       id="grid6183"
       originx="-968.63202"
       originy="-734.7175" />
    <sodipodi:guide
       position="8571.368,1425.2825"
       orientation="1,0"
       id="guide6185"
       inkscape:label=""
       inkscape:color="rgb(0,0,255)" />
    <sodipodi:guide
       position="3841.8154,387.1074"
       orientation="0,1"
       id="guide4224" />
    <sodipodi:guide
       position="3851.118,977.5325"
       orientation="0,1"
       id="guide4226" />
  </sodipodi:namedview>
  <metadata
     id="metadata7">
    <rdf:RDF>
      <cc:Work
         rdf:about="">
        <dc:format>image/svg+xml</dc:format>
        <dc:type
           rdf:resource="http://purl.org/dc/dcmitype/StillImage" />
        <dc:title></dc:title>
      </cc:Work>
    </rdf:RDF>
  </metadata>
  <g
     inkscape:groupmode="layer"
     id="layer7"
     inkscape:label="banner"
     style="display:inline"
     transform="translate(-968.63202,-432.83588)">
    <path
       style="color:#000000;font-style:normal;font-variant:normal;font-weight:normal;font-stretch:normal;font-size:medium;line-height:normal;font-family:Sans;-inkscape-font-specification:Sans;text-indent:0;text-align:start;text-decoration:none;text-decoration-line:none;letter-spacing:normal;word-spacing:normal;text-transform:none;direction:ltr;block-progression:tb;writing-mode:lr-tb;baseline-shift:baseline;text-anchor:start;display:inline;overflow:visible;visibility:visible;fill:#d70a53;fill-opacity:1;stroke:none;stroke-width:25;marker:none;enable-background:accumulate"
       d="m 1148.1974,432.83588 0,55.13592 0,705.7398 0,55.1359 56.1142,0 538.6963,0 0,-110.2718 -482.5821,0 0,-595.46799 392.7994,0 c 36.5829,0 69.3908,0.93953 96.9371,7.71904 27.2387,6.70408 52.2907,19.9517 70.2832,37.63048 17.9925,17.67878 31.4751,42.15604 38.2977,68.91991 6.9003,27.066 7.716,59.30198 7.716,95.24708 l 0,352.86998 c 0,35.9455 -0.8157,68.181 -7.716,95.2475 -6.8226,26.7634 -20.3052,51.3787 -38.2977,69.0575 -17.9925,17.6787 -43.0445,30.7888 -70.2832,37.4924 -27.5463,6.78 -60.3542,7.7191 -96.9371,7.7191 l -572.3648,0 0,-772.0406 -112.22838,0 0,827.1765 0,55.1359 56.11418,0 628.479,0 c 37.5997,0 79.8797,-0.097 124.293,-11.0272 44.7211,-11.0064 87.8663,-32.7145 122.3289,-66.5764 34.4627,-33.8619 56.5559,-76.2547 67.7577,-120.1963 11.1249,-43.639 11.0827,-85.0438 11.0827,-121.9884 l 0,-352.86998 c 0,-36.94416 0.045,-78.34903 -11.0827,-121.988 -11.1865,-43.88159 -33.2358,-86.21979 -67.6176,-120.05869 l -0.1392,-0.13674 c -34.4627,-33.86183 -77.6077,-55.56952 -122.329,-66.5764 -44.4132,-10.93103 -86.6928,-11.02719 -124.2929,-11.02719 l -448.9136,0 -56.1142,0 z"
       id="path4116"
       inkscape:connector-curvature="0"
       inkscape:export-filename="/tmp/xyz5.png"
       inkscape:export-xdpi="100"
       inkscape:export-ydpi="100" />
    <g
       id="g6164"
       transform="translate(0,-65.768121)">
      <g
         transform="matrix(121.1847,0,0,121.1847,2319.2922,-5181.093)"
         style="font-style:normal;font-variant:normal;font-weight:normal;font-stretch:normal;font-size:7.13590527px;line-height:125%;font-family:'Good Times';-inkscape-font-specification:'Good Times';text-align:start;letter-spacing:0px;word-spacing:0px;writing-mode:lr-tb;text-anchor:start;display:inline;fill:#666666;fill-opacity:1;stroke:none"
         id="g6091">
        <g
           id="g6093"
           style="fill:#ffffff;stroke:#000000;stroke-width:0.2;stroke-miterlimit:4;stroke-dasharray:none"
           transform="matrix(0.97981988,0,0,0.97981988,0.35794951,1.046744)">
          <g
             id="g4218"
             transform="matrix(0.98129738,0,0,0.98129738,-0.01883635,0.87672586)"
             style="fill:#ffffff">
            <path
               d="m 4.2949247,49.374796 c -5.9e-6,0.718349 -0.2331119,1.313008 -0.6993187,1.783976 -0.4614599,0.47097 -1.0466036,0.706455 -1.7554327,0.706455 l -2.74732356,0 0,-4.873824 2.74732356,0 c 0.7183437,5e-6 1.3058659,0.21884 1.7625686,0.656504 0.4614496,0.437672 0.6921769,1.013301 0.6921828,1.726889 M 3.445752,49.446155 C 3.445747,48.975188 3.2935145,48.58985 2.989054,48.290138 2.6893418,47.990434 2.3063819,47.84058 1.8401733,47.840576 l -1.90528674,0 0,3.175478 1.90528674,0 c 0.4662086,1e-6 0.8491685,-0.145096 1.1488807,-0.43529 0.3044605,-0.290192 0.456693,-0.668395 0.456698,-1.134609"
               style="fill:#ffffff;fill-opacity:1;stroke:#000000;stroke-width:0.2;stroke-miterlimit:4;stroke-dasharray:none;stroke-opacity:1"
               id="path6095"
               inkscape:connector-curvature="0" />
            <path
               sodipodi:nodetypes="ccccccccccccccc"
               d="m 10.157517,51.858127 -0.8206294,-1.362958 -2.3120333,0 0.5137852,-0.842037 1.2915989,0 -0.8491728,-1.405773 -2.1978588,3.610768 -1.0917935,0 2.6474209,-4.402854 c 0.066599,-0.11417 0.1593655,-0.21883 0.2783003,-0.31398 0.1427148,-0.109412 0.271161,-0.16412 0.3853388,-0.164125 0.1236855,5e-6 0.2521316,0.05233 0.3853389,0.15699 0.1141705,0.09039 0.2069372,0.197431 0.2783003,0.321115 l 2.5790715,4.40172 z"
               style="fill:#ffffff;fill-opacity:1;stroke:#000000;stroke-width:0.2;stroke-miterlimit:4;stroke-dasharray:none;stroke-opacity:1"
               id="path6097"
               inkscape:connector-curvature="0" />
            <path
               sodipodi:nodetypes="ccccccccc"
               d="m 12.909635,47.840576 0,4.024651 -0.842037,0 0,-4.024651 -1.926695,0 0,-0.849173 4.68829,0 0,0.849173 z"
               style="fill:#ffffff;fill-opacity:1;stroke:#000000;stroke-width:0.2;stroke-miterlimit:4;stroke-dasharray:none;stroke-opacity:1"
               id="path6099"
               inkscape:connector-curvature="0" />
            <use
               height="100%"
               width="100%"
               transform="translate(8.9965367,0)"
               id="use4216"
               xlink:href="#path6097"
               y="0"
               x="0"
               style="fill:#ffffff" />
          </g>
        </g>
        <path
           style="fill:#f9f9f9"
           inkscape:connector-curvature="0"
           d="m 24.652437,51.865227 -4.203049,0 0,-4.873824 0.849173,0 0,4.024651 3.353876,0 0,0.849173"
           id="path6103" />
        <path
           style="fill:#f9f9f9"
           inkscape:connector-curvature="0"
           d="m 31.555978,51.865227 -1.091793,-0.0071 -0.82063,-1.362958 -2.312033,0 0.513785,-0.842037 1.291599,0 -0.849173,-1.405773 -2.197858,3.610768 -1.091794,0 2.647421,-4.402854 c 0.0666,-0.11417 0.159366,-0.21883 0.2783,-0.31398 0.142715,-0.109412 0.271161,-0.16412 0.385339,-0.164125 0.123686,5e-6 0.252132,0.05233 0.385339,0.15699 0.114171,0.09039 0.206937,0.197431 0.2783,0.321115 l 2.583198,4.40999"
           id="path6105" />
        <path
           style="fill:#f9f9f9"
           inkscape:connector-curvature="0"
           d="m 37.354236,49.374796 c -6e-6,0.718349 -0.233112,1.313008 -0.699319,1.783976 -0.46146,0.47097 -1.046604,0.706455 -1.755433,0.706455 l -2.747323,0 0,-4.873824 2.747323,0 c 0.718344,5e-6 1.305866,0.21884 1.762569,0.656504 0.461449,0.437672 0.692177,1.013301 0.692183,1.726889 m -0.849173,0.07136 c -5e-6,-0.470967 -0.152238,-0.856305 -0.456698,-1.156017 -0.299712,-0.299704 -0.682672,-0.449558 -1.148881,-0.449562 l -1.905287,0 0,3.175478 1.905287,0 c 0.466209,10e-7 0.849169,-0.145096 1.148881,-0.43529 0.30446,-0.290192 0.456693,-0.668395 0.456698,-1.134609"
           id="path6107" />
        <path
           inkscape:connector-curvature="0"
           d="m 38.885332,51.451344 c -2e-6,0.128447 -0.04044,0.233107 -0.121311,0.31398 -0.08087,0.08087 -0.185534,0.12131 -0.313979,0.12131 -0.12369,0 -0.22835,-0.04044 -0.31398,-0.12131 -0.08087,-0.08087 -0.121311,-0.185533 -0.121311,-0.31398 0,-0.123688 0.04044,-0.225969 0.121311,-0.306844 0.08563,-0.08087 0.19029,-0.121309 0.31398,-0.12131 0.128445,10e-7 0.233105,0.04044 0.313979,0.12131 0.08087,0.08087 0.121309,0.183156 0.121311,0.306844"
           style="fill:#f2f2f2;fill-opacity:1"
           id="path6109" />
        <path
           inkscape:connector-curvature="0"
           d="m 46.194619,49.374796 c -6e-6,0.718349 -0.230734,1.313008 -0.692182,1.783976 -0.461461,0.47097 -1.048983,0.706455 -1.762569,0.706455 l -1.362958,0 c -0.708835,0 -1.296358,-0.235485 -1.762569,-0.706455 -0.461455,-0.470968 -0.692183,-1.065627 -0.692182,-1.783976 -10e-7,-0.713588 0.228348,-1.289217 0.685047,-1.726889 0.461453,-0.437664 1.051354,-0.656499 1.769704,-0.656504 l 1.362958,0 c 0.7231,5e-6 1.313001,0.21884 1.769704,0.656504 0.456692,0.437672 0.685041,1.013301 0.685047,1.726889 m -0.842036,0.07136 c -6e-6,-0.470967 -0.152239,-0.856305 -0.456698,-1.156017 -0.299713,-0.299704 -0.685052,-0.449558 -1.156017,-0.449562 l -1.362958,0 c -0.466215,4e-6 -0.851553,0.149858 -1.156017,0.449562 -0.299709,0.299712 -0.449563,0.68505 -0.449562,1.156017 -1e-6,0.466214 0.149853,0.844417 0.449562,1.134609 0.304464,0.290194 0.689802,0.435291 1.156017,0.43529 l 1.362958,0 c 0.470965,10e-7 0.856304,-0.145096 1.156017,-0.43529 0.304459,-0.290192 0.456692,-0.668395 0.456698,-1.134609"
           style="fill:#f2f2f2;fill-opacity:1"
           id="path6111" />
        <path
           inkscape:connector-curvature="0"
           d="m 52.609352,51.865227 -1.255919,0 -1.362958,-1.370094 -1.833928,0 0,-0.842037 2.28349,0 c 0.313975,2e-6 0.578003,-0.06898 0.792085,-0.206941 0.242616,-0.161745 0.363926,-0.392472 0.363931,-0.692183 -5e-6,-0.608927 -0.385343,-0.913392 -1.156016,-0.913396 l -2.783003,0 0,4.024651 -0.849173,0 0,-4.873824 3.496593,0 c 0.627956,5e-6 1.134604,0.135587 1.519948,0.406747 0.442421,0.309227 0.663633,0.763546 0.663639,1.362958 -6e-6,0.409128 -0.128452,0.761166 -0.385338,1.056114 -0.237869,0.275923 -0.561363,0.468593 -0.970484,0.578008 l 1.477133,1.469997"
           style="fill:#f2f2f2;fill-opacity:1"
           id="path6113" />
        <path
           inkscape:connector-curvature="0"
           d="m 58.825841,51.865227 -3.096983,0 c -0.708836,0 -1.296358,-0.235485 -1.762569,-0.706455 -0.461456,-0.470968 -0.692183,-1.065627 -0.692183,-1.783976 0,-0.713588 0.228349,-1.289217 0.685047,-1.726889 0.461454,-0.437664 1.051355,-0.656499 1.769705,-0.656504 l 2.747323,0 0,0.849173 -2.747323,0 c -0.466215,4e-6 -0.851554,0.149858 -1.156017,0.449562 -0.299709,0.299712 -0.449563,0.68505 -0.449562,1.156017 -10e-7,0.466214 0.149853,0.844417 0.449562,1.134609 0.304463,0.290194 0.689802,0.435291 1.156017,0.43529 l 2.24781,0 0,-1.06325 -2.312033,0 0,-0.777814 3.161206,0 0,2.690237"
           style="fill:#f2f2f2;fill-opacity:1;stroke:none"
           id="path6115" />
      </g>
      <g
         style="font-style:normal;font-variant:normal;font-weight:normal;font-stretch:normal;font-size:408.55334473px;line-height:125%;font-family:'Good Times';-inkscape-font-specification:'Good Times';text-align:start;letter-spacing:0px;word-spacing:0px;writing-mode:lr-tb;text-anchor:start;display:inline;fill:#f2f2f2;fill-opacity:1;stroke:none"
         id="text4632"
         transform="translate(0,-314)">
        <path
           d="m 4394.2568,1788.9738 -157.7015,0 q -60.8745,0 -100.9127,-40.4468 -39.6297,-40.4468 -39.6297,-102.1384 0,-61.283 39.2211,-98.8699 39.6297,-37.5869 101.3213,-37.5869 l 157.7015,0 0,48.6179 -157.7015,0 q -40.0383,0 -66.1857,25.7388 -25.7388,25.7389 -25.7388,66.1857 0,40.0382 25.7388,64.96 26.1474,24.9217 66.1857,24.9217 l 157.7015,0 0,48.6179 z"
           id="path4182"
           inkscape:connector-curvature="0"
           style="fill:#f2f2f2" />
        <path
           d="m 4792.6666,1646.3886 q 0,61.6916 -39.6297,102.1384 -39.6297,40.4468 -100.9127,40.4468 l -78.0337,0 q -60.8744,0 -100.9126,-40.4468 -39.6297,-40.4468 -39.6297,-102.1384 0,-61.283 39.2211,-98.8699 39.6297,-37.5869 101.3212,-37.5869 l 78.0337,0 q 62.1001,0 101.3213,37.5869 39.2211,37.5869 39.2211,98.8699 z m -48.2093,4.0856 q 0,-40.4468 -26.1474,-66.1857 -25.7389,-25.7388 -66.1857,-25.7388 l -78.0337,0 q -40.0382,0 -66.1856,25.7388 -25.7389,25.7389 -25.7389,66.1857 0,40.0382 25.7389,64.96 26.1474,24.9217 66.1856,24.9217 l 78.0337,0 q 40.4468,0 66.1857,-24.9217 26.1474,-24.9218 26.1474,-64.96 z"
           id="path4184"
           inkscape:connector-curvature="0"
           style="fill:#f2f2f2" />
        <path
           d="m 5111.3127,1764.8691 q 0,26.9645 -18.3849,26.9645 -13.4823,0 -30.233,-16.7507 l -178.9464,-179.7634 0,193.6543 -48.2093,0 0,-254.9373 q 0,-9.8053 5.3112,-16.7507 5.3112,-7.354 15.1165,-7.354 13.4823,0 27.7816,14.2994 l 178.9464,179.3549 0,-193.6543 48.6179,0 0,254.9373 z"
           id="path4186"
           inkscape:connector-curvature="0"
           style="fill:#f2f2f2" />
        <path
           d="m 5429.0651,1558.5497 -109.9009,0 0,230.4241 -48.2093,0 0,-230.4241 -110.3094,0 0,-48.6179 268.4196,0 0,48.6179 z"
           id="path4188"
           inkscape:connector-curvature="0"
           style="fill:#f2f2f2" />
        <path
           d="m 5789.5175,1788.9738 -71.9053,0 -78.0337,-78.4423 -104.9982,0 0,-48.2093 130.737,0 q 26.9645,0 45.3494,-11.848 20.8363,-13.8908 20.8363,-39.6297 0,-52.2948 -66.1857,-52.2948 l -159.3358,0 0,230.4241 -48.6178,0 0,-279.042 200.1911,0 q 53.9291,0 87.0219,23.2876 37.9954,26.5559 37.9954,78.0336 0,35.1356 -22.0618,60.4659 -20.4277,23.6961 -55.5633,33.0929 l 84.5705,84.162 z"
           id="path4190"
           inkscape:connector-curvature="0"
           style="fill:#f2f2f2" />
        <path
           d="m 6186.6953,1646.3886 q 0,61.6916 -39.6297,102.1384 -39.6297,40.4468 -100.9127,40.4468 l -78.0337,0 q -60.8744,0 -100.9127,-40.4468 -39.6296,-40.4468 -39.6296,-102.1384 0,-61.283 39.2211,-98.8699 39.6297,-37.5869 101.3212,-37.5869 l 78.0337,0 q 62.1001,0 101.3212,37.5869 39.2212,37.5869 39.2212,98.8699 z m -48.2093,4.0856 q 0,-40.4468 -26.1474,-66.1857 -25.7389,-25.7388 -66.1857,-25.7388 l -78.0337,0 q -40.0382,0 -66.1856,25.7388 -25.7389,25.7389 -25.7389,66.1857 0,40.0382 25.7389,64.96 26.1474,24.9217 66.1856,24.9217 l 78.0337,0 q 40.4468,0 66.1857,-24.9217 26.1474,-24.9218 26.1474,-64.96 z"
           id="path4192"
           inkscape:connector-curvature="0"
           style="fill:#f2f2f2" />
        <path
           d="m 6455.0893,1788.9738 -240.6379,0 0,-279.042 48.6178,0 0,230.4241 192.0201,0 0,48.6179 z"
           id="path4194"
           inkscape:connector-curvature="0"
           style="fill:#f2f2f2" />
        <path
           d="m 6925.6789,1509.9318 -138.4995,186.7089 0,92.3331 -48.2093,0 0,-93.1502 -142.1766,-185.8918 62.5087,0 104.9982,137.2739 98.4613,-137.2739 62.9172,0 z"
           id="path4196"
           inkscape:connector-curvature="0"
           style="fill:#f2f2f2" />
        <path
           d="m 7313.4089,1646.3886 q 0,61.6916 -39.6297,102.1384 -39.6297,40.4468 -100.9127,40.4468 l -78.0337,0 q -60.8744,0 -100.9126,-40.4468 -39.6297,-40.4468 -39.6297,-102.1384 0,-61.283 39.2211,-98.8699 39.6297,-37.5869 101.3212,-37.5869 l 78.0337,0 q 62.1001,0 101.3213,37.5869 39.2211,37.5869 39.2211,98.8699 z m -48.2093,4.0856 q 0,-40.4468 -26.1474,-66.1857 -25.7389,-25.7388 -66.1857,-25.7388 l -78.0337,0 q -40.0382,0 -66.1856,25.7388 -25.7389,25.7389 -25.7389,66.1857 0,40.0382 25.7389,64.96 26.1474,24.9217 66.1856,24.9217 l 78.0337,0 q 40.4468,0 66.1857,-24.9217 26.1474,-24.9218 26.1474,-64.96 z"
           id="path4198"
           inkscape:connector-curvature="0"
           style="fill:#f2f2f2" />
        <path
           d="m 7666.782,1663.5479 q 0,67.4113 -40.4468,98.4613 -35.5441,26.9646 -105.4067,26.9646 l -16.7507,0 q -69.8627,0 -105.4068,-26.9646 -40.4468,-31.05 -40.4468,-98.4613 l 0,-153.6161 48.6179,0 0,153.6161 q 0,50.252 34.727,66.5942 22.4704,10.2138 79.2594,10.2138 47.3921,0 69.454,-14.2994 27.7817,-17.9763 27.7817,-62.5086 l 0,-153.6161 48.6178,0 0,153.6161 z"
           id="path4200"
           inkscape:connector-curvature="0"
           style="fill:#f2f2f2" />
        <path
           d="m 8052.5202,1788.9738 -71.9054,0 -78.0337,-78.4423 -104.9982,0 0,-48.2093 130.7371,0 q 26.9645,0 45.3494,-11.848 20.8363,-13.8908 20.8363,-39.6297 0,-52.2948 -66.1857,-52.2948 l -159.3358,0 0,230.4241 -48.6178,0 0,-279.042 200.1911,0 q 53.929,0 87.0219,23.2876 37.9954,26.5559 37.9954,78.0336 0,35.1356 -22.0619,60.4659 -20.4276,23.6961 -55.5632,33.0929 l 84.5705,84.162 z"
           id="path4202"
           inkscape:connector-curvature="0"
           style="fill:#f2f2f2" />
        <path
           d="m 8534.843,1646.3886 q 0,61.6916 -40.0382,102.1384 -39.6297,40.4468 -100.5042,40.4468 l -157.293,0 0,-279.042 157.293,0 q 61.6916,0 100.9127,37.5869 39.6297,37.5869 39.6297,98.8699 z m -48.6179,4.0856 q 0,-40.4468 -26.1474,-66.1857 -25.7388,-25.7388 -65.7771,-25.7388 l -109.0837,0 0,181.8062 109.0837,0 q 40.0383,0 65.7771,-24.9217 26.1474,-24.9218 26.1474,-64.96 z"
           id="path4204"
           inkscape:connector-curvature="0"
           style="fill:#f2f2f2" />
        <path
           d="m 8933.0037,1788.9738 -62.5086,-0.4086 -46.9837,-78.0337 -132.3712,0 29.4158,-48.2093 73.9482,0 -48.6179,-80.485 -125.8344,206.728 -62.5087,0 151.5733,-252.0774 q 5.7197,-9.8053 15.9336,-17.9764 12.2566,-9.3967 22.0619,-9.3967 10.6224,0 22.0618,8.9882 9.8053,7.7625 15.9336,18.3849 l 147.8963,252.486 z"
           id="path4206"
           inkscape:connector-curvature="0"
           style="fill:#f2f2f2" />
        <path
           d="m 9137.9632,1558.5497 -109.9008,0 0,230.4241 -48.2093,0 0,-230.4241 -110.3094,0 0,-48.6179 268.4195,0 0,48.6179 z"
           id="path4208"
           inkscape:connector-curvature="0"
           style="fill:#f2f2f2" />
        <path
           d="m 9448.0843,1788.9738 -62.5087,-0.4086 -46.9836,-78.0337 -132.3713,0 29.4159,-48.2093 73.9481,0 -48.6178,-80.485 -125.8345,206.728 -62.5086,0 151.5733,-252.0774 q 5.7197,-9.8053 15.9335,-17.9764 12.2566,-9.3967 22.0619,-9.3967 10.6224,0 22.0619,8.9882 9.8053,7.7625 15.9336,18.3849 l 147.8963,252.486 z"
           id="path4210"
           inkscape:connector-curvature="0"
           style="fill:#f2f2f2" />
      </g>
    </g>
    <g
       inkscape:groupmode="layer"
       id="layer1"
       inkscape:label="misc (text)"
       style="display:none">
      <text
         xml:space="preserve"
         style="font-style:normal;font-variant:normal;font-weight:normal;font-stretch:normal;font-size:408.55334473px;line-height:125%;font-family:'Good Times';-inkscape-font-specification:'Good Times';text-align:start;letter-spacing:0px;word-spacing:0px;writing-mode:lr-tb;text-anchor:start;display:inline;fill:#666666;fill-opacity:1;stroke:none"
         x="4499.8721"
         y="3214.9099"
         id="text4177"
         sodipodi:linespacing="125%"><tspan
           sodipodi:role="line"
           id="tspan4179"
           x="4499.8721"
           y="3214.9099">Control your data</tspan></text>
      <rect
         style="color:#000000;font-style:normal;font-variant:normal;font-weight:normal;font-stretch:normal;font-size:7.13590527px;line-height:125%;font-family:'Good Times';-inkscape-font-specification:'Good Times';text-align:start;letter-spacing:0px;word-spacing:0px;writing-mode:lr-tb;text-anchor:start;display:inline;overflow:visible;visibility:visible;opacity:0.77300002;fill:#ff0000;fill-opacity:1;fill-rule:nonzero;stroke:none;stroke-width:0.19977777;stroke-linecap:round;stroke-linejoin:miter;stroke-miterlimit:4;stroke-dasharray:none;stroke-dashoffset:0;stroke-opacity:1;marker:none;enable-background:accumulate"
         id="rect4228"
         width="41.967083"
         height="105.06071"
         x="3809.4138"
         y="2453.2449" />
      <rect
         y="2417.8894"
         x="4211.0508"
         height="105.06071"
         width="57.52343"
         id="rect4230"
         style="color:#000000;font-style:normal;font-variant:normal;font-weight:normal;font-stretch:normal;font-size:7.13590527px;line-height:125%;font-family:'Good Times';-inkscape-font-specification:'Good Times';text-align:start;letter-spacing:0px;word-spacing:0px;writing-mode:lr-tb;text-anchor:start;display:inline;overflow:visible;visibility:visible;opacity:0.77300002;fill:#00ff00;fill-opacity:1;fill-rule:nonzero;stroke:none;stroke-width:0.19977777;stroke-linecap:round;stroke-linejoin:miter;stroke-miterlimit:4;stroke-dasharray:none;stroke-dashoffset:0;stroke-opacity:1;marker:none;enable-background:accumulate" />
    </g>
  </g>
</svg>
