<?xml version="1.0" encoding="UTF-8" standalone="no"?>
<!-- Created with Inkscape (http://www.inkscape.org/) -->

<svg
   width="73.742249mm"
   height="32.677486mm"
   viewBox="0 0 73.742248 32.677486"
   version="1.1"
   id="svg8"
   inkscape:version="1.2.2 (b0a8486541, 2022-12-01)"
   sodipodi:docname="logo_wide_anybg.svg"
   inkscape:export-filename="/home/aqw/git/datalad.org/new_logo7.7.png"
   inkscape:export-xdpi="299.96201"
   inkscape:export-ydpi="299.96201"
   xmlns:inkscape="http://www.inkscape.org/namespaces/inkscape"
   xmlns:sodipodi="http://sodipodi.sourceforge.net/DTD/sodipodi-0.dtd"
   xmlns="http://www.w3.org/2000/svg"
   xmlns:svg="http://www.w3.org/2000/svg"
   xmlns:rdf="http://www.w3.org/1999/02/22-rdf-syntax-ns#"
   xmlns:cc="http://creativecommons.org/ns#"
   xmlns:dc="http://purl.org/dc/elements/1.1/">
  <defs
     id="defs2" />
  <sodipodi:namedview
     id="base"
     pagecolor="black"
     bordercolor="#666666"
     borderopacity="1.0"
     inkscape:pageopacity="1"
     inkscape:pageshadow="2"
     inkscape:zoom="4"
     inkscape:cx="120.625"
     inkscape:cy="104"
     inkscape:document-units="mm"
     inkscape:current-layer="layer9"
     showgrid="false"
     inkscape:window-width="3440"
     inkscape:window-height="1370"
     inkscape:window-x="0"
     inkscape:window-y="30"
     inkscape:window-maximized="1"
     inkscape:measure-start="308.814,118.987"
     inkscape:measure-end="308.814,115.604"
     fit-margin-top="0"
     fit-margin-left="0"
     fit-margin-right="0"
     fit-margin-bottom="0"
     inkscape:pagecheckerboard="0"
     inkscape:showpageshadow="2"
     inkscape:deskcolor="#d1d1d1" />
  <metadata
     id="metadata5">
    <rdf:RDF>
      <cc:Work
         rdf:about="">
        <dc:format>image/svg+xml</dc:format>
        <dc:type
           rdf:resource="http://purl.org/dc/dcmitype/StillImage" />
        <cc:license
           rdf:resource="http://creativecommons.org/licenses/by/4.0/" />
      </cc:Work>
      <cc:License
         rdf:about="http://creativecommons.org/licenses/by/4.0/">
        <cc:permits
           rdf:resource="http://creativecommons.org/ns#Reproduction" />
        <cc:permits
           rdf:resource="http://creativecommons.org/ns#Distribution" />
        <cc:requires
           rdf:resource="http://creativecommons.org/ns#Notice" />
        <cc:requires
           rdf:resource="http://creativecommons.org/ns#Attribution" />
        <cc:permits
           rdf:resource="http://creativecommons.org/ns#DerivativeWorks" />
      </cc:License>
    </rdf:RDF>
  </metadata>
  <g
     inkscape:groupmode="layer"
     id="layer8"
     inkscape:label="durr"
     style="display:inline"
     transform="translate(-9.926211,-8.5712493)" />
  <g
     inkscape:groupmode="layer"
     id="layer9"
     inkscape:label="L"
     transform="translate(-9.926211,-8.5712493)">
    <path
       id="path2374"
       style="font-style:normal;font-variant:normal;font-weight:bold;font-stretch:normal;font-size:192px;line-height:25px;font-family:Montserrat;-inkscape-font-specification:'Montserrat Bold';text-align:start;letter-spacing:0px;word-spacing:0px;writing-mode:lr-tb;text-anchor:start;fill:none;fill-opacity:1;stroke:white;stroke-width:0.3;stroke-linecap:square;stroke-linejoin:round;stroke-dasharray:none;stroke-opacity:1"
       d="M 10.076211,8.7212553 V 26.817636 c 0,0 6.723806,0.0017 7.275896,0 0.552089,-0.0017 0.786041,-0.100838 0.786041,-0.100838 l 1.26597,-1.979505 -2.025955,-1.740245 h -2.577755 v -10.42921 l -0.89967,-0.899934 -1.040165,-1.040164 -5.55e-4,-2.68e-4 c 1.3e-4,1.33e-4 0.957608,-0.9573977 1.906482,-1.9062227 z m 69.632245,9.2066427 1.905,-1.7 1.905,1.7 v 1.700051 l -1.905,-1.700015 -1.905,1.700015 z m 0,2.590051 1.905,-1.7 1.905,1.7 V 22.218 l -1.905,-1.700015 -1.905,1.700015 z m -4.03878,20.580786 c -1.608667,0 -3.048,-0.6858 -4.318,-2.0574 -1.27,-1.3716 -1.905,-3.0734 -1.905,-5.105399 0,-2.032 0.618067,-3.691467 1.8542,-4.9784 1.236133,-1.303867 2.683933,-1.9558 4.3434,-1.9558 1.659469,0 3.014136,0.5842 4.064003,1.7526 l 1.77e-4,-5.64119 1.905,-1.700293 1.905,1.700293 -1.77e-4,17.782389 h -3.81 v -1.8034 c -1.0668,1.337733 -2.413001,2.0066 -4.038603,2.0066 z m -2.3876,-7.010399 c 0,1.100666 0.3302,2.006599 0.9906,2.717799 0.6604,0.694267 1.430867,1.0414 2.3114,1.0414 0.880535,0 1.625603,-0.347133 2.235203,-1.0414 0.626533,-0.7112 0.9398,-1.617133 0.9398,-2.717799 0,-1.1176 -0.313267,-2.040467 -0.9398,-2.7686 -0.6096,-0.745067 -1.363134,-1.1176 -2.260603,-1.1176 -0.897467,0 -1.667933,0.372533 -2.3114,1.1176 -0.643467,0.745067 -0.9652,1.667933 -0.9652,2.7686 z m -13.212308,7.010399 c -1.744133,0 -3.268133,-0.651933 -4.572,-1.9558 -1.303866,-1.303867 -1.9558,-3.014133 -1.9558,-5.130799 0,-2.1336 0.668867,-3.8354 2.0066,-5.1054 1.337734,-1.27 2.887134,-1.905 4.6482,-1.905 1.3716,0 2.5654,0.4572 3.5814,1.3716 l 2.88e-4,-1.35286 1.9175,-1.700476 1.9175,1.700476 1.12e-4,13.875059 h -3.8354 v -1.1176 c -1.083733,0.880531 -2.319866,1.3208 -3.7084,1.3208 z m -2.6924,-7.010399 c 0,1.117599 0.3302,2.031999 0.9906,2.743199 0.6604,0.694267 1.430867,1.0414 2.3114,1.0414 0.880534,0 1.6256,-0.347133 2.2352,-1.0414 0.6096,-0.7112 0.9144,-1.617133 0.9144,-2.717799 0,-1.1176 -0.3048,-2.048933 -0.9144,-2.794 -0.6096,-0.745067 -1.363133,-1.1176 -2.2606,-1.1176 -0.897466,0 -1.667933,0.372533 -2.3114,1.1176 -0.643466,0.728133 -0.9652,1.651 -0.9652,2.7686 z M 17.452682,8.7212543 l -1.906485,1.9064847 1.940098,1.940098 h 0.282821 c 0.946542,0 1.789879,0.223753 2.529901,0.671209 0.740024,0.430247 1.316456,1.041043 1.729492,1.832696 0.430247,0.791651 0.645475,1.703714 0.645475,2.736304 0,1.015381 -0.197915,1.918919 -0.593741,2.710572 -0.395827,0.791653 -0.946686,1.40271 -1.652289,1.832957 -0.252626,0.154039 -0.518946,0.279256 -0.798045,0.378146 0.194754,0.207133 1.7463,1.536742 1.7463,1.536742 l -1.241054,2.325074 c 0.957959,-0.187072 1.84731,-0.490146 2.667767,-0.909914 1.497255,-0.757234 2.650383,-1.824061 3.459245,-3.200848 0.826073,-1.376788 1.239217,-2.951585 1.239217,-4.724198 0,-1.772614 -0.404618,-3.338623 -1.21348,-4.6982 -0.808863,-1.376787 -1.944679,-2.443878 -3.407516,-3.2011107 -1.445626,-0.757231 -3.114987,-1.136012 -5.008069,-1.136012 z m 27.917775,18.1727467 10e-6,-4.707088 -2.01e-4,-13.1317997 3.835463,-3e-6 v 4.0894007 h 3.302 v 2.971799 h -3.302 l -2.64e-4,5.8928 -8e-6,4.034891 -1.917502,1.699998 -1.917498,-1.699998 m 14.699167,0.968925 c -1.744133,0 -3.268133,-0.651933 -4.572,-1.9558 -1.303866,-1.303866 -1.9558,-3.014133 -1.9558,-5.1308 0,-2.1336 0.668867,-3.8354 2.0066,-5.1054 1.337734,-1.27 2.887134,-1.905 4.6482,-1.905 1.3716,0 2.5654,0.4572 3.5814,1.3716 v -1.143 h 3.8354 v 13.874949 h -3.8354 v -1.327349 c -1.083733,0.880534 -2.319867,1.3208 -3.7084,1.3208 z m -2.6924,-7.0104 c 0,1.1176 0.3302,2.032 0.9906,2.7432 0.6604,0.694267 1.430867,1.0414 2.3114,1.0414 0.880533,0 1.6256,-0.347133 2.2352,-1.0414 0.6096,-0.7112 0.9144,-1.617133 0.9144,-2.7178 0,-1.1176 -0.3048,-2.048933 -0.9144,-2.794 -0.6096,-0.745066 -1.363133,-1.1176 -2.2606,-1.1176 -0.897466,0 -1.667933,0.372534 -2.3114,1.1176 -0.643466,0.728134 -0.9652,1.651 -0.9652,2.7686 z m -22.014534,7.0104 q -2.6162,0 -4.572,-1.9558 -1.9558,-1.9558 -1.9558,-5.1308 0,-3.2004 2.0066,-5.1054 2.0066,-1.905 4.6482,-1.905 2.0574,0 3.5814,1.3716 v -1.143 h 3.8354 v 13.6652 h -3.8354 v -1.1176 q -1.6256,1.3208 -3.7084,1.3208 z m -2.6924,-7.0104 q 0,1.6764 0.9906,2.7432 0.9906,1.0414 2.3114,1.0414 1.3208,0 2.2352,-1.0414 0.9144,-1.0668 0.9144,-2.7178 0,-1.6764 -0.9144,-2.794 -0.9144,-1.1176 -2.2606,-1.1176 -1.3462,0 -2.3114,1.1176 -0.9652,1.0922 -0.9652,2.7686 z m 16.535908,5.899177 -2.91e-4,10.192411 c -1.5e-5,0.524934 0.135754,0.9398 0.406687,1.2446 0.270933,0.287867 0.592667,0.4318 0.965201,0.4318 0.7112,0 0.965986,0.0087 1.8034,0.0054 l 0.0027,3.321074 c -1.37242,0.0024 -1.018735,7.94e-4 -2.339536,7.94e-4 -1.303867,0 -2.413,-0.4318 -3.3274,-1.2954 -0.897467,-0.8636 -1.3462,-2.040467 -1.3462,-3.5306 V 25.901594 Z" />
    <g
       id="g2411">
      <path
         d="m 49.206198,25.901703 -2.91e-4,10.192411 c -1.5e-5,0.524934 0.135754,0.9398 0.406687,1.2446 0.270933,0.287867 0.592667,0.4318 0.965201,0.4318 0.7112,0 0.965986,0.0087 1.8034,0.0054 l 0.0027,3.321074 c -1.37242,0.0024 -1.018735,7.94e-4 -2.339536,7.94e-4 -1.303867,0 -2.413,-0.4318 -3.3274,-1.2954 -0.897467,-0.8636 -1.3462,-2.040467 -1.3462,-3.5306 V 25.901594 Z"
         style="font-style:normal;font-variant:normal;font-weight:bold;font-stretch:normal;font-size:96px;line-height:25px;font-family:'Montserrat Alternates';-inkscape-font-specification:'Montserrat Alternates Bold';text-align:start;letter-spacing:0px;word-spacing:0px;writing-mode:lr-tb;text-anchor:start;display:inline;fill:#ffa200;fill-opacity:1;stroke:none;stroke-width:0.264583px;stroke-linecap:butt;stroke-linejoin:miter;stroke-opacity:1"
         id="path4584-3"
         inkscape:connector-curvature="0"
         sodipodi:nodetypes="cscsccscscc" />
      <path
         d="m 35.36269,27.012926 q -2.6162,0 -4.572,-1.9558 -1.9558,-1.9558 -1.9558,-5.1308 0,-3.2004 2.0066,-5.1054 2.0066,-1.905 4.6482,-1.905 2.0574,0 3.5814,1.3716 v -1.143 h 3.8354 v 13.6652 h -3.8354 v -1.1176 q -1.6256,1.3208 -3.7084,1.3208 z m -2.6924,-7.0104 q 0,1.6764 0.9906,2.7432 0.9906,1.0414 2.3114,1.0414 1.3208,0 2.2352,-1.0414 0.9144,-1.0668 0.9144,-2.7178 0,-1.6764 -0.9144,-2.794 -0.9144,-1.1176 -2.2606,-1.1176 -1.3462,0 -2.3114,1.1176 -0.9652,1.0922 -0.9652,2.7686 z"
         style="font-style:normal;font-variant:normal;font-weight:bold;font-stretch:normal;font-size:96px;line-height:25px;font-family:'Montserrat Alternates';-inkscape-font-specification:'Montserrat Alternates Bold';text-align:start;letter-spacing:0px;word-spacing:0px;writing-mode:lr-tb;text-anchor:start;display:inline;fill:#333;fill-opacity:1;stroke:none;stroke-width:0.264583px;stroke-linecap:butt;stroke-linejoin:miter;stroke-opacity:1"
         id="path4612-4"
         inkscape:connector-curvature="0" />
      <path
         d="m 60.069624,27.012926 c -1.744133,0 -3.268133,-0.651933 -4.572,-1.9558 -1.303866,-1.303866 -1.9558,-3.014133 -1.9558,-5.1308 0,-2.1336 0.668867,-3.8354 2.0066,-5.1054 1.337734,-1.27 2.887134,-1.905 4.6482,-1.905 1.3716,0 2.5654,0.4572 3.5814,1.3716 v -1.143 h 3.8354 v 13.874949 h -3.8354 v -1.327349 c -1.083733,0.880534 -2.319867,1.3208 -3.7084,1.3208 z m -2.6924,-7.0104 c 0,1.1176 0.3302,2.032 0.9906,2.7432 0.6604,0.694267 1.430867,1.0414 2.3114,1.0414 0.880533,0 1.6256,-0.347133 2.2352,-1.0414 0.6096,-0.7112 0.9144,-1.617133 0.9144,-2.7178 0,-1.1176 -0.3048,-2.048933 -0.9144,-2.794 -0.6096,-0.745066 -1.363133,-1.1176 -2.2606,-1.1176 -0.897466,0 -1.667933,0.372534 -2.3114,1.1176 -0.643466,0.728134 -0.9652,1.651 -0.9652,2.7686 z"
         style="font-style:normal;font-variant:normal;font-weight:bold;font-stretch:normal;font-size:96px;line-height:25px;font-family:'Montserrat Alternates';-inkscape-font-specification:'Montserrat Alternates Bold';text-align:start;letter-spacing:0px;word-spacing:0px;writing-mode:lr-tb;text-anchor:start;display:inline;fill:#333;fill-opacity:1;stroke:none;stroke-width:0.264583px;stroke-linecap:butt;stroke-linejoin:miter;stroke-opacity:1"
         id="path4616-0"
         inkscape:connector-curvature="0"
         sodipodi:nodetypes="sssssccccccsscscssscs" />
      <path
         d="m 45.370457,26.894001 10e-6,-4.707088 -2.01e-4,-13.1317998 3.835463,-2.6e-6 v 4.0894004 h 3.302 v 2.971799 h -3.302 l -2.64e-4,5.8928 -8e-6,4.034891 -1.917502,1.699998 -1.917498,-1.699998"
         style="font-style:normal;font-variant:normal;font-weight:bold;font-stretch:normal;font-size:96px;line-height:25px;font-family:'Montserrat Alternates';-inkscape-font-specification:'Montserrat Alternates Bold';text-align:start;letter-spacing:0px;word-spacing:0px;writing-mode:lr-tb;text-anchor:start;display:inline;fill:#333;fill-opacity:1;stroke:none;stroke-width:0.264583px;stroke-linecap:butt;stroke-linejoin:miter;stroke-opacity:1"
         id="path4614-2"
         inkscape:connector-curvature="0"
         sodipodi:nodetypes="cccccccccccc" />
      <path
         style="font-style:normal;font-variant:normal;font-weight:bold;font-stretch:normal;font-size:192px;line-height:25px;font-family:Montserrat;-inkscape-font-specification:'Montserrat Bold';text-align:start;letter-spacing:0px;word-spacing:0px;writing-mode:lr-tb;text-anchor:start;display:inline;fill:#333;fill-opacity:1;stroke:none;stroke-width:0.134452px;stroke-linecap:butt;stroke-linejoin:miter;stroke-opacity:1"
         d="m 17.452682,8.7212544 -1.906485,1.9064846 1.940098,1.940098 h 0.282821 c 0.946542,0 1.789879,0.223753 2.529901,0.671209 0.740024,0.430247 1.316456,1.041043 1.729492,1.832696 0.430247,0.791651 0.645475,1.703714 0.645475,2.736304 0,1.015381 -0.197915,1.918919 -0.593741,2.710572 -0.395827,0.791653 -0.946686,1.40271 -1.652289,1.832957 -0.252626,0.154039 -0.518946,0.279256 -0.798045,0.378146 0.194754,0.207133 1.7463,1.536742 1.7463,1.536742 l -1.241054,2.325074 c 0.957959,-0.187072 1.84731,-0.490146 2.667767,-0.909914 1.497255,-0.757234 2.650383,-1.824061 3.459245,-3.200848 0.826073,-1.376788 1.239217,-2.951585 1.239217,-4.724198 0,-1.772614 -0.404618,-3.338623 -1.21348,-4.6982 C 25.479041,11.68159 24.343225,10.614499 22.880388,9.8572668 21.434762,9.1000353 19.765401,8.7212544 17.872319,8.7212544 Z"
         id="path1711-6-2-1"
         inkscape:connector-curvature="0"
         sodipodi:nodetypes="cccsccssscccccsccsc"
         inkscape:export-xdpi="299.96201"
         inkscape:export-ydpi="299.96201" />
      <path
         inkscape:connector-curvature="0"
         d="m 60.069768,41.098735 c -1.744133,0 -3.268133,-0.651933 -4.572,-1.9558 -1.303866,-1.303867 -1.9558,-3.014133 -1.9558,-5.130799 0,-2.1336 0.668867,-3.8354 2.0066,-5.1054 1.337734,-1.27 2.887134,-1.905 4.6482,-1.905 1.3716,0 2.5654,0.4572 3.5814,1.3716 l 2.88e-4,-1.35286 1.9175,-1.700476 1.9175,1.700476 1.12e-4,13.875059 h -3.8354 v -1.1176 c -1.083733,0.880531 -2.319866,1.3208 -3.7084,1.3208 z m -2.6924,-7.010399 c 0,1.117599 0.3302,2.031999 0.9906,2.743199 0.6604,0.694267 1.430867,1.0414 2.3114,1.0414 0.880534,0 1.6256,-0.347133 2.2352,-1.0414 0.6096,-0.7112 0.9144,-1.617133 0.9144,-2.717799 0,-1.1176 -0.3048,-2.048933 -0.9144,-2.794 -0.6096,-0.745067 -1.363133,-1.1176 -2.2606,-1.1176 -0.897466,0 -1.667933,0.372533 -2.3114,1.1176 -0.643466,0.728133 -0.9652,1.651 -0.9652,2.7686 z"
         style="font-style:normal;font-variant:normal;font-weight:bold;font-stretch:normal;font-size:96px;line-height:25px;font-family:'Montserrat Alternates';-inkscape-font-specification:'Montserrat Alternates Bold';text-align:start;letter-spacing:0px;word-spacing:0px;writing-mode:lr-tb;text-anchor:start;display:inline;opacity:1;fill:#ffa200;fill-opacity:1;stroke:none;stroke-width:0.264583px;stroke-linecap:butt;stroke-linejoin:miter;stroke-opacity:1"
         id="path4586-7"
         sodipodi:nodetypes="ssssscccccccsscscssscs"
         inkscape:export-xdpi="299.96201"
         inkscape:export-ydpi="299.96201" />
      <path
         id="rect2037-6"
         style="display:inline;opacity:1;fill:#ffa200;fill-opacity:1;fill-rule:evenodd;stroke:none;stroke-width:1.05833;stroke-linecap:butt;stroke-linejoin:miter;stroke-miterlimit:4;stroke-dasharray:none;stroke-opacity:0"
         d="m 79.708456,17.927898 1.905,-1.7 1.905,1.7 v 1.700051 l -1.905,-1.700015 -1.905,1.700015 z m 0,2.590051 1.905,-1.7 1.905,1.7 V 22.218 l -1.905,-1.700015 -1.905,1.700015 z m -4.03878,20.580786 c -1.608667,0 -3.048,-0.6858 -4.318,-2.0574 -1.27,-1.3716 -1.905,-3.0734 -1.905,-5.105399 0,-2.032 0.618067,-3.691467 1.8542,-4.9784 1.236133,-1.303867 2.683933,-1.9558 4.3434,-1.9558 1.659469,0 3.014136,0.5842 4.064003,1.7526 l 1.77e-4,-5.64119 1.905,-1.700293 1.905,1.700293 -1.77e-4,17.782389 h -3.81 v -1.8034 c -1.0668,1.337733 -2.413001,2.0066 -4.038603,2.0066 z m -2.3876,-7.010399 c 0,1.100666 0.3302,2.006599 0.9906,2.717799 0.6604,0.694267 1.430867,1.0414 2.3114,1.0414 0.880535,0 1.625603,-0.347133 2.235203,-1.0414 0.626533,-0.7112 0.9398,-1.617133 0.9398,-2.717799 0,-1.1176 -0.313267,-2.040467 -0.9398,-2.7686 -0.6096,-0.745067 -1.363134,-1.1176 -2.260603,-1.1176 -0.897467,0 -1.667933,0.372533 -2.3114,1.1176 -0.643467,0.745067 -0.9652,1.667933 -0.9652,2.7686 z" />
      <path
         style="font-style:normal;font-variant:normal;font-weight:bold;font-stretch:normal;font-size:192px;line-height:25px;font-family:Montserrat;-inkscape-font-specification:'Montserrat Bold';text-align:start;letter-spacing:0px;word-spacing:0px;writing-mode:lr-tb;text-anchor:start;fill:#ffa200;fill-opacity:1;stroke:none;stroke-width:0.134452px;stroke-linecap:butt;stroke-linejoin:miter;stroke-opacity:1"
         d="m 10.076211,8.721255 v 18.096381 c 0,0 6.723806,0.0017 7.275896,0 0.552089,-0.0017 0.786041,-0.100838 0.786041,-0.100838 l 1.26597,-1.979505 -2.025955,-1.740245 h -2.577755 v -10.42921 l -0.89967,-0.899934 -1.040165,-1.040164 -5.55e-4,-2.68e-4 c 1.3e-4,1.33e-4 0.957608,-0.957398 1.906482,-1.906223 z"
         id="path1711-6-2-1-9"
         inkscape:connector-curvature="0"
         sodipodi:nodetypes="cczcccccccccc"
         inkscape:export-xdpi="299.96201"
         inkscape:export-ydpi="299.96201" />
    </g>
  </g>
</svg>
