<?xml version="1.0" encoding="UTF-8" standalone="no"?>
<!-- Created with Inkscape (http://www.inkscape.org/) -->

<svg
   xmlns:dc="http://purl.org/dc/elements/1.1/"
   xmlns:cc="http://creativecommons.org/ns#"
   xmlns:rdf="http://www.w3.org/1999/02/22-rdf-syntax-ns#"
   xmlns:svg="http://www.w3.org/2000/svg"
   xmlns="http://www.w3.org/2000/svg"
   xmlns:sodipodi="http://sodipodi.sourceforge.net/DTD/sodipodi-0.dtd"
   xmlns:inkscape="http://www.inkscape.org/namespaces/inkscape"
   id="svg2"
   sodipodi:docname="datalad-tester.svg"
   viewBox="0 0 529.75999 529.75713"
   version="1.1"
   inkscape:version="0.91 r13725"
   width="529.76001"
   height="529.75714">
  <defs
     id="defs15">
    <filter
       style="color-interpolation-filters:sRGB"
       inkscape:menu-tooltip="Darken the edges with an inner blur"
       inkscape:menu="Shadows and Glows"
       id="filter3894"
       inkscape:label="Darken edges">
      <feFlood
         id="feFlood3896"
         result="flood"
         flood-color="rgb(0,0,0)"
         flood-opacity="0.3" />
      <feComposite
         id="feComposite3898"
         result="composite1"
         operator="in"
         in2="SourceGraphic"
         in="flood" />
      <feGaussianBlur
         id="feGaussianBlur3900"
         result="blur"
         stdDeviation="2" />
      <feOffset
         id="feOffset3902"
         result="offset"
         dy="2"
         dx="2" />
      <feComposite
         id="feComposite3904"
         result="fbSourceGraphic"
         operator="over"
         in2="offset"
         in="SourceGraphic" />
      <feColorMatrix
         id="feColorMatrix3924"
         values="0 0 0 -1 0 0 0 0 -1 0 0 0 0 -1 0 0 0 0 1 0"
         in="fbSourceGraphic"
         result="fbSourceGraphicAlpha" />
      <feGaussianBlur
         in="fbSourceGraphic"
         result="result8"
         stdDeviation="4"
         id="feGaussianBlur3926" />
      <feOffset
         result="result11"
         dy="4"
         dx="4"
         id="feOffset3928" />
      <feComposite
         operator="in"
         in="fbSourceGraphic"
         result="result6"
         in2="result11"
         id="feComposite3930" />
      <feFlood
         flood-color="rgb(0,0,0)"
         flood-opacity="1"
         in="result6"
         result="result10"
         id="feFlood3932" />
      <feBlend
         result="result12"
         in="result6"
         mode="normal"
         in2="result10"
         id="feBlend3934" />
      <feComposite
         operator="in"
         result="fbSourceGraphic"
         in2="fbSourceGraphic"
         id="feComposite3936" />
      <feColorMatrix
         result="fbSourceGraphicAlpha"
         in="fbSourceGraphic"
         values="0 0 0 -1 0 0 0 0 -1 0 0 0 0 -1 0 0 0 0 1 0"
         id="feColorMatrix4162" />
      <feGaussianBlur
         id="feGaussianBlur4164"
         result="result6"
         stdDeviation="1.5"
         in="fbSourceGraphic" />
      <feComposite
         id="feComposite4166"
         in2="result6"
         operator="atop"
         in="fbSourceGraphic"
         result="result8" />
      <feComposite
         id="feComposite4168"
         in2="fbSourceGraphicAlpha"
         in="result8"
         operator="atop"
         result="result9" />
    </filter>
  </defs>
  <sodipodi:namedview
     id="base"
     bordercolor="#666666"
     inkscape:pageshadow="2"
     inkscape:window-y="0"
     pagecolor="#ffffff"
     inkscape:window-height="1041"
     inkscape:window-maximized="0"
     inkscape:zoom="0.24748737"
     inkscape:window-x="1920"
     showgrid="false"
     borderopacity="1.0"
     inkscape:current-layer="layer1"
     inkscape:cx="753.40396"
     inkscape:cy="829.31872"
     inkscape:window-width="1614"
     inkscape:pageopacity="0.0"
     inkscape:document-units="px"
     fit-margin-top="0"
     fit-margin-left="0"
     fit-margin-right="0"
     fit-margin-bottom="0" />
  <g
     id="layer1"
     inkscape:label="Layer 1"
     inkscape:groupmode="layer"
     transform="translate(-116.081,-97.938648)">
    <ellipse
       id="path3000-1"
       style="fill:#00a6ff"
       transform="matrix(1.892,0,0,2.4722,40.401,-193.97)"
       cx="180"
       cy="225.21933"
       rx="140"
       ry="107.14286" />
    <path
       id="path3905"
       sodipodi:nodetypes="zzzcczzzzzz"
       style="fill:#ffffff;stroke:#ffffff;stroke-width:12.69999981"
       inkscape:connector-curvature="0"
       d="m 207.14,303.79 c 3.8393,-18.482 24.958,-9.9103 30.234,-24.721 5.2765,-14.811 5.4003,-43.509 9.1295,-68.371 3.7292,-24.862 17.544,-46.507 59.208,-67.623 19.368,-9.7836 58.252,-14.038 78.477,-23.361 17.368,7.8189 56.077,16.282 75.094,26.219 19.017,9.9365 62.247,48.065 65,81.429 2.7527,33.364 3.9846,59.926 14.286,74.286 10.3014,14.36 20.863,-6.4168 26.429,15 5.566,21.4168 -127.57,-16.777 -190.71,-17.143 -63.146,-0.36549 -170.98,22.768 -167.14,4.2857 z" />
    <path
       id="path3907"
       sodipodi:nodetypes="czzzzzzzzzzzc"
       style="fill:none;stroke:#f4ffff;stroke-width:10"
       inkscape:connector-curvature="0"
       d="m 253.57,306.65 c 0,0 -1.6412,53.196 -10.714,54.286 -9.073,1.09 -26.735,-12.638 -25,9.2857 1.735,21.9237 4.2843,28.331 12.143,51.429 7.8586,23.097 16.696,42.175 30.714,35.714 14.019,-6.4606 14.75,75.662 33.571,99.286 18.821,23.624 29.424,39.986 73.571,42.143 44.147,2.1571 79.181,-10.624 99.286,-41.429 20.104,-30.805 15.894,-94.339 31.429,-87.143 15.535,7.1958 23.665,-21.009 30.714,-45 7.0498,-23.991 9.6226,-40.331 10.714,-58.571 1.0917,-18.24 -15.339,-0.37883 -22.143,-2.1429 -6.8042,-1.764 -9.2857,-50 -9.2857,-50" />
    <path
       id="path3756"
       style="fill:none;stroke:#00a6ff;stroke-width:1.70000005"
       inkscape:connector-curvature="0"
       d="m 383.93,114.51 0,12.857" />
    <path
       style="color:#000000;font-style:normal;font-variant:normal;font-weight:normal;font-stretch:normal;font-size:medium;line-height:normal;font-family:Sans;-inkscape-font-specification:Sans;text-indent:0;text-align:start;text-decoration:none;text-decoration-line:none;letter-spacing:normal;word-spacing:normal;text-transform:none;direction:ltr;block-progression:tb;writing-mode:lr-tb;baseline-shift:baseline;text-anchor:start;display:inline;overflow:visible;visibility:visible;opacity:0.77399998;fill:#d70a53;fill-opacity:1;stroke:none;stroke-width:25;marker:none;filter:url(#filter3894);enable-background:accumulate"
       d="m 300.24628,117.63585 0,12.5 0,160 0,12.5 12.5,0 120,0 0,-25 -107.5,0 0,-135 87.49999,0 c 8.14923,0 15.45751,0.21294 21.59371,1.75 6.0677,1.51987 11.64831,4.52323 15.65631,8.53125 4.008,4.00801 7.0114,9.55734 8.5312,15.625 1.5371,6.13626 1.7188,13.44452 1.7188,21.59375 l 0,80 c 0,8.14923 -0.1817,15.45747 -1.7188,21.59375 -1.5198,6.06766 -4.5232,11.64824 -8.5312,15.65625 -4.008,4.00801 -9.58861,6.98013 -15.65631,8.5 -6.1362,1.53706 -13.44448,1.75 -21.59371,1.75 l -127.49999,0 0,-175.03125 -25,0 0,187.53125 0,12.5 12.5,0 139.99999,0 c 8.37576,0 17.79401,-0.0218 27.68751,-2.5 9.96211,-2.49537 19.57311,-7.41682 27.25001,-15.09375 7.6769,-7.67693 12.5984,-17.2879 15.0937,-27.25 2.4782,-9.8935 2.4688,-19.28048 2.4688,-27.65625 l 0,-80 c 0,-8.37577 0.01,-17.76275 -2.4688,-27.65625 -2.4919,-9.94846 -7.4036,-19.54705 -15.0625,-27.21875 l -0.031,-0.0312 c -7.6769,-7.67693 -17.2879,-12.59838 -27.25001,-15.09375 -9.8935,-2.4782 -19.3117,-2.5 -27.68746,-2.5 l -99.99999,0 -12.5,0 z"
       id="path4116"
       inkscape:connector-curvature="0"
       inkscape:export-filename="/tmp/xyz5.png"
       inkscape:export-xdpi="100"
       inkscape:export-ydpi="100"
       transform="matrix(0.61189787,0,0,0.59530534,157.38393,75.134754)" />
  </g>
  <metadata
     id="metadata13">
    <rdf:RDF>
      <cc:Work>
        <dc:format>image/svg+xml</dc:format>
        <dc:type
           rdf:resource="http://purl.org/dc/dcmitype/StillImage" />
        <cc:license
           rdf:resource="http://creativecommons.org/publicdomain/zero/1.0/" />
        <dc:publisher>
          <cc:Agent
             rdf:about="http://openclipart.org/">
            <dc:title>Openclipart</dc:title>
          </cc:Agent>
        </dc:publisher>
        <dc:title></dc:title>
      </cc:Work>
      <cc:License
         rdf:about="http://creativecommons.org/publicdomain/zero/1.0/">
        <cc:permits
           rdf:resource="http://creativecommons.org/ns#Reproduction" />
        <cc:permits
           rdf:resource="http://creativecommons.org/ns#Distribution" />
        <cc:permits
           rdf:resource="http://creativecommons.org/ns#DerivativeWorks" />
      </cc:License>
    </rdf:RDF>
  </metadata>
</svg>
