<?xml version="1.0" encoding="UTF-8" standalone="no"?>
<!-- Created with Inkscape (http://www.inkscape.org/) -->

<svg
   xmlns:dc="http://purl.org/dc/elements/1.1/"
   xmlns:cc="http://creativecommons.org/ns#"
   xmlns:rdf="http://www.w3.org/1999/02/22-rdf-syntax-ns#"
   xmlns:svg="http://www.w3.org/2000/svg"
   xmlns="http://www.w3.org/2000/svg"
   xmlns:sodipodi="http://sodipodi.sourceforge.net/DTD/sodipodi-0.dtd"
   xmlns:inkscape="http://www.inkscape.org/namespaces/inkscape"
   width="108in"
   height="24in"
   id="svg2"
   version="1.1"
   inkscape:version="0.91 r13725"
   sodipodi:docname="banner-3.svg"
   style="display:inline"
   inkscape:export-filename="/home/yoh/proj/datalad/artwork/banners/banner-3-1.png"
   inkscape:export-xdpi="9.9869785"
   inkscape:export-ydpi="9.9869785">
  <defs
     id="defs4">
    <filter
       style="color-interpolation-filters:sRGB"
       inkscape:menu-tooltip="Darken the edges with an inner blur"
       inkscape:menu="Shadows and Glows"
       id="filter3894"
       inkscape:label="Darken edges">
      <feFlood
         id="feFlood3896"
         result="flood"
         flood-color="rgb(0,0,0)"
         flood-opacity="0.3" />
      <feComposite
         id="feComposite3898"
         result="composite1"
         operator="in"
         in2="SourceGraphic"
         in="flood" />
      <feGaussianBlur
         id="feGaussianBlur3900"
         result="blur"
         stdDeviation="2" />
      <feOffset
         id="feOffset3902"
         result="offset"
         dy="2"
         dx="2" />
      <feComposite
         id="feComposite3904"
         result="fbSourceGraphic"
         operator="over"
         in2="offset"
         in="SourceGraphic" />
      <feColorMatrix
         id="feColorMatrix3924"
         values="0 0 0 -1 0 0 0 0 -1 0 0 0 0 -1 0 0 0 0 1 0"
         in="fbSourceGraphic"
         result="fbSourceGraphicAlpha" />
      <feGaussianBlur
         in="fbSourceGraphic"
         result="result8"
         stdDeviation="4"
         id="feGaussianBlur3926" />
      <feOffset
         result="result11"
         dy="4"
         dx="4"
         id="feOffset3928" />
      <feComposite
         operator="in"
         in="fbSourceGraphic"
         result="result6"
         in2="result11"
         id="feComposite3930" />
      <feFlood
         flood-color="rgb(0,0,0)"
         flood-opacity="1"
         in="result6"
         result="result10"
         id="feFlood3932" />
      <feBlend
         result="result12"
         in="result6"
         mode="normal"
         in2="result10"
         id="feBlend3934" />
      <feComposite
         operator="in"
         result="fbSourceGraphic"
         in2="fbSourceGraphic"
         id="feComposite3936" />
      <feColorMatrix
         result="fbSourceGraphicAlpha"
         in="fbSourceGraphic"
         values="0 0 0 -1 0 0 0 0 -1 0 0 0 0 -1 0 0 0 0 1 0"
         id="feColorMatrix4162" />
      <feGaussianBlur
         id="feGaussianBlur4164"
         result="result6"
         stdDeviation="1.5"
         in="fbSourceGraphic" />
      <feComposite
         id="feComposite4166"
         in2="result6"
         operator="atop"
         in="fbSourceGraphic"
         result="result8" />
      <feComposite
         id="feComposite4168"
         in2="fbSourceGraphicAlpha"
         in="result8"
         operator="atop"
         result="result9" />
    </filter>
    <filter
       style="color-interpolation-filters:sRGB;"
       inkscape:label="Drop Shadow"
       id="filter7303">
      <feFlood
         flood-opacity="0.498039"
         flood-color="rgb(0,0,0)"
         result="flood"
         id="feFlood7305" />
      <feComposite
         in="flood"
         in2="SourceGraphic"
         operator="in"
         result="composite1"
         id="feComposite7307" />
      <feGaussianBlur
         in="composite1"
         stdDeviation="36.7021"
         result="blur"
         id="feGaussianBlur7309" />
      <feOffset
         dx="0.5"
         dy="0.5"
         result="offset"
         id="feOffset7311" />
      <feComposite
         in="SourceGraphic"
         in2="offset"
         operator="over"
         result="composite2"
         id="feComposite7313" />
    </filter>
  </defs>
  <sodipodi:namedview
     id="base"
     pagecolor="#ffffff"
     bordercolor="#666666"
     borderopacity="1.0"
     inkscape:pageopacity="0.0"
     inkscape:pageshadow="2"
     inkscape:zoom="0.0625"
     inkscape:cx="4594.1407"
     inkscape:cy="-1156.9326"
     inkscape:document-units="in"
     inkscape:current-layer="g7115"
     showgrid="false"
     units="in"
     showguides="false"
     inkscape:guide-bbox="true"
     inkscape:window-width="928"
     inkscape:window-height="1179"
     inkscape:window-x="990"
     inkscape:window-y="19"
     inkscape:window-maximized="0"
     inkscape:snap-global="false">
    <sodipodi:guide
       orientation="1,0"
       position="179.72265,2246.5331"
       id="guide4169" />
    <sodipodi:guide
       orientation="0,1"
       position="393.1433,179.72265"
       id="guide4171" />
    <sodipodi:guide
       orientation="0,1"
       position="246.07316,1980"
       id="guide4299"
       inkscape:label=""
       inkscape:color="rgb(0,0,255)" />
    <inkscape:grid
       type="xygrid"
       id="grid6183" />
    <sodipodi:guide
       position="9540,2160"
       orientation="1,0"
       id="guide6185"
       inkscape:label=""
       inkscape:color="rgb(0,0,255)" />
    <sodipodi:guide
       position="5368,240"
       orientation="0,1"
       id="guide4295" />
  </sodipodi:namedview>
  <metadata
     id="metadata7">
    <rdf:RDF>
      <cc:Work
         rdf:about="">
        <dc:format>image/svg+xml</dc:format>
        <dc:type
           rdf:resource="http://purl.org/dc/dcmitype/StillImage" />
        <dc:title />
      </cc:Work>
    </rdf:RDF>
  </metadata>
  <g
     inkscape:groupmode="layer"
     id="layer7"
     inkscape:label="Lower case"
     style="display:inline">
    <g
       id="g6164"
       transform="translate(0,-65.768121)">
      <g
         transform="matrix(121.1847,0,0,121.1847,2159.2922,-2605.093)"
         style="font-style:normal;font-variant:normal;font-weight:normal;font-stretch:normal;font-size:7.13590527px;line-height:125%;font-family:'Good Times';-inkscape-font-specification:'Good Times';text-align:start;letter-spacing:0px;word-spacing:0px;writing-mode:lr-tb;text-anchor:start;display:inline;fill:#666666;fill-opacity:1;stroke:none"
         id="g6091">
        <g
           id="g6093"
           style="fill:#000000;stroke:#000000;stroke-width:0.2;stroke-miterlimit:4;stroke-dasharray:none">
          <path
             inkscape:connector-curvature="0"
             id="path6095"
             style="fill:#000000;fill-opacity:1;stroke:#000000;stroke-width:0.2;stroke-miterlimit:4;stroke-dasharray:none;stroke-opacity:1"
             d="m 4.2949247,49.374796 c -5.9e-6,0.718349 -0.2331119,1.313008 -0.6993187,1.783976 -0.4614599,0.47097 -1.0466036,0.706455 -1.7554327,0.706455 l -2.74732356,0 0,-4.873824 2.74732356,0 c 0.7183437,5e-6 1.3058659,0.21884 1.7625686,0.656504 0.4614496,0.437672 0.6921769,1.013301 0.6921828,1.726889 M 3.445752,49.446155 C 3.445747,48.975188 3.2935145,48.58985 2.989054,48.290138 2.6893418,47.990434 2.3063819,47.84058 1.8401733,47.840576 l -1.90528674,0 0,3.175478 1.90528674,0 c 0.4662086,1e-6 0.8491685,-0.145096 1.1488807,-0.43529 0.3044605,-0.290192 0.456693,-0.668395 0.456698,-1.134609" />
          <path
             inkscape:connector-curvature="0"
             id="path6097"
             style="fill:#000000;fill-opacity:1;stroke:#000000;stroke-width:0.2;stroke-miterlimit:4;stroke-dasharray:none;stroke-opacity:1"
             d="m 11.24931,51.865227 -1.091793,-0.0071 -0.8206294,-1.362958 -2.3120333,0 0.5137852,-0.842037 1.2915989,0 -0.8491728,-1.405773 -2.1978588,3.610768 -1.0917935,0 2.6474209,-4.402854 c 0.066599,-0.11417 0.1593655,-0.21883 0.2783003,-0.31398 0.1427148,-0.109412 0.271161,-0.16412 0.3853388,-0.164125 0.1236855,5e-6 0.2521316,0.05233 0.3853389,0.15699 0.1141705,0.09039 0.2069372,0.197431 0.2783003,0.321115 l 2.5831975,4.40999" />
          <path
             inkscape:connector-curvature="0"
             id="path6099"
             style="fill:#000000;fill-opacity:1;stroke:#000000;stroke-width:0.2;stroke-miterlimit:4;stroke-dasharray:none;stroke-opacity:1"
             d="m 14.829193,47.840576 -1.919558,0 0,4.024651 -0.842037,0 0,-4.024651 -1.926695,0 0,-0.849173 4.68829,0 0,0.849173" />
          <path
             inkscape:connector-curvature="0"
             id="path6101"
             style="fill:#000000;fill-opacity:1;stroke:#000000;stroke-width:0.2;stroke-miterlimit:4;stroke-dasharray:none;stroke-opacity:1"
             d="m 20.245847,51.865227 -1.091794,-0.0071 -0.820629,-1.362958 -2.312033,0 0.513785,-0.842037 1.291599,0 -0.849173,-1.405773 -2.197858,3.610768 -1.091794,0 2.647421,-4.402854 c 0.0666,-0.11417 0.159365,-0.21883 0.2783,-0.31398 0.142715,-0.109412 0.271161,-0.16412 0.385339,-0.164125 0.123686,5e-6 0.252132,0.05233 0.385339,0.15699 0.11417,0.09039 0.206937,0.197431 0.2783,0.321115 l 2.583198,4.40999" />
        </g>
        <path
           style="fill:#000000"
           inkscape:connector-curvature="0"
           d="m 24.652437,51.865227 -4.203049,0 0,-4.873824 0.849173,0 0,4.024651 3.353876,0 0,0.849173"
           id="path6103" />
        <path
           style="fill:#000000"
           inkscape:connector-curvature="0"
           d="m 31.555978,51.865227 -1.091793,-0.0071 -0.82063,-1.362958 -2.312033,0 0.513785,-0.842037 1.291599,0 -0.849173,-1.405773 -2.197858,3.610768 -1.091794,0 2.647421,-4.402854 c 0.0666,-0.11417 0.159366,-0.21883 0.2783,-0.31398 0.142715,-0.109412 0.271161,-0.16412 0.385339,-0.164125 0.123686,5e-6 0.252132,0.05233 0.385339,0.15699 0.114171,0.09039 0.206937,0.197431 0.2783,0.321115 l 2.583198,4.40999"
           id="path6105" />
        <path
           style="fill:#000000"
           inkscape:connector-curvature="0"
           d="m 37.354236,49.374796 c -6e-6,0.718349 -0.233112,1.313008 -0.699319,1.783976 -0.46146,0.47097 -1.046604,0.706455 -1.755433,0.706455 l -2.747323,0 0,-4.873824 2.747323,0 c 0.718344,5e-6 1.305866,0.21884 1.762569,0.656504 0.461449,0.437672 0.692177,1.013301 0.692183,1.726889 m -0.849173,0.07136 c -5e-6,-0.470967 -0.152238,-0.856305 -0.456698,-1.156017 -0.299712,-0.299704 -0.682672,-0.449558 -1.148881,-0.449562 l -1.905287,0 0,3.175478 1.905287,0 c 0.466209,10e-7 0.849169,-0.145096 1.148881,-0.43529 0.30446,-0.290192 0.456693,-0.668395 0.456698,-1.134609"
           id="path6107" />
        <path
           inkscape:connector-curvature="0"
           d="m 38.885332,51.451344 c -2e-6,0.128447 -0.04044,0.233107 -0.121311,0.31398 -0.08087,0.08087 -0.185534,0.12131 -0.313979,0.12131 -0.12369,0 -0.22835,-0.04044 -0.31398,-0.12131 -0.08087,-0.08087 -0.121311,-0.185533 -0.121311,-0.31398 0,-0.123688 0.04044,-0.225969 0.121311,-0.306844 0.08563,-0.08087 0.19029,-0.121309 0.31398,-0.12131 0.128445,10e-7 0.233105,0.04044 0.313979,0.12131 0.08087,0.08087 0.121309,0.183156 0.121311,0.306844"
           style="fill:#666666;fill-opacity:1"
           id="path6109" />
        <path
           inkscape:connector-curvature="0"
           d="m 46.194619,49.374796 c -6e-6,0.718349 -0.230734,1.313008 -0.692182,1.783976 -0.461461,0.47097 -1.048983,0.706455 -1.762569,0.706455 l -1.362958,0 c -0.708835,0 -1.296358,-0.235485 -1.762569,-0.706455 -0.461455,-0.470968 -0.692183,-1.065627 -0.692182,-1.783976 -10e-7,-0.713588 0.228348,-1.289217 0.685047,-1.726889 0.461453,-0.437664 1.051354,-0.656499 1.769704,-0.656504 l 1.362958,0 c 0.7231,5e-6 1.313001,0.21884 1.769704,0.656504 0.456692,0.437672 0.685041,1.013301 0.685047,1.726889 m -0.842036,0.07136 c -6e-6,-0.470967 -0.152239,-0.856305 -0.456698,-1.156017 -0.299713,-0.299704 -0.685052,-0.449558 -1.156017,-0.449562 l -1.362958,0 c -0.466215,4e-6 -0.851553,0.149858 -1.156017,0.449562 -0.299709,0.299712 -0.449563,0.68505 -0.449562,1.156017 -1e-6,0.466214 0.149853,0.844417 0.449562,1.134609 0.304464,0.290194 0.689802,0.435291 1.156017,0.43529 l 1.362958,0 c 0.470965,10e-7 0.856304,-0.145096 1.156017,-0.43529 0.304459,-0.290192 0.456692,-0.668395 0.456698,-1.134609"
           style="fill:#666666;fill-opacity:1"
           id="path6111" />
        <path
           inkscape:connector-curvature="0"
           d="m 52.609352,51.865227 -1.255919,0 -1.362958,-1.370094 -1.833928,0 0,-0.842037 2.28349,0 c 0.313975,2e-6 0.578003,-0.06898 0.792085,-0.206941 0.242616,-0.161745 0.363926,-0.392472 0.363931,-0.692183 -5e-6,-0.608927 -0.385343,-0.913392 -1.156016,-0.913396 l -2.783003,0 0,4.024651 -0.849173,0 0,-4.873824 3.496593,0 c 0.627956,5e-6 1.134604,0.135587 1.519948,0.406747 0.442421,0.309227 0.663633,0.763546 0.663639,1.362958 -6e-6,0.409128 -0.128452,0.761166 -0.385338,1.056114 -0.237869,0.275923 -0.561363,0.468593 -0.970484,0.578008 l 1.477133,1.469997"
           style="fill:#666666;fill-opacity:1"
           id="path6113" />
        <path
           inkscape:connector-curvature="0"
           d="m 58.825841,51.865227 -3.096983,0 c -0.708836,0 -1.296358,-0.235485 -1.762569,-0.706455 -0.461456,-0.470968 -0.692183,-1.065627 -0.692183,-1.783976 0,-0.713588 0.228349,-1.289217 0.685047,-1.726889 0.461454,-0.437664 1.051355,-0.656499 1.769705,-0.656504 l 2.747323,0 0,0.849173 -2.747323,0 c -0.466215,4e-6 -0.851554,0.149858 -1.156017,0.449562 -0.299709,0.299712 -0.449563,0.68505 -0.449562,1.156017 -10e-7,0.466214 0.149853,0.844417 0.449562,1.134609 0.304463,0.290194 0.689802,0.435291 1.156017,0.43529 l 2.24781,0 0,-1.06325 -2.312033,0 0,-0.777814 3.161206,0 0,2.690237"
           style="fill:#666666;fill-opacity:1"
           id="path6115" />
      </g>
      <g
         id="g7115">
        <g
           id="g4210"
           transform="translate(-164.07888,0)">
          <g
             id="g4243"
             transform="translate(-18.000002,0)">
            <g
               id="g4279"
               transform="translate(0,48)">
              <path
                 style="color:#000000;font-style:normal;font-variant:normal;font-weight:normal;font-stretch:normal;font-size:medium;line-height:normal;font-family:Sans;-inkscape-font-specification:Sans;text-indent:0;text-align:start;text-decoration:none;text-decoration-line:none;letter-spacing:normal;word-spacing:normal;text-transform:none;direction:ltr;block-progression:tb;writing-mode:lr-tb;baseline-shift:baseline;text-anchor:start;display:inline;overflow:visible;visibility:visible;fill:#c40a4c;fill-opacity:1;stroke:none;stroke-width:25;marker:none;enable-background:accumulate"
                 d="m 938.13934,239.79045 0,94.39574 0,1208.26551 0,94.3958 94.39576,0 906.199,0 0,-188.7914 -811.8033,0 0,-1019.47416 660.7702,0 c 61.54,0 116.7298,1.60849 163.0683,13.21539 45.8212,11.47777 87.9639,34.15843 118.2311,64.42547 30.267,30.26706 52.9476,72.17349 64.4247,117.99469 11.6076,46.33849 12.9797,101.52827 12.9797,163.06826 l 0,604.13285 c 0,61.5407 -1.3721,116.7297 -12.9797,163.0689 -11.4771,45.8206 -34.1577,87.9633 -64.4247,118.2304 -30.2672,30.267 -72.4099,52.7121 -118.2311,64.1891 -46.3385,11.6077 -101.5283,13.2153 -163.0683,13.2153 l -962.83654,0 0,-1321.77598 -188.79149,0 0,1416.17178 0,94.3958 94.39574,0 1057.23229,0 c 63.2505,0 134.3743,-0.1662 209.0866,-18.8793 75.2304,-18.8435 147.8093,-56.009 205.7827,-113.9823 57.9733,-57.9733 95.1388,-130.5524 113.9825,-205.7828 18.7145,-74.7123 18.6435,-145.5998 18.6435,-208.8509 l 0,-604.13285 c 0,-63.25043 0.075,-134.13786 -18.6435,-208.8502 -18.818,-75.12768 -55.9095,-147.61304 -113.7468,-205.5471 l -0.2341,-0.23411 C 2144.5984,314.681 2072.0195,277.51627 1996.7891,258.67187 1922.0768,239.95733 1850.9537,239.79271 1787.7025,239.79271 l -755.1659,0 -94.39574,0 z"
                 id="path4116"
                 inkscape:connector-curvature="0"
                 inkscape:export-filename="/tmp/xyz5.png"
                 inkscape:export-xdpi="100"
                 inkscape:export-ydpi="100" />
              <text
                 sodipodi:linespacing="125%"
                 id="text4632"
                 y="1937.7808"
                 x="4948.8115"
                 style="font-style:normal;font-variant:normal;font-weight:normal;font-stretch:normal;font-size:589.03424072px;line-height:125%;font-family:'Good Times';-inkscape-font-specification:'Good Times';text-align:start;letter-spacing:0px;word-spacing:0px;writing-mode:lr-tb;text-anchor:start;display:inline;fill:#666666;fill-opacity:1;stroke:none"
                 xml:space="preserve"><tspan
                   style="font-style:normal;font-variant:normal;font-weight:normal;font-stretch:normal;font-size:589.02935791px;line-height:125%;font-family:'Hemi Head 426';-inkscape-font-specification:'Hemi Head 426, Normal';text-align:start;writing-mode:lr-tb;text-anchor:start"
                   y="1937.7808"
                   x="4948.8115"
                   id="tspan4634"
                   sodipodi:role="line">control your data</tspan></text>
              <g
                 transform="matrix(1.1229138,0,0,1.1229138,-1161.2997,-144.42083)"
                 id="text7098"
                 style="font-style:normal;font-variant:normal;font-weight:normal;font-stretch:normal;font-size:1424.10498047px;line-height:125%;font-family:'Hemi Head 426';-inkscape-font-specification:'Hemi Head 426, Normal';text-align:start;letter-spacing:0px;word-spacing:0px;writing-mode:lr-tb;text-anchor:start;display:inline;fill:#666666;fill-opacity:1;stroke:none">
                <path
                   d="m 3877.9648,1170.016 -452.8654,0 q -99.6874,0 -138.1382,-18.5134 -38.4508,-19.9374 -38.4508,-78.3257 0,-29.9063 9.9687,-76.90172 l 7.1205,-34.17852 q 22.7857,-108.23197 69.7812,-140.98639 46.9954,-32.75441 170.8926,-32.75441 l 203.647,0 -31.3303,148.10691 -189.406,0 q -25.6339,0 -41.299,17.08926 -15.6652,15.66516 -15.6652,35.60263 0,32.75444 38.4508,32.75444 l 263.4595,0 49.8436,-233.55324 q 7.1206,-31.33031 7.1206,-46.99547 0,-28.4821 -29.9063,-35.60262 -11.3928,-2.84821 -52.6918,-2.84821 l -358.8745,0 31.3303,-148.10692 424.3833,0 q 99.6873,0 138.1382,19.93747 38.4508,18.51336 38.4508,76.90167 0,29.9062 -9.9687,76.90167 l -93.9909,441.47255 z"
                   style="font-style:normal;font-variant:normal;font-weight:normal;font-stretch:normal;font-size:1424.10498047px;line-height:125%;font-family:'Hemi Head 426';-inkscape-font-specification:'Hemi Head 426, Normal';text-align:start;writing-mode:lr-tb;text-anchor:start;fill:#000000;fill-opacity:1;stroke:none;stroke-width:18;stroke-miterlimit:4;stroke-dasharray:none;stroke-opacity:1"
                   id="path4226"
                   inkscape:connector-curvature="0" />
                <path
                   inkscape:connector-curvature="0"
                   id="path7189"
                   style="font-style:normal;font-variant:normal;font-weight:normal;font-stretch:normal;font-size:1424.10498047px;line-height:125%;font-family:'Hemi Head 426';-inkscape-font-specification:'Hemi Head 426, Normal';text-align:start;writing-mode:lr-tb;text-anchor:start;fill:#000000;fill-opacity:1;stroke:none;stroke-width:18;stroke-miterlimit:4;stroke-dasharray:none;stroke-opacity:1"
                   d="m 4335.2582,1170.016 -140.9864,0 q -98.2632,0 -136.714,-18.5134 -38.4509,-19.9374 -38.4509,-78.3257 0,-29.9063 9.9688,-76.90172 l 136.714,-645.11955 175.1649,0 -44.1472,203.64701 q 29.9062,0 66.9329,0 18.5134,0 51.2678,0 34.1785,0 51.2678,0 l -32.7544,148.10692 -166.6203,0 -49.8437,233.55321 q -7.1205,31.33031 -7.1205,46.99547 0,28.48206 29.9062,35.60266 11.3928,2.8482 52.6919,2.8482 l 74.0534,0 -31.3303,148.1069 z" />
                <path
                   inkscape:connector-curvature="0"
                   id="path7191"
                   style="font-style:normal;font-variant:normal;font-weight:normal;font-stretch:normal;font-size:1424.10498047px;line-height:125%;font-family:'Hemi Head 426';-inkscape-font-specification:'Hemi Head 426, Normal';text-align:start;writing-mode:lr-tb;text-anchor:start;fill:#000000;fill-opacity:1;stroke:none;stroke-width:18;stroke-miterlimit:4;stroke-dasharray:none;stroke-opacity:1"
                   d="m 5096.2421,1170.016 -452.8654,0 q -99.6873,0 -138.1382,-18.5134 -38.4508,-19.9374 -38.4508,-78.3257 0,-29.9063 9.9687,-76.90172 l 7.1206,-34.17852 q 22.7856,-108.23197 69.7811,-140.98639 46.9955,-32.75441 170.8926,-32.75441 l 203.647,0 -31.3303,148.10691 -189.406,0 q -25.6339,0 -41.299,17.08926 -15.6652,15.66516 -15.6652,35.60263 0,32.75444 38.4509,32.75444 l 263.4594,0 49.8437,-233.55324 q 7.1205,-31.33031 7.1205,-46.99547 0,-28.4821 -29.9062,-35.60262 -11.3929,-2.84821 -52.6919,-2.84821 l -358.8744,0 31.3303,-148.10692 424.3832,0 q 99.6874,0 138.1382,19.93747 38.4509,18.51336 38.4509,76.90167 0,29.9062 -9.9688,76.90167 l -93.9909,441.47255 z" />
                <path
                   inkscape:connector-curvature="0"
                   id="path7193"
                   style="font-style:normal;font-variant:normal;font-weight:normal;font-stretch:normal;font-size:1424.10498047px;line-height:125%;font-family:'Hemi Head 426';-inkscape-font-specification:'Hemi Head 426, Normal';text-align:start;writing-mode:lr-tb;text-anchor:start;fill:#000000;fill-opacity:1"
                   d="m 5389.7634,1170.016 -175.1649,0 173.7408,-818.86037 175.1649,0 -173.7408,818.86037 z" />
                <path
                   inkscape:connector-curvature="0"
                   id="path7195"
                   style="font-style:normal;font-variant:normal;font-weight:normal;font-stretch:normal;font-size:1424.10498047px;line-height:125%;font-family:'Hemi Head 426';-inkscape-font-specification:'Hemi Head 426, Normal';text-align:start;writing-mode:lr-tb;text-anchor:start;fill:#000000;fill-opacity:1"
                   d="m 6147.6321,1170.016 -452.8654,0 q -99.6873,0 -138.1382,-18.5134 -38.4508,-19.9374 -38.4508,-78.3257 0,-29.9063 9.9687,-76.90172 l 7.1206,-34.17852 q 22.7857,-108.23197 69.7811,-140.98639 46.9955,-32.75441 170.8926,-32.75441 l 203.647,0 -31.3303,148.10691 -189.4059,0 q -25.6339,0 -41.2991,17.08926 -15.6651,15.66516 -15.6651,35.60263 0,32.75444 38.4508,32.75444 l 263.4594,0 49.8437,-233.55324 q 7.1205,-31.33031 7.1205,-46.99547 0,-28.4821 -29.9062,-35.60262 -11.3928,-2.84821 -52.6919,-2.84821 l -358.8744,0 31.3303,-148.10692 424.3833,0 q 99.6873,0 138.1381,19.93747 38.4509,18.51336 38.4509,76.90167 0,29.9062 -9.9688,76.90167 l -93.9909,441.47255 z" />
                <path
                   inkscape:connector-curvature="0"
                   id="path7197"
                   style="font-style:normal;font-variant:normal;font-weight:normal;font-stretch:normal;font-size:1424.10498047px;line-height:125%;font-family:'Hemi Head 426';-inkscape-font-specification:'Hemi Head 426, Normal';text-align:start;writing-mode:lr-tb;text-anchor:start;fill:#000000;fill-opacity:1"
                   d="m 6905.4117,1170.016 -450.0171,0 q -99.6874,0 -138.1382,-18.5134 -38.4509,-19.9374 -38.4509,-78.3257 0,-29.9063 9.9688,-76.90172 l 56.9642,-267.73173 q 22.7857,-106.80788 69.7811,-139.56229 46.9955,-34.17852 169.4685,-34.17852 l 215.0399,0 -31.3303,148.10692 -148.107,0 q -59.8124,0 -79.7498,12.81694 -19.9375,12.81695 -32.7545,72.62936 l -31.3303,148.10691 q -7.1205,31.33031 -7.1205,46.99547 0,28.48206 29.9062,35.60266 11.3929,2.8482 52.6919,2.8482 l 210.7675,0 142.4105,-672.17758 175.1649,0 -175.1649,820.28448 z" />
                <path
                   inkscape:connector-curvature="0"
                   id="path7199"
                   style="font-style:normal;font-variant:normal;font-weight:normal;font-stretch:normal;font-size:1424.10498047px;line-height:125%;font-family:'Hemi Head 426';-inkscape-font-specification:'Hemi Head 426, Normal';text-align:start;writing-mode:lr-tb;text-anchor:start;fill:#666666;fill-opacity:1"
                   d="m 7197.7761,1168.5919 -175.1649,0 29.9062,-140.9864 175.1649,0 -29.9062,140.9864 z" />
                <path
                   inkscape:connector-curvature="0"
                   id="path7201"
                   style="font-style:normal;font-variant:normal;font-weight:normal;font-stretch:normal;font-size:1424.10498047px;line-height:125%;font-family:'Hemi Head 426';-inkscape-font-specification:'Hemi Head 426, Normal';text-align:start;writing-mode:lr-tb;text-anchor:start;fill:#666666;fill-opacity:1"
                   d="m 7880.9905,936.46277 31.3303,-148.10691 q 7.1205,-31.33031 7.1205,-46.99547 0,-28.4821 -29.9062,-35.60262 -11.3928,-2.84821 -52.6919,-2.84821 l -139.5623,0 q -59.8124,0 -79.7498,12.81694 -19.9375,12.81695 -32.7545,72.62936 l -31.3303,148.10691 q -7.1205,31.33031 -7.1205,46.99547 0,28.48206 29.9062,35.60266 11.3929,2.8482 52.6919,2.8482 l 139.5623,0 q 59.8124,0 76.9017,-11.3929 22.7856,-14.24102 35.6026,-74.05343 z m 160.9238,59.81241 q -22.7856,106.80792 -69.7811,140.98642 -46.9955,32.7544 -170.8926,32.7544 l -270.5799,0 q -98.2633,0 -136.7141,-18.5134 -38.4509,-19.9374 -38.4509,-78.3257 0,-29.9063 9.9688,-76.90172 l 56.9642,-267.73173 q 22.7857,-106.80788 69.7811,-139.56229 46.9955,-34.17852 169.4685,-34.17852 l 270.58,0 q 99.6873,0 135.2899,18.51336 41.2991,19.93747 41.2991,78.32578 0,29.9062 -9.9688,76.90167 l -56.9642,267.73173 z" />
                <path
                   inkscape:connector-curvature="0"
                   id="path7203"
                   style="font-style:normal;font-variant:normal;font-weight:normal;font-stretch:normal;font-size:1424.10498047px;line-height:125%;font-family:'Hemi Head 426';-inkscape-font-specification:'Hemi Head 426, Normal';text-align:start;writing-mode:lr-tb;text-anchor:start;fill:#666666;fill-opacity:1"
                   d="m 8671.057,702.90956 -205.0711,0 q -59.8124,0 -76.9017,11.39284 -22.7856,14.24105 -35.6026,74.05346 l -81.174,381.66014 -175.1649,0 131.0177,-615.21336 175.1649,0 -15.6652,76.90167 q 49.8437,-76.90167 131.0177,-76.90167 l 183.7095,0 -31.3303,148.10692 z" />
                <path
                   inkscape:connector-curvature="0"
                   id="path7205"
                   style="font-style:normal;font-variant:normal;font-weight:normal;font-stretch:normal;font-size:1424.10498047px;line-height:125%;font-family:'Hemi Head 426';-inkscape-font-specification:'Hemi Head 426, Normal';text-align:start;writing-mode:lr-tb;text-anchor:start;fill:#666666;fill-opacity:1"
                   d="m 9288.5846,1305.306 q -22.7857,108.2319 -71.2053,140.9864 -46.9955,32.7544 -169.4685,32.7544 l -424.3833,0 31.3303,-146.6828 358.8745,0 q 59.8124,0 76.9017,-12.817 22.7856,-14.241 35.6026,-74.0534 l 115.3525,-544.00815 -209.3434,0 q -61.2366,0 -78.3258,11.39284 -22.7857,15.66516 -34.1785,74.05346 l -32.7545,149.53102 q -5.6964,31.33031 -5.6964,45.57136 0,28.48207 29.9062,37.02677 11.3929,2.8482 52.6919,2.8482 l 148.1069,0 -31.3303,146.6828 -215.0398,0 q -98.2633,0 -136.7141,-18.5134 -38.4508,-19.9374 -38.4508,-76.9016 0,-29.9063 9.9687,-78.32582 l 56.9642,-266.30763 q 22.7857,-108.23198 69.7811,-140.9864 46.9955,-34.17852 169.4685,-34.17852 l 451.4413,0 -159.4997,751.92747 z" />
              </g>
            </g>
          </g>
        </g>
        <g
           style="font-style:normal;font-variant:normal;font-weight:normal;font-stretch:normal;font-size:1424.10498047px;line-height:125%;font-family:'Hemi Head 426';-inkscape-font-specification:'Hemi Head 426, Normal';text-align:start;letter-spacing:0px;word-spacing:0px;writing-mode:lr-tb;text-anchor:start;display:inline;fill:#666666;fill-opacity:1;stroke:none"
           id="text7144">
          <g
             id="g7171"
             inkscape:export-xdpi="9.9869785"
             inkscape:export-ydpi="9.9869785">
            <path
               inkscape:connector-curvature="0"
               id="path7149"
               style="font-style:normal;font-variant:normal;font-weight:normal;font-stretch:normal;font-size:1424.10498047px;line-height:125%;font-family:'Hemi Head 426';-inkscape-font-specification:'Hemi Head 426, Normal';text-align:start;writing-mode:lr-tb;text-anchor:start"
               d="m 5631.5173,-617.54993 -450.0172,0 q -99.6873,0 -138.1382,-18.51336 -38.4508,-19.93747 -38.4508,-78.32578 0,-29.9062 9.9687,-76.90166 l 56.9642,-267.73177 q 22.7857,-106.8078 69.7812,-139.5623 46.9955,-34.1785 169.4685,-34.1785 l 215.0398,0 -31.3303,148.1069 -148.1069,0 q -59.8124,0 -79.7499,12.817 -19.9374,12.8169 -32.7544,72.62934 l -31.3303,148.10692 q -7.1205,31.33031 -7.1205,46.99546 0,28.4821 29.9062,35.60263 11.3928,2.84821 52.6919,2.84821 l 210.7675,0 142.4105,-672.17756 175.1649,0 -175.1649,820.28447 z" />
            <path
               inkscape:connector-curvature="0"
               id="path7151"
               style="font-style:normal;font-variant:normal;font-weight:normal;font-stretch:normal;font-size:1424.10498047px;line-height:125%;font-family:'Hemi Head 426';-inkscape-font-specification:'Hemi Head 426, Normal';text-align:start;writing-mode:lr-tb;text-anchor:start"
               d="m 6355.1492,-617.54993 -452.8654,0 q -99.6873,0 -138.1381,-18.51336 -38.4509,-19.93747 -38.4509,-78.32578 0,-29.9062 9.9688,-76.90166 l 7.1205,-34.17852 q 22.7857,-108.23198 69.7811,-140.9864 46.9955,-32.75441 170.8926,-32.75441 l 203.647,0 -31.3303,148.10692 -189.4059,0 q -25.6339,0 -41.2991,17.08926 -15.6651,15.66515 -15.6651,35.60262 0,32.75442 38.4508,32.75442 l 263.4594,0 49.8437,-233.55322 q 7.1205,-31.33034 7.1205,-46.99544 0,-28.4821 -29.9062,-35.6027 -11.3928,-2.8482 -52.6919,-2.8482 l -358.8744,0 31.3303,-148.1069 424.3833,0 q 99.6873,0 138.1381,19.9375 38.4509,18.5134 38.4509,76.9017 0,29.9062 -9.9688,76.9016 l -93.9909,441.47257 z" />
            <path
               inkscape:connector-curvature="0"
               id="path7153"
               style="font-style:normal;font-variant:normal;font-weight:normal;font-stretch:normal;font-size:1424.10498047px;line-height:125%;font-family:'Hemi Head 426';-inkscape-font-specification:'Hemi Head 426, Normal';text-align:start;writing-mode:lr-tb;text-anchor:start"
               d="m 6738.2729,-617.54993 -140.9864,0 q -98.2632,0 -136.7141,-18.51336 -38.4508,-19.93747 -38.4508,-78.32578 0,-29.9062 9.9687,-76.90166 l 136.7141,-645.11957 175.1649,0 -44.1472,203.647 q 29.9062,0 66.9329,0 18.5134,0 51.2678,0 34.1785,0 51.2677,0 l -32.7544,148.1069 -166.6202,0 -49.8437,233.55326 q -7.1205,31.33031 -7.1205,46.99546 0,28.4821 29.9062,35.60263 11.3928,2.84821 52.6918,2.84821 l 74.0535,0 -31.3303,148.10691 z" />
            <path
               inkscape:connector-curvature="0"
               id="path7155"
               style="font-style:normal;font-variant:normal;font-weight:normal;font-stretch:normal;font-size:1424.10498047px;line-height:125%;font-family:'Hemi Head 426';-inkscape-font-specification:'Hemi Head 426, Normal';text-align:start;writing-mode:lr-tb;text-anchor:start"
               d="m 7461.7576,-617.54993 -452.8654,0 q -99.6874,0 -138.1382,-18.51336 -38.4508,-19.93747 -38.4508,-78.32578 0,-29.9062 9.9687,-76.90166 l 7.1205,-34.17852 q 22.7857,-108.23198 69.7812,-140.9864 46.9954,-32.75441 170.8926,-32.75441 l 203.647,0 -31.3303,148.10692 -189.406,0 q -25.6339,0 -41.299,17.08926 -15.6652,15.66515 -15.6652,35.60262 0,32.75442 38.4508,32.75442 l 263.4595,0 49.8436,-233.55322 q 7.1206,-31.33034 7.1206,-46.99544 0,-28.4821 -29.9062,-35.6027 -11.3929,-2.8482 -52.6919,-2.8482 l -358.8745,0 31.3303,-148.1069 424.3833,0 q 99.6874,0 138.1382,19.9375 38.4508,18.5134 38.4508,76.9017 0,29.9062 -9.9687,76.9016 l -93.9909,441.47257 z" />
            <path
               inkscape:connector-curvature="0"
               id="path7157"
               style="font-style:normal;font-variant:normal;font-weight:normal;font-stretch:normal;font-size:1424.10498047px;line-height:125%;font-family:'Hemi Head 426';-inkscape-font-specification:'Hemi Head 426, Normal';text-align:start;writing-mode:lr-tb;text-anchor:start"
               d="m 7703.8949,-617.54993 -175.1649,0 173.7408,-818.86037 175.1649,0 -173.7408,818.86037 z" />
            <path
               inkscape:connector-curvature="0"
               id="path7159"
               style="font-style:normal;font-variant:normal;font-weight:normal;font-stretch:normal;font-size:1424.10498047px;line-height:125%;font-family:'Hemi Head 426';-inkscape-font-specification:'Hemi Head 426, Normal';text-align:start;writing-mode:lr-tb;text-anchor:start"
               d="m 8432.1028,-617.54993 -452.8654,0 q -99.6874,0 -138.1382,-18.51336 -38.4508,-19.93747 -38.4508,-78.32578 0,-29.9062 9.9687,-76.90166 l 7.1205,-34.17852 q 22.7857,-108.23198 69.7812,-140.9864 46.9954,-32.75441 170.8926,-32.75441 l 203.647,0 -31.3303,148.10692 -189.406,0 q -25.6339,0 -41.299,17.08926 -15.6652,15.66515 -15.6652,35.60262 0,32.75442 38.4509,32.75442 l 263.4594,0 49.8436,-233.55322 q 7.1206,-31.33034 7.1206,-46.99544 0,-28.4821 -29.9062,-35.6027 -11.3929,-2.8482 -52.6919,-2.8482 l -358.8745,0 31.3303,-148.1069 424.3833,0 q 99.6874,0 138.1382,19.9375 38.4508,18.5134 38.4508,76.9017 0,29.9062 -9.9687,76.9016 l -93.9909,441.47257 z" />
            <path
               inkscape:connector-curvature="0"
               id="path7161"
               style="font-style:normal;font-variant:normal;font-weight:normal;font-stretch:normal;font-size:1424.10498047px;line-height:125%;font-family:'Hemi Head 426';-inkscape-font-specification:'Hemi Head 426, Normal';text-align:start;writing-mode:lr-tb;text-anchor:start"
               d="m 9125.6814,-617.54993 -450.0172,0 q -99.6873,0 -138.1382,-18.51336 -38.4508,-19.93747 -38.4508,-78.32578 0,-29.9062 9.9687,-76.90166 l 56.9642,-267.73177 q 22.7857,-106.8078 69.7812,-139.5623 46.9955,-34.1785 169.4685,-34.1785 l 215.0398,0 -31.3303,148.1069 -148.1069,0 q -59.8124,0 -79.7499,12.817 -19.9374,12.8169 -32.7544,72.62934 l -31.3303,148.10692 q -7.1205,31.33031 -7.1205,46.99546 0,28.4821 29.9062,35.60263 11.3928,2.84821 52.6919,2.84821 l 210.7675,0 142.4105,-672.17756 175.1649,0 -175.1649,820.28447 z" />
            <path
               inkscape:connector-curvature="0"
               id="path7163"
               style="font-style:normal;font-variant:normal;font-weight:normal;font-stretch:normal;font-size:1424.10498047px;line-height:125%;font-family:'Hemi Head 426';-inkscape-font-specification:'Hemi Head 426, Normal';text-align:start;writing-mode:lr-tb;text-anchor:start"
               d="m 9369.0243,-618.97403 -175.1649,0 29.9062,-140.98639 175.1649,0 -29.9062,140.98639 z" />
            <path
               inkscape:connector-curvature="0"
               id="path7165"
               style="font-style:normal;font-variant:normal;font-weight:normal;font-stretch:normal;font-size:1424.10498047px;line-height:125%;font-family:'Hemi Head 426';-inkscape-font-specification:'Hemi Head 426, Normal';text-align:start;writing-mode:lr-tb;text-anchor:start"
               d="m 9957.4384,-851.10314 31.33,-148.10692 q 7.121,-31.33034 7.121,-46.99544 0,-28.4821 -29.907,-35.6027 -11.392,-2.8482 -52.692,-2.8482 l -139.562,0 q -59.812,0 -79.75,12.817 -19.937,12.8169 -32.754,72.62934 l -31.3304,148.10692 q -7.1205,31.33031 -7.1205,46.99546 0,28.4821 29.9059,35.60263 11.393,2.84821 52.692,2.84821 l 139.5616,0 q 59.8134,0 76.9024,-11.39284 22.786,-14.24105 35.603,-74.05346 z m 160.9236,59.81241 q -22.786,106.80787 -69.782,140.98639 -46.995,32.75441 -170.8916,32.75441 l -270.5801,0 q -98.2632,0 -136.7141,-18.51336 -38.4508,-19.93747 -38.4508,-78.32578 0,-29.9062 9.9687,-76.90166 l 56.9642,-267.73177 q 22.7857,-106.8078 69.7812,-139.5623 46.9955,-34.1785 169.4689,-34.1785 l 270.5796,0 q 99.687,0 135.29,18.5134 41.299,19.9375 41.299,78.3258 0,29.9062 -9.969,76.9016 l -56.964,267.73177 z" />
            <path
               inkscape:connector-curvature="0"
               id="path7167"
               style="font-style:normal;font-variant:normal;font-weight:normal;font-stretch:normal;font-size:1424.10498047px;line-height:125%;font-family:'Hemi Head 426';-inkscape-font-specification:'Hemi Head 426, Normal';text-align:start;writing-mode:lr-tb;text-anchor:start"
               d="m 10722.222,-1084.6564 -205.071,0 q -59.812,0 -76.901,11.3929 -22.786,14.241 -35.603,74.05344 l -81.174,381.66013 -175.165,0 131.018,-615.21337 175.165,0 -15.666,76.9017 q 49.844,-76.9017 131.018,-76.9017 l 183.71,0 -31.331,148.1069 z" />
            <path
               inkscape:connector-curvature="0"
               id="path7169"
               style="font-style:normal;font-variant:normal;font-weight:normal;font-stretch:normal;font-size:1424.10498047px;line-height:125%;font-family:'Hemi Head 426';-inkscape-font-specification:'Hemi Head 426, Normal';text-align:start;writing-mode:lr-tb;text-anchor:start"
               d="m 11355.622,-482.25995 q -22.786,108.23197 -71.205,140.98639 -46.996,32.75441 -169.469,32.75441 l -424.383,0 31.33,-146.68281 358.875,0 q 59.812,0 76.901,-12.81694 22.786,-14.24105 35.603,-74.05346 l 115.352,-544.00814 -209.343,0 q -61.237,0 -78.326,11.3929 -22.786,15.6651 -34.178,74.0534 l -32.755,149.53106 q -5.696,31.33031 -5.696,45.57136 0,28.4821 29.906,37.02673 11.393,2.84821 52.692,2.84821 l 148.107,0 -31.331,146.68281 -215.039,0 q -98.264,0 -136.714,-18.51337 -38.451,-19.93747 -38.451,-76.90167 0,-29.9062 9.968,-78.32577 l 56.965,-266.30766 q 22.785,-108.2319 69.781,-140.9864 46.995,-34.1785 169.468,-34.1785 l 451.442,0 -159.5,751.92745 z" />
          </g>
        </g>
      </g>
      <g
         id="g7122"
         transform="translate(-4912,-3536)">
        <path
           style="color:#000000;font-style:normal;font-variant:normal;font-weight:normal;font-stretch:normal;font-size:medium;line-height:normal;font-family:Sans;-inkscape-font-specification:Sans;text-indent:0;text-align:start;text-decoration:none;text-decoration-line:none;letter-spacing:normal;word-spacing:normal;text-transform:none;direction:ltr;block-progression:tb;writing-mode:lr-tb;baseline-shift:baseline;text-anchor:start;display:inline;overflow:visible;visibility:visible;fill:#c40a4c;fill-opacity:1;stroke:none;stroke-width:25;marker:none;enable-background:accumulate"
           d="m 606.32254,757.73719 0,12.5 0,160 0,12.5 12.5,0 120,0 0,-25 -107.5,0 0,-135 87.5,0 c 8.1492,0 15.4575,0.213 21.5937,1.75 6.0677,1.5199 11.6483,4.5233 15.6563,8.5313 4.008,4.008 7.0114,9.5573 8.5312,15.625 1.5371,6.1362 1.7188,13.4445 1.7188,21.5937 l 0,80 c 0,8.1493 -0.1817,15.4575 -1.7188,21.5938 -1.5198,6.0676 -4.5232,11.6482 -8.5312,15.6562 -4.008,4.008 -9.5886,6.9802 -15.6563,8.5 -6.1362,1.5371 -13.4445,1.75 -21.5937,1.75 l -127.5,0 0,-175.0312 -25,0 0,187.5312 0,12.5 12.5,0 140,0 c 8.3757,0 17.794,-0.022 27.6875,-2.5 9.9621,-2.4953 19.5731,-7.4168 27.25,-15.0937 7.6769,-7.6769 12.5984,-17.2879 15.0937,-27.25 2.4782,-9.8935 2.4688,-19.2805 2.4688,-27.6563 l 0,-80 c 0,-8.3757 0.01,-17.7627 -2.4688,-27.6562 -2.4919,-9.9485 -7.4036,-19.5471 -15.0625,-27.2188 l -0.031,-0.031 c -7.6769,-7.6769 -17.2879,-12.5983 -27.25,-15.0937 -9.8935,-2.4782 -19.3117,-2.5 -27.6875,-2.5 l -100,0 -12.5,0 z"
           id="path7124"
           inkscape:connector-curvature="0"
           inkscape:export-filename="/tmp/xyz5.png"
           inkscape:export-xdpi="100"
           inkscape:export-ydpi="100"
           transform="matrix(7.0758805,0,0,7.0758805,-3706.1074,-5011.9263)" />
        <text
           sodipodi:linespacing="125%"
           id="text7126"
           y="1938.9448"
           x="4076.4023"
           style="font-style:normal;font-variant:normal;font-weight:normal;font-stretch:normal;font-size:408.55334473px;line-height:125%;font-family:'Good Times';-inkscape-font-specification:'Good Times';text-align:start;letter-spacing:0px;word-spacing:0px;writing-mode:lr-tb;text-anchor:start;display:inline;fill:#666666;fill-opacity:1;stroke:none"
           xml:space="preserve"><tspan
             y="1938.9448"
             x="4076.4023"
             id="tspan7128"
             sodipodi:role="line">Control your data</tspan></text>
        <text
           xml:space="preserve"
           style="font-style:normal;font-variant:normal;font-weight:normal;font-stretch:normal;font-size:1424.10498047px;line-height:125%;font-family:'Hemi Head 426';-inkscape-font-specification:'Hemi Head 426, Normal';text-align:start;letter-spacing:0px;word-spacing:0px;writing-mode:lr-tb;text-anchor:start;display:inline;fill:#666666;fill-opacity:1;stroke:none"
           x="2410.7139"
           y="1170.016"
           id="text7130"
           sodipodi:linespacing="125%"><tspan
             sodipodi:role="line"
             id="tspan7132"
             x="2410.7139"
             y="1170.016"
             style="font-style:normal;font-variant:normal;font-weight:normal;font-stretch:normal;font-size:1424.10498047px;line-height:125%;font-family:'Hemi Head 426';-inkscape-font-specification:'Hemi Head 426, Normal';text-align:start;writing-mode:lr-tb;text-anchor:start">datalad.org </tspan></text>
      </g>
    </g>
  </g>
</svg>
