<?xml version="1.0" encoding="UTF-8" standalone="no"?>
<svg
   viewBox="0 0 559.37007 793.70073"
   version="1.1"
   id="svg3149"
   sodipodi:docname="datalad_christmas.svg"
   inkscape:version="1.1.1 (c3084ef, 2021-09-22)"
   width="148mm"
   height="210mm"
   inkscape:export-filename="/Users/jsheunis/Desktop/datalad_christmas.png"
   inkscape:export-xdpi="299.96201"
   inkscape:export-ydpi="299.96201"
   xmlns:inkscape="http://www.inkscape.org/namespaces/inkscape"
   xmlns:sodipodi="http://sodipodi.sourceforge.net/DTD/sodipodi-0.dtd"
   xmlns="http://www.w3.org/2000/svg"
   xmlns:svg="http://www.w3.org/2000/svg">
  <defs
     id="defs3153" />
  <sodipodi:namedview
     id="namedview3151"
     pagecolor="#ffffff"
     bordercolor="#666666"
     borderopacity="1.0"
     inkscape:pageshadow="2"
     inkscape:pageopacity="1"
     inkscape:pagecheckerboard="0"
     showgrid="false"
     inkscape:zoom="1.1151847"
     inkscape:cx="304.88224"
     inkscape:cy="405.31404"
     inkscape:window-width="2169"
     inkscape:window-height="1176"
     inkscape:window-x="92"
     inkscape:window-y="70"
     inkscape:window-maximized="0"
     inkscape:current-layer="svg3149"
     units="mm"
     inkscape:document-units="mm" />
  <g
     id="g30602">
    <ellipse
       cx="280.94855"
       cy="692.79889"
       fill="#3f3d56"
       rx="59.630608"
       ry="8.1136456"
       id="ellipse3053-5"
       style="stroke-width:5.51573" />
    <path
       fill="#3f3d56"
       d="M 278.843,687.7786 V 101.03907 h 1.8146 V 687.7786 Z"
       id="path3095-9"
       style="stroke-width:1.46666667;stroke-miterlimit:4;stroke-dasharray:none;stroke:#3f3d56;stroke-opacity:1" />
    <circle
       cx="626.47626"
       cy="70.171631"
       r="19.753393"
       fill="#2f2e41"
       id="circle3099-1"
       transform="rotate(32.375452)"
       style="stroke-width:2.70003" />
    <path
       fill="#2f2e41"
       d="m 489.97762,422.43136 -5.56188,-2.26034 4.0455,-9.96082 5.56188,2.26034 z m -11.1192,-4.51778 -5.56188,-2.26033 4.04777,-9.95938 5.56189,2.26033 z"
       id="path3101-0"
       style="stroke-width:2.70003" />
    <ellipse
       cx="412.74869"
       cy="478.50684"
       fill="#2f2e41"
       rx="5.0004492"
       ry="1.8765185"
       transform="rotate(-7.8855472)"
       id="ellipse3103-1"
       style="stroke-width:2.70003" />
    <ellipse
       cx="422.9278"
       cy="484.38483"
       fill="#2f2e41"
       rx="5.0004492"
       ry="1.8765185"
       transform="rotate(-7.8855472)"
       id="ellipse3105-9"
       style="stroke-width:2.70003" />
    <circle
       cx="625.09381"
       cy="65.338577"
       r="6.7527661"
       fill="#ffffff"
       id="circle3107-5"
       transform="rotate(32.375452)"
       style="stroke-width:2.70003" />
    <circle
       cx="624.98309"
       cy="65.708488"
       r="2.2518222"
       fill="#3f3d56"
       id="circle3109-7"
       transform="rotate(32.375452)"
       style="stroke-width:2.70003" />
    <path
       fill="#fba304"
       d="m 516.18961,384.91591 c 4.16887,-6.02065 2.16091,-14.62759 -4.48234,-19.22637 -6.64179,-4.60105 -15.4032,-3.44869 -19.56918,2.5674 -4.16743,6.01837 -0.31805,10.42508 6.32374,15.02613 6.64324,4.59878 13.5618,7.64893 17.72923,1.63056 z"
       id="path3111-6"
       style="stroke-width:2.70003" />
    <ellipse
       cx="71.004402"
       cy="607.73364"
       fill="#2f2e41"
       rx="3.0996306"
       ry="9.8766966"
       transform="rotate(-44.714548)"
       id="ellipse3113-8"
       style="stroke-width:2.70003" />
    <ellipse
       cx="73.383125"
       cy="646.9704"
       fill="#2f2e41"
       rx="3.0996306"
       ry="9.8766966"
       transform="rotate(-44.714548)"
       id="ellipse3115-5"
       style="stroke-width:2.70003" />
    <path
       fill="#ffffff"
       d="m 480.79886,400.72929 a 6.6825658,5.7348564 5.1254528 1 1 12.28118,4.78774 c -1.44538,2.8848 -4.49444,2.40946 -7.88576,1.08731 -3.38988,-1.32442 -5.83936,-2.99253 -4.39542,-5.87505 z"
       id="path3117-4"
       style="stroke-width:2.70003" />
    <path
       fill="none"
       stroke="#3f3d56"
       stroke-miterlimit="10"
       stroke-width="1.12159"
       d="m 471.30144,347.63239 0.68168,28.6742"
       id="path3119-7" />
    <circle
       cx="280.89633"
       cy="-78.278061"
       r="19.895712"
       fill="#ff6584"
       id="circle3121-9"
       transform="rotate(32.375453)"
       style="stroke-width:3.15905" />
    <path
       fill="#3f3d56"
       d="m 518.36484,503.70559 -95.69299,70.32251 a 2.3780491,2.3780491 0 0 1 -3.3218,-0.50414 l -13.25379,-18.03538 0.76724,-0.56383 13.25377,18.03539 a 1.4259269,1.4259269 0 0 0 1.99344,0.30447 L 517.8037,502.942 a 1.4259269,1.4259269 0 0 0 0.30463,-1.99342 l -13.34729,-18.16265 0.76359,-0.56114 13.3473,18.16264 a 2.3780491,2.3780491 0 0 1 -0.50706,3.31817 z"
       id="path3093"
       style="stroke:#3f3d56;stroke-width:1.46666667;stroke-miterlimit:4;stroke-dasharray:none;stroke-opacity:1" />
    <path
       fill="#3f3d56"
       d="m 279.44312,647.70513 258.58135,-189.28726 0.64502,0.88115 -258.58135,189.2873 z"
       id="path3095"
       style="stroke:#3f3d56;stroke-width:1.46666667;stroke-miterlimit:4;stroke-dasharray:none;stroke-opacity:1" />
    <circle
       cx="-32.604977"
       cy="688.16876"
       r="8.1765184"
       fill="#fba304"
       data-name="Ellipse 266"
       id="circle3125"
       transform="rotate(-36.204956)"
       style="stroke-width:4.51243" />
    <circle
       cx="22.880869"
       cy="-712.62274"
       r="8.1765184"
       fill="#3f3d56"
       data-name="Ellipse 268"
       id="circle3127"
       transform="matrix(0.80581169,-0.59217186,-0.59217186,-0.80581169,0,0)"
       style="stroke-width:4.51243" />
    <circle
       cx="65.739807"
       cy="-712.62274"
       r="8.1765184"
       fill="#cccccc"
       data-name="Ellipse 269"
       id="circle3129"
       transform="matrix(0.80581169,-0.59217186,-0.59217186,-0.80581169,0,0)"
       style="stroke-width:4.51243" />
    <circle
       cx="44.973663"
       cy="-688.89642"
       r="8.1765184"
       fill="#fba304"
       data-name="Ellipse 270"
       id="circle3131"
       transform="matrix(0.80581169,-0.59217186,-0.59217186,-0.80581169,0,0)"
       style="fill:#ff6584;fill-opacity:1;stroke-width:4.51243" />
    <circle
       cx="162.24167"
       cy="688.16876"
       r="8.1765184"
       fill="#fba304"
       data-name="Ellipse 271"
       id="circle3133"
       transform="rotate(-36.204956)"
       style="stroke-width:4.51243" />
    <circle
       cx="121.32393"
       cy="-688.89642"
       r="8.1765184"
       fill="#fba304"
       data-name="Ellipse 272"
       id="circle3135"
       transform="matrix(0.80581169,-0.59217186,-0.59217186,-0.80581169,0,0)"
       style="stroke-width:4.51243" />
    <path
       fill="#3f3d56"
       d="m 333.92313,609.08842 a 0.47380486,0.47380486 0 0 1 -0.66217,-0.10259 l -13.85732,-18.93016 a 2.3780491,2.3780491 0 0 1 0.51324,-3.31722 l 18.66437,-13.66275 a 0.47380982,0.47380982 0 0 1 0.55973,0.76464 l -18.66437,13.6627 a 1.4259269,1.4259269 0 0 0 -0.30833,1.99283 l 13.85731,18.93023 a 0.47380486,0.47380486 0 0 1 -0.10243,0.66216 z"
       id="path3137"
       style="stroke:#3f3d56;stroke-width:1.46666667;stroke-miterlimit:4;stroke-dasharray:none;stroke-opacity:1" />
    <circle
       cx="-64.210022"
       cy="662.70966"
       r="8.1765184"
       fill="#e6e6e6"
       data-name="Ellipse 265"
       id="circle3139"
       transform="rotate(-36.204956)"
       style="stroke-width:4.51243" />
    <path
       fill="#3f3d56"
       d="m 135.66019,512.95023 95.82331,70.1448 a 2.3780491,2.3780491 0 0 1 0.51688,3.31986 l -13.22028,18.05995 -0.76828,-0.56238 13.22028,-18.05995 a 1.4259269,1.4259269 0 0 0 -0.30832,-1.99283 l -95.82332,-70.14483 a 1.4259269,1.4259269 0 0 0 -1.99284,0.30833 l -13.3136,18.18739 -0.76465,-0.55973 13.31361,-18.18739 a 2.3780491,2.3780491 0 0 1 3.31721,-0.51324 z"
       id="path3093-5"
       style="stroke:#3f3d56;stroke-width:1.46666667;stroke-miterlimit:4;stroke-dasharray:none;stroke-opacity:1" />
    <path
       fill="#3f3d56"
       d="M 279.44313,647.70513 20.861762,458.41787 l -0.64501,0.88115 258.581348,189.2873 z"
       id="path3095-2"
       style="stroke:#3f3d56;stroke-width:1.46666667;stroke-miterlimit:4;stroke-dasharray:none;stroke-opacity:1" />
    <circle
       cx="-466.13693"
       cy="334.00311"
       r="8.1765184"
       fill="#cccccc"
       data-name="Ellipse 269"
       id="circle3129-3"
       transform="matrix(-0.80690922,-0.59067547,-0.59067547,0.80690922,0,0)"
       style="stroke-width:4.51243" />
    <circle
       cx="-486.90308"
       cy="357.72946"
       r="8.1765184"
       fill="#fba304"
       data-name="Ellipse 270"
       id="circle3131-7"
       transform="matrix(-0.80690922,-0.59067547,-0.59067547,0.80690922,0,0)"
       style="stroke-width:4.51243" />
    <circle
       cx="-288.72879"
       cy="358.0484"
       r="8.1765184"
       fill="#fba304"
       data-name="Ellipse 271"
       id="circle3133-9"
       transform="matrix(-0.80690922,-0.59067547,-0.59067547,0.80690922,0,0)"
       style="stroke-width:4.51243" />
    <path
       fill="#3f3d56"
       d="m 260.81531,633.76428 a 0.47380486,0.47380486 0 0 1 0.10712,0.66139 l -13.7229,19.02785 a 2.3780491,2.3780491 0 0 1 -3.31351,0.53668 l -18.76066,-13.53021 a 0.47380712,0.47380712 0 0 1 0.5543,-0.76856 l 18.76067,13.53021 a 1.4259269,1.4259269 0 0 0 1.9906,-0.32267 l 13.72291,-19.02785 a 0.47380486,0.47380486 0 0 1 0.66143,-0.10701 z"
       id="path3137-2"
       style="stroke:#3f3d56;stroke-width:1.46666667;stroke-miterlimit:4;stroke-dasharray:none;stroke-opacity:1" />
    <circle
       cx="-556.14014"
       cy="-387.47513"
       fill="#e6e6e6"
       data-name="Ellipse 265"
       id="circle3139-3"
       transform="rotate(-144.20081)"
       style="fill:#3f3d56;fill-opacity:1;stroke-width:4.51243"
       r="8.1765184" />
    <path
       fill="#3f3d56"
       d="m 99.417239,517.42973 0.764591,0.55974 -13.854643,18.92653 c -0.77474,1.05833 -2.260072,1.28959 -3.319865,0.51688 l -40.727301,-30.10732 0.559737,-0.76464 40.727301,30.10732 c 0.636902,0.46625 1.531333,0.32637 1.995537,-0.31197 z"
       id="path3141-9"
       style="stroke:#3f3d56;stroke-width:1.46666667;stroke-miterlimit:4;stroke-dasharray:none;stroke-opacity:1"
       sodipodi:nodetypes="ccscccccc" />
    <circle
       cx="-332.69345"
       cy="382.73138"
       r="8.1765184"
       fill="#e6e6e6"
       data-name="Ellipse 265"
       id="circle3143-9"
       transform="matrix(-0.80690922,-0.59067547,-0.59067547,0.80690922,0,0)"
       style="fill:#ff6584;fill-opacity:1;stroke-width:4.51243" />
    <path
       fill="#3f3d56"
       d="m 139.14175,353.45787 95.8233,70.14481 a 2.3780491,2.3780491 0 0 1 0.51688,3.31988 l -13.22027,18.05995 -0.76829,-0.56239 13.22029,-18.05995 a 1.4259269,1.4259269 0 0 0 -0.30833,-1.99287 l -95.82332,-70.1448 a 1.4259269,1.4259269 0 0 0 -1.99289,0.30832 l -13.31355,18.18739 -0.76465,-0.55973 13.31361,-18.18739 a 2.3780491,2.3780491 0 0 1 3.31722,-0.51324 z"
       id="path3093-5-3"
       style="stroke:#3f3d56;stroke-width:1.46666667;stroke-miterlimit:4;stroke-dasharray:none;stroke-opacity:1" />
    <path
       fill="#3f3d56"
       d="M 281.17874,486.66345 90.36305,346.98217 89.887043,347.6324 280.7027,487.31367 Z"
       id="path3095-2-9"
       style="stroke:#3f3d56;stroke-width:1.46666667;stroke-miterlimit:4;stroke-dasharray:none;stroke-opacity:1" />
    <circle
       cx="-417.59708"
       cy="203.25096"
       r="8.1765184"
       fill="#3f3d56"
       data-name="Ellipse 268"
       id="circle3127-7-6"
       transform="matrix(-0.80690922,-0.59067547,-0.59067547,0.80690922,0,0)"
       style="stroke-width:4.51243" />
    <circle
       cx="-374.73801"
       cy="203.25096"
       r="8.1765184"
       fill="#cccccc"
       data-name="Ellipse 269"
       id="circle3129-3-5"
       transform="matrix(-0.80690922,-0.59067547,-0.59067547,0.80690922,0,0)"
       style="stroke-width:4.51243" />
    <circle
       cx="-279.12411"
       cy="226.97731"
       r="8.1765184"
       fill="#fba304"
       data-name="Ellipse 271"
       id="circle3133-9-6"
       transform="matrix(-0.80690922,-0.59067547,-0.59067547,0.80690922,0,0)"
       style="stroke-width:4.51243" />
    <circle
       cx="-319.1539"
       cy="226.97731"
       r="8.1765184"
       fill="#fba304"
       data-name="Ellipse 272"
       id="circle3135-0-2"
       transform="matrix(-0.80690922,-0.59067547,-0.59067547,0.80690922,0,0)"
       style="stroke-width:4.51243" />
    <path
       fill="#3f3d56"
       d="m 147.02466,389.54946 0.76463,0.55973 -13.85467,18.92654 a 2.3780491,2.3780491 0 0 1 -3.31987,0.51688 l -18.66436,-13.66275 0.55974,-0.76463 18.66436,13.66273 a 1.4259269,1.4259269 0 0 0 1.99554,-0.31197 z"
       id="path3141-9-3"
       style="stroke:#3f3d56;stroke-width:1.46666667;stroke-miterlimit:4;stroke-dasharray:none;stroke-opacity:1" />
    <circle
       cx="-323.08881"
       cy="251.66029"
       r="8.1765184"
       fill="#e6e6e6"
       data-name="Ellipse 265"
       id="circle3143-9-9"
       transform="matrix(-0.80690922,-0.59067547,-0.59067547,0.80690922,0,0)"
       style="stroke-width:4.51243" />
    <path
       fill="#3f3d56"
       d="m 222.61608,442.96793 0.76463,0.55973 -13.85467,18.92654 a 2.3780491,2.3780491 0 0 1 -3.31987,0.51688 l -18.66436,-13.66275 0.55974,-0.76463 18.66436,13.66274 a 1.4259269,1.4259269 0 0 0 1.99554,-0.31197 z"
       id="path3141-9-3-7"
       style="stroke:#3f3d56;stroke-width:1.46666667;stroke-miterlimit:4;stroke-dasharray:none;stroke-opacity:1" />
    <circle
       cx="-415.63724"
       cy="250.11414"
       r="8.1765184"
       fill="#e6e6e6"
       data-name="Ellipse 265"
       id="circle3143-9-9-8"
       transform="matrix(-0.80690922,-0.59067547,-0.59067547,0.80690922,0,0)"
       style="fill:#ff6584;fill-opacity:1;stroke-width:4.51243" />
    <path
       fill="#3f3d56"
       d="m 400.2007,369.05331 -73.76036,54.54937 c -1.05835,0.77472 -1.2896,2.26007 -0.51688,3.31988 l 13.22027,18.05995 0.76829,-0.56239 -13.22029,-18.05995 c -0.4652,-0.63546 -0.32714,-1.5277 0.30833,-1.99287 l 73.76038,-54.54936 c 0.63546,-0.4652 1.52772,-0.32714 1.99289,0.30833 l 13.31355,18.18738 0.76465,-0.55973 -13.31361,-18.18739 c -0.77569,-1.05545 -3.31722,-1.82308 -3.31722,-0.51324 z"
       id="path3093-5-3-1"
       style="stroke:#3f3d56;stroke-width:1.46666667;stroke-miterlimit:4;stroke-dasharray:none;stroke-opacity:1"
       sodipodi:nodetypes="ccccccccccccsc" />
    <path
       fill="#3f3d56"
       d="M 280.22665,486.66345 471.04234,346.98217 471.51835,347.6324 280.7027,487.31367 Z"
       id="path3095-2-9-7"
       style="stroke:#3f3d56;stroke-width:1.46666667;stroke-miterlimit:4;stroke-dasharray:none;stroke-opacity:1" />
    <circle
       cx="35.406147"
       cy="534.85931"
       r="8.1765184"
       fill="#3f3d56"
       data-name="Ellipse 268"
       id="circle3127-7-6-2"
       transform="rotate(-36.204956)"
       style="stroke-width:4.51243" />
    <path
       fill="#3f3d56"
       d="m 328.0595,242.63026 -29.63449,21.45496 c -1.05834,0.77472 -1.2896,2.26007 -0.51688,3.31988 l 13.22028,18.05995 0.76828,-0.56239 -13.22028,-18.05995 c -0.4652,-0.63546 -0.32714,-1.5277 0.30833,-1.99287 l 29.6345,-21.45496 c 0.63546,-0.46519 1.52772,-0.32713 1.99289,0.30833 l 13.31355,18.18739 0.76464,-0.55973 -13.3136,-18.18739 c -0.77569,-1.05546 -3.31722,-1.82308 -3.31722,-0.51324 z"
       id="path3093-5-3-1-0"
       style="stroke:#3f3d56;stroke-width:1.46666667;stroke-miterlimit:4;stroke-dasharray:none;stroke-opacity:1"
       sodipodi:nodetypes="ccccccccccccsc" />
    <circle
       cx="105.17493"
       cy="389.6167"
       r="8.1765184"
       fill="#3f3d56"
       data-name="Ellipse 268"
       id="circle3127-7-6-2-8"
       transform="rotate(-36.204956)"
       style="stroke-width:4.51243" />
    <circle
       cx="57.49905"
       cy="558.58569"
       r="8.1765184"
       fill="#fba304"
       data-name="Ellipse 270"
       id="circle3131-7-7-6"
       transform="rotate(-36.204956)"
       style="stroke-width:4.51243" />
    <circle
       cx="173.87906"
       cy="558.58569"
       r="8.1765184"
       fill="#fba304"
       data-name="Ellipse 271"
       id="circle3133-9-6-5"
       transform="rotate(-36.204956)"
       style="stroke-width:4.51243" />
    <path
       fill="#3f3d56"
       d="m 294.3218,476.95236 -0.76463,0.55973 13.85467,18.92654 c 0.77473,1.05833 2.26006,1.28959 3.31987,0.51688 l 106.91611,-79.42708 -0.55973,-0.76463 -106.91612,79.42707 c -0.63688,0.46624 -1.53135,0.32636 -1.99554,-0.31197 z"
       id="path3141-9-3-8"
       style="stroke:#3f3d56;stroke-width:1.46666667;stroke-miterlimit:4;stroke-dasharray:none;stroke-opacity:1"
       sodipodi:nodetypes="ccscccccc" />
    <circle
       cx="90.356583"
       cy="584.24658"
       r="8.1765184"
       fill="#e6e6e6"
       data-name="Ellipse 265"
       id="circle3143-9-9-1"
       transform="rotate(-36.204956)"
       style="stroke-width:4.51243" />
    <ellipse
       cx="-697.16235"
       cy="-147.91005"
       fill="#2f2e41"
       rx="9.2097168"
       ry="2.8927014"
       transform="matrix(-0.35703147,-0.93409236,-0.93409236,0.35703147,0,0)"
       id="ellipse3049-0-7"
       style="stroke-width:3.66629" />
    <circle
       cx="-397.80045"
       cy="665.23755"
       fill="#2f2e41"
       id="circle3055-6-1"
       style="fill:#808080;fill-opacity:1;stroke-width:3.66629"
       r="18.419434"
       transform="scale(-1,1)" />
    <path
       fill="#2f2e41"
       d="m 406.19255,679.69369 h -5.59476 v 10.02363 h 5.59476 z m -11.18952,0 h -5.59475 v 10.02363 h 5.59475 z"
       id="path3057-5-4"
       style="fill:#808080;fill-opacity:1;stroke-width:3.66629" />
    <ellipse
       cx="-401.52905"
       cy="689.83466"
       fill="#2f2e41"
       rx="4.6635189"
       ry="1.7488196"
       id="ellipse3059-3-8"
       style="fill:#808080;fill-opacity:1;stroke-width:3.66629"
       transform="scale(-1,1)" />
    <ellipse
       cx="-390.3396"
       cy="689.6037"
       fill="#2f2e41"
       rx="4.6635189"
       ry="1.7488196"
       id="ellipse3061-8-1"
       style="fill:#808080;fill-opacity:1;stroke-width:3.66629"
       transform="scale(-1,1)" />
    <circle
       cx="-397.33484"
       cy="660.57404"
       fill="#ffffff"
       id="circle3063-5-8"
       style="fill:#ffffff;fill-opacity:1;stroke-width:3.66629"
       r="6.2950177"
       transform="scale(-1,1)" />
    <circle
       cx="-397.33484"
       cy="660.57404"
       fill="#3f3d56"
       id="circle3065-1-5"
       style="fill:#3f3d56;fill-opacity:1;stroke-width:3.66629"
       r="2.0971172"
       transform="scale(-1,1)" />
    <path
       fill="#fba304"
       d="m 415.66625,648.10861 c 1.4885,-6.65794 -3.26301,-13.38928 -10.61761,-15.03176 -7.35088,-1.64247 -14.51851,2.42709 -16.00333,9.08872 -1.4885,6.65799 3.38399,9.11442 10.73487,10.75689 7.35093,1.64248 14.4012,1.84783 15.88607,-4.81385 z"
       id="path3067-2-3"
       style="stroke-width:3.66629" />
    <circle
       cx="-404.09543"
       cy="612.31464"
       fill="#2f2e41"
       id="circle3069-4-1"
       style="stroke-width:3.66629"
       r="18.419434"
       transform="scale(-1,1)" />
    <path
       fill="#2f2e41"
       d="m 412.48757,626.76718 h -5.59476 v 10.02364 h 5.59476 z m -11.18952,0 h -5.59476 v 10.02364 h 5.59476 z"
       id="path3071-6-9"
       style="stroke-width:3.66629" />
    <ellipse
       cx="-407.8241"
       cy="636.91174"
       fill="#2f2e41"
       rx="4.6635189"
       ry="1.7488196"
       id="ellipse3073-7-3"
       style="stroke-width:3.66629"
       transform="scale(-1,1)" />
    <ellipse
       cx="-396.63464"
       cy="636.67712"
       fill="#2f2e41"
       rx="4.6635189"
       ry="1.7488196"
       id="ellipse3075-5-9"
       style="stroke-width:3.66629"
       transform="scale(-1,1)" />
    <circle
       cx="-403.62988"
       cy="607.65118"
       fill="#ffffff"
       id="circle3077-5-1"
       style="stroke-width:3.66629"
       r="6.2950177"
       transform="scale(-1,1)" />
    <circle
       cx="-403.62988"
       cy="603.65491"
       fill="#3f3d56"
       id="circle3079-0-0"
       style="stroke-width:3.66629"
       r="2.0971172"
       transform="scale(-1,1)" />
    <path
       fill="#fba304"
       d="m 421.96125,595.18574 c 1.48851,-6.66163 -3.263,-13.39292 -10.6176,-15.03176 -7.35088,-1.64253 -14.51846,2.42709 -16.00333,9.08508 -1.4885,6.66163 3.38399,9.11806 10.73487,10.76054 7.35092,1.63883 14.4012,1.84413 15.88606,-4.81386 z"
       id="path3081-5-4"
       style="stroke-width:3.66629" />
    <ellipse
       cx="-727.57367"
       cy="-125.12701"
       fill="#2f2e41"
       rx="2.8927014"
       ry="9.2097168"
       transform="matrix(-0.42852517,-0.90352984,-0.90352984,0.42852517,0,0)"
       id="ellipse3083-2-9"
       style="stroke-width:3.66629" />
    <path
       fill="#ffffff"
       d="m 391.93068,618.65734 c 0.37375,-1.75985 5.65707,-4.27491 10.69458,-3.20436 5.03746,1.07424 8.70373,7.04662 8.3261,8.81011 -0.37374,1.7598 -4.64885,-1.3492 -9.68631,-2.42345 -5.03751,-1.07418 -9.71199,-1.41881 -9.33437,-3.1823 z"
       id="path3085-0-0"
       style="stroke-width:3.66629" />
    <path
       fill="#3f3d56"
       d="m 170.72262,229.71096 v 34.93531 h -1.39184 v -34.93531 z"
       id="path43152-1-8-2-5-5-7-7-0"
       style="fill:#2f2e41;fill-opacity:1;stroke-width:5.75186"
       sodipodi:nodetypes="ccccc" />
    <path
       fill="#3f3d56"
       d="m 279.3358,309.10183 -108.96144,-79.76217 -0.27182,0.37132 108.96142,79.76217 z"
       id="path3095-2-9-1"
       style="stroke:#3f3d56;stroke-width:1.46666667;stroke-miterlimit:4;stroke-dasharray:none;stroke-opacity:1" />
    <circle
       cx="-367.3793"
       cy="83.98587"
       r="8.1765184"
       fill="#fba304"
       data-name="Ellipse 270"
       id="circle3131-7-7-4"
       transform="matrix(-0.80690922,-0.59067547,-0.59067547,0.80690922,0,0)"
       style="stroke-width:4.51243" />
    <circle
       cx="-314.39203"
       cy="84.669174"
       r="8.1765184"
       fill="#fba304"
       data-name="Ellipse 272"
       id="circle3135-0-2-0"
       transform="matrix(-0.80690922,-0.59067547,-0.59067547,0.80690922,0,0)"
       style="fill:#ff6584;fill-opacity:1;stroke-width:4.51243" />
    <path
       fill="#3f3d56"
       d="m 227.24016,271.90695 0.76463,0.55973 -13.85467,18.92654 a 2.3780491,2.3780491 0 0 1 -3.31986,0.51688 l -18.66437,-13.66275 0.55974,-0.76464 18.66436,13.66275 a 1.4259269,1.4259269 0 0 0 1.99554,-0.31197 z"
       id="path3141-9-3-4"
       style="stroke:#3f3d56;stroke-width:1.46666667;stroke-miterlimit:4;stroke-dasharray:none;stroke-opacity:1" />
    <circle
       cx="-318.3269"
       cy="109.35217"
       r="8.1765184"
       fill="#e6e6e6"
       data-name="Ellipse 265"
       id="circle3143-9-9-6"
       transform="matrix(-0.80690922,-0.59067547,-0.59067547,0.80690922,0,0)"
       style="stroke-width:4.51243" />
    <path
       fill="#3f3d56"
       d="m 279.20215,184.49501 -51.27806,-38.01215 -0.12791,0.17694 51.27805,38.01215 z"
       id="path3095-2-9-1-1"
       style="stroke:#3f3d56;stroke-width:1.73333333;stroke-miterlimit:4;stroke-dasharray:none;stroke-opacity:1" />
    <circle
       cx="-272.25781"
       cy="-16.222609"
       r="8.1765184"
       fill="#fba304"
       data-name="Ellipse 271"
       id="circle3133-9-6-8-5"
       transform="matrix(-0.80690922,-0.59067547,-0.59067547,0.80690922,0,0)"
       style="stroke-width:4.51243" />
    <path
       fill="#3f3d56"
       d="m 279.07423,184.67195 51.27806,-38.01215 0.12791,0.17695 -51.27805,38.01215 z"
       id="path3095-2-9-1-1-8"
       style="stroke:#3f3d56;stroke-width:1.73333333;stroke-miterlimit:4;stroke-dasharray:none;stroke-opacity:1" />
    <circle
       cx="178.11601"
       cy="313.68033"
       r="8.1765184"
       fill="#fba304"
       data-name="Ellipse 271"
       id="circle3133-9-6-8-5-5"
       transform="rotate(-36.204956)"
       style="stroke-width:4.51243" />
    <circle
       cx="138.08624"
       cy="313.68033"
       r="8.1765184"
       fill="#fba304"
       data-name="Ellipse 272"
       id="circle3135-0-2-0-5-8"
       transform="rotate(-36.204956)"
       style="fill:#ff6584;fill-opacity:1;stroke-width:4.51243" />
    <path
       fill="#3f3d56"
       d="m 279.3358,309.10183 108.96144,-79.76217 0.27181,0.37132 -108.96142,79.76216 z"
       id="path3095-2-9-1-7"
       style="stroke:#3f3d56;stroke-width:1.46666667;stroke-miterlimit:4;stroke-dasharray:none;stroke-opacity:1" />
    <circle
       cx="176.43501"
       cy="414.66281"
       r="8.1765184"
       fill="#fba304"
       data-name="Ellipse 271"
       id="circle3133-9-6-8-7"
       transform="rotate(-36.204956)"
       style="stroke-width:4.51243" />
    <path
       fill="#3f3d56"
       d="m 331.43143,271.90695 -0.76463,0.55973 13.85467,18.92653 a 2.3780491,2.3780491 0 0 0 3.31987,0.51688 l 18.66436,-13.66274 -0.55974,-0.76464 -18.66436,13.66274 a 1.4259269,1.4259269 0 0 1 -1.99554,-0.31197 z"
       id="path3141-9-3-4-4"
       style="stroke:#3f3d56;stroke-width:1.46666667;stroke-miterlimit:4;stroke-dasharray:none;stroke-opacity:1" />
    <circle
       cx="132.47035"
       cy="439.34573"
       r="8.1765184"
       fill="#e6e6e6"
       data-name="Ellipse 265"
       id="circle3143-9-9-6-4"
       transform="rotate(-36.204956)"
       style="stroke-width:4.51243" />
    <path
       fill="#3f3d56"
       d="m 262.74365,172.26258 0.77283,0.54838 -13.57295,19.12957 a 2.3780491,2.3780491 0 0 1 -3.31185,0.56597 l -18.86459,-13.38492 0.54837,-0.77283 18.8646,13.38491 a 1.4259269,1.4259269 0 0 0 1.9907,-0.34147 z"
       id="path3141-9-3-4-4-6"
       style="stroke:#3f3d56;stroke-width:1.46666667;stroke-miterlimit:4;stroke-dasharray:none;stroke-opacity:1" />
    <circle
       cx="-288.32291"
       cy="12.624131"
       r="8.1765184"
       fill="#e6e6e6"
       data-name="Ellipse 265"
       id="circle3143-9-9-6-4-1"
       transform="matrix(-0.81556567,-0.57866453,-0.57866453,0.81556567,0,0)"
       style="stroke-width:4.51243" />
    <circle
       cx="18.741392"
       cy="317.33197"
       r="16.117899"
       fill="#2f2e41"
       id="circle43156-7-4-0-6-7-8-7"
       transform="matrix(-0.84455742,0.53546499,0.53546499,0.84455742,0,0)"
       style="fill:#3f3d56;fill-opacity:1;stroke-width:2.20309" />
    <path
       fill="#2f2e41"
       d="m 149.11655,298.89457 4.8865,-0.34749 -0.62046,-8.75029 -4.88612,0.34755 z m 9.76842,-0.69388 4.8865,-0.34749 -0.62245,-8.74966 -4.88633,0.3471 z"
       id="path43158-3-20-4-3-3-9-6"
       style="fill:#3f3d56;fill-opacity:1;stroke-width:2.20309" />
    <ellipse
       cx="-276.76852"
       cy="197.73898"
       fill="#2f2e41"
       rx="4.0801463"
       ry="1.5311565"
       transform="matrix(-0.89928784,-0.43735726,-0.43735726,0.89928784,0,0)"
       id="ellipse43160-2-7-0-3-0-5-8"
       style="fill:#3f3d56;fill-opacity:1;stroke-width:2.20309" />
    <ellipse
       cx="-268.46246"
       cy="202.53534"
       fill="#2f2e41"
       rx="4.0801463"
       ry="1.5311565"
       transform="matrix(-0.89928784,-0.43735726,-0.43735726,0.89928784,0,0)"
       id="ellipse43162-8-1-4-6-8-0-2"
       style="fill:#3f3d56;fill-opacity:1;stroke-width:2.20309" />
    <circle
       cx="17.613644"
       cy="313.38879"
       r="5.5099597"
       fill="#ffffff"
       id="circle43164-8-8-4-1-0-6-9"
       transform="matrix(-0.84455742,0.53546499,0.53546499,0.84455742,0,0)"
       style="stroke-width:2.20309" />
    <circle
       cx="14.043347"
       cy="312.27713"
       r="1.8373874"
       fill="#3f3d56"
       id="circle43166-9-0-3-4-2-9-9"
       transform="matrix(-0.84455742,0.53546499,0.53546499,0.84455742,0,0)"
       style="stroke-width:2.20309" />
    <path
       fill="#fba304"
       d="m 133.9629,270.04191 c -3.40134,-4.91222 -1.763,-11.93522 3.65754,-15.68764 5.41921,-3.75436 12.56848,-2.81407 15.96733,2.09491 3.40056,4.91061 0.26089,8.5062 -5.15975,12.26064 -5.42053,3.7524 -11.06583,6.24106 -14.46628,1.33049 z"
       id="path43168-3-1-4-0-1-4-8"
       style="stroke-width:2.20309" />
    <ellipse
       cx="-305.58499"
       cy="74.002609"
       fill="#2f2e41"
       rx="2.5291619"
       ry="8.0589504"
       transform="matrix(-0.71062087,-0.70357514,-0.70357514,0.71062087,0,0)"
       id="ellipse43170-8-4-3-9-3-9-3"
       style="fill:#3f3d56;fill-opacity:1;stroke-width:2.20309" />
    <ellipse
       cx="-303.64368"
       cy="106.01812"
       fill="#2f2e41"
       rx="2.5291619"
       ry="8.0589504"
       transform="matrix(-0.71062087,-0.70357514,-0.70357514,0.71062087,0,0)"
       id="ellipse43172-3-72-7-7-1-5-7"
       style="fill:#3f3d56;fill-opacity:1;stroke-width:2.20309" />
    <path
       fill="#ffffff"
       d="m 162.93291,282.89509 c 2.29069,6.10789 -10.6458,9.19777 -14.71548,5.15143 -2.64501,-4.37686 -2.01639,-3.4907 6.40096,-3.88209 3.30359,-1.17615 7.44017,-3.77555 8.31452,-1.26934 z"
       id="path43174-0-1-2-1-1-7-1"
       style="stroke-width:2.40985"
       sodipodi:nodetypes="cccc" />
    <g
       id="g13847"
       transform="matrix(1.1258272,0,0,1.1258272,347.0337,-131.83752)">
      <circle
         cx="58.67572"
         cy="153.38338"
         r="18.111485"
         fill="#2f2e41"
         id="circle43112-5-2-6-2-0-5"
         style="fill:#808080;fill-opacity:1;stroke-width:3.60503"
         transform="scale(-1,1)" />
      <path
         fill="#2f2e41"
         d="m -50.423994,167.59778 h -5.50137 v 9.85591 h 5.50137 z m -11.00228,0 h -5.50093 v 9.85591 h 5.50093 z"
         id="path43114-8-2-8-4-3-0"
         style="fill:#808080;fill-opacity:1;stroke-width:3.60503" />
      <ellipse
         cx="55.009537"
         cy="177.56927"
         fill="#2f2e41"
         rx="4.5855508"
         ry="1.7195817"
         id="ellipse43116-6-2-5-9-8-8"
         style="fill:#808080;fill-opacity:1;stroke-width:3.60503"
         transform="scale(-1,1)" />
      <ellipse
         cx="66.012085"
         cy="177.34227"
         fill="#2f2e41"
         rx="4.5855508"
         ry="1.7195817"
         id="ellipse43118-5-6-9-8-9-7"
         style="fill:#808080;fill-opacity:1;stroke-width:3.60503"
         transform="scale(-1,1)" />
      <ellipse
         cx="-61.287159"
         cy="146.24646"
         fill="#2f2e41"
         rx="8.1721706"
         ry="2.9722717"
         id="ellipse43118-5-6-9-8-9-7-9"
         style="fill:#808080;fill-opacity:1;stroke-width:6.32725"
         transform="matrix(-0.55680668,-0.83064211,-0.76867183,0.63964335,0,0)" />
      <ellipse
         cx="-103.45119"
         cy="101.59222"
         fill="#2f2e41"
         rx="8.1721706"
         ry="2.9722717"
         id="ellipse43118-5-6-9-8-9-7-9-3"
         style="fill:#808080;fill-opacity:1;stroke-width:6.32725"
         transform="matrix(0.82611134,-0.56350692,0.47514341,0.87990837,0,0)"
         inkscape:transform-center-x="-1.6170141"
         inkscape:transform-center-y="-2.6950235" />
      <circle
         cx="59.133575"
         cy="148.79753"
         r="6.1897731"
         fill="#ffffff"
         id="circle43120-0-2-9-8-6-3"
         style="stroke-width:3.60503"
         transform="scale(-1,1)" />
      <circle
         cx="59.133575"
         cy="148.79753"
         r="2.0620563"
         fill="#3f3d56"
         id="circle43122-0-14-6-8-3-6"
         style="stroke-width:3.60503"
         transform="scale(-1,1)" />
      <path
         fill="#fba304"
         d="m -41.108364,136.54078 c 1.46349,-6.54698 -3.20858,-13.16531 -10.43995,-14.78065 -7.22853,-1.61489 -14.27626,2.38666 -15.73603,8.93687 -1.46349,6.54653 3.32733,8.96219 10.55544,10.57707 7.22809,1.61489 14.16026,1.81692 15.62054,-4.73329 z"
         id="path43124-0-06-9-7-3-7"
         style="stroke-width:3.60503" />
      <path
         fill="#ffffff"
         d="m -67.632852,161.24231 c 0.74511,6.21105 16.877135,10.35221 18.146788,-1.67294 -0.37251,-2.50586 -3.871108,0.29044 -8.525892,1.23641 -7.708885,-1.02024 -9.995026,-2.06658 -9.620896,0.43653 z"
         id="path43174-0-1-2-9-7-3-5"
         style="stroke-width:2.50095"
         sodipodi:nodetypes="cccc" />
    </g>
    <g
       id="layer8"
       inkscape:label="durr"
       style="display:inline"
       transform="matrix(4.2092268,0,0,4.2092268,138.42033,613.20987)" />
    <path
       inkscape:connector-curvature="0"
       d="m 458.0521,787.47806 c -6.34175,0 -12.01595,-2.7036 -17.02259,-8.11077 -5.00665,-5.40718 -7.50997,-12.11608 -7.50997,-20.12671 0,-8.01063 2.43657,-14.55265 7.3097,-19.62605 4.87313,-5.14015 10.58071,-7.71023 17.12273,-7.71023 6.54202,0 11.88244,2.30306 16.02127,6.90917 l 7e-4,-6.64725 7.50997,-6.70296 7.50997,6.70296 -7e-4,54.51077 h -15.01994 v -7.10944 c -4.20558,5.27367 -9.51263,7.91051 -15.92114,7.91051 z m -9.41249,-27.63668 c 0,4.33909 1.30172,7.91049 3.90518,10.71422 2.60345,2.73696 5.64082,4.10544 9.11209,4.10544 3.47129,0 6.40852,-1.36848 8.81171,-4.10544 2.46994,-2.80373 3.70492,-6.37513 3.70492,-10.71422 0,-4.40585 -1.23498,-8.04401 -3.70492,-10.91449 -2.40319,-2.93723 -5.3738,-4.40585 -8.91184,-4.40585 -3.53803,0 -6.57539,1.46862 -9.11209,4.40585 -2.53671,2.93723 -3.80505,6.5754 -3.80505,10.91449 z"
       style="font-style:normal;font-variant:normal;font-weight:bold;font-stretch:normal;font-size:96px;line-height:25px;font-family:'Montserrat Alternates';-inkscape-font-specification:'Montserrat Alternates Bold';text-align:start;letter-spacing:0px;word-spacing:0px;writing-mode:lr-tb;text-anchor:start;display:inline;fill:#ffa200;fill-opacity:1;stroke:none;stroke-width:1.04305px;stroke-linecap:butt;stroke-linejoin:miter;stroke-opacity:1"
       id="path4588-1"
       inkscape:export-xdpi="299.96201"
       inkscape:export-ydpi="299.96201"
       sodipodi:nodetypes="ssscscccccccsscscscsss"
       inkscape:export-filename="/Users/jsheunis/Desktop/path4588-1.png" />
    <path
       style="display:inline;fill:#ffa200;fill-opacity:1;fill-rule:evenodd;stroke:none;stroke-width:4.17219;stroke-linecap:butt;stroke-linejoin:miter;stroke-miterlimit:4;stroke-dasharray:none;stroke-opacity:0"
       d="m 473.97394,721.93534 7.50997,-6.70181 7.50997,6.70181 v 6.70201 l -7.50997,-6.70187 -7.50997,6.70187 z"
       id="rect2037"
       inkscape:connector-curvature="0"
       sodipodi:nodetypes="ccccccc"
       inkscape:export-filename="/Users/jsheunis/Desktop/path4588-1.png"
       inkscape:export-xdpi="299.96201"
       inkscape:export-ydpi="299.96201" />
    <path
       style="display:inline;fill:#ffa200;fill-opacity:1;fill-rule:evenodd;stroke:none;stroke-width:4.17219;stroke-linecap:butt;stroke-linejoin:miter;stroke-miterlimit:4;stroke-dasharray:none;stroke-opacity:0"
       d="m 473.97394,711.72474 7.50997,-6.70181 7.50997,6.70181 v 6.70201 l -7.50997,-6.70187 -7.50997,6.70187 z"
       id="rect2037-6"
       inkscape:connector-curvature="0"
       sodipodi:nodetypes="ccccccc"
       inkscape:export-filename="/Users/jsheunis/Desktop/path4588-1.png"
       inkscape:export-xdpi="299.96201"
       inkscape:export-ydpi="299.96201" />
    <path
       d="m 355.40815,705.29551 -10e-4,55.7726 c -4e-5,2.06941 -1.69221,10.38707 -0.62412,11.58866 1.06808,1.13484 4.56382,1.70226 6.03243,1.70226 2.80373,0 3.80815,0.0345 7.10944,0.0215 l 0.0109,13.09247 c -5.41041,0.009 -4.0161,0.003 -9.22302,0.003 -5.14015,0 -9.51262,-1.70226 -13.1174,-5.10678 -3.53823,-3.4046 -5.30724,-14.72624 -5.30724,-20.60071 v -56.47353 l 7.56006,2e-4 z"
       style="font-style:normal;font-variant:normal;font-weight:bold;font-stretch:normal;font-size:96px;line-height:25px;font-family:'Montserrat Alternates';-inkscape-font-specification:'Montserrat Alternates Bold';text-align:start;letter-spacing:0px;word-spacing:0px;writing-mode:lr-tb;text-anchor:start;fill:#ffa200;fill-opacity:1;stroke:none;stroke-width:1.04305px;stroke-linecap:butt;stroke-linejoin:miter;stroke-opacity:1"
       id="path4584-3"
       inkscape:connector-curvature="0"
       sodipodi:nodetypes="cscsccscsccc"
       inkscape:export-filename="/Users/jsheunis/Desktop/path4588-1.png"
       inkscape:export-xdpi="299.96201"
       inkscape:export-ydpi="299.96201" />
    <path
       d="m 355.40846,734.25148 -10e-4,33.49878 c -6e-5,2.06942 0.53517,3.70492 1.60325,4.90651 1.06809,1.13485 2.33644,1.70226 3.80506,1.70226 2.80372,0 3.80815,0.0345 7.10944,0.0215 l 0.005,6.54624 0.005,6.54623 c -5.41041,0.009 -4.0161,0.003 -9.22302,0.003 -5.14015,0 -9.51263,-1.70226 -13.11741,-5.10678 -3.5377,-3.4046 -5.30671,-8.04409 -5.30671,-13.91856 v -34.19971 l 7.56006,2.1e-4 z"
       style="font-style:normal;font-variant:normal;font-weight:bold;font-stretch:normal;font-size:96px;line-height:25px;font-family:'Montserrat Alternates';-inkscape-font-specification:'Montserrat Alternates Bold';text-align:start;letter-spacing:0px;word-spacing:0px;writing-mode:lr-tb;text-anchor:start;fill:#ffa200;fill-opacity:1;stroke:none;stroke-width:1.04305px;stroke-linecap:butt;stroke-linejoin:miter;stroke-opacity:1"
       id="path4584-3-1-7"
       inkscape:connector-curvature="0"
       sodipodi:nodetypes="cscscccscsccc"
       inkscape:export-filename="/Users/jsheunis/Desktop/path4588-1.png"
       inkscape:export-xdpi="299.96201"
       inkscape:export-ydpi="299.96201" />
    <path
       d="m 301.7058,787.45224 c -6.8758,0 -12.88377,-2.57008 -18.02392,-7.71023 -5.14016,-5.14016 -7.71024,-11.88244 -7.71024,-20.22685 0,-8.41116 2.63683,-15.12006 7.9105,-20.12671 5.27367,-5.00664 11.38177,-7.50997 18.32432,-7.50997 5.40718,0 10.11343,1.8024 14.11874,5.40718 v -4.50598 h 15.12006 v 54.69838 H 316.3252 v -5.23273 c -4.27234,3.47127 -9.14547,5.20691 -14.6194,5.20691 z m -10.61409,-27.63668 c 0,4.40585 1.30173,8.01063 3.90518,10.81435 2.60346,2.73697 5.64082,4.10545 9.11209,4.10545 3.47128,0 6.40851,-1.36848 8.8117,-4.10545 2.40319,-2.80372 3.60479,-6.37512 3.60479,-10.71421 0,-4.40585 -1.2016,-8.07739 -3.60479,-11.01462 -2.40319,-2.93724 -5.3738,-4.40585 -8.91182,-4.40585 -3.53804,0 -6.5754,1.46861 -9.1121,4.40585 -2.5367,2.87047 -3.80505,6.50864 -3.80505,10.91448 z"
       style="font-style:normal;font-variant:normal;font-weight:bold;font-stretch:normal;font-size:96px;line-height:25px;font-family:'Montserrat Alternates';-inkscape-font-specification:'Montserrat Alternates Bold';text-align:start;letter-spacing:0px;word-spacing:0px;writing-mode:lr-tb;text-anchor:start;display:inline;fill:#333333;fill-opacity:1;stroke:none;stroke-width:1.04305px;stroke-linecap:butt;stroke-linejoin:miter;stroke-opacity:1"
       id="path4616-0"
       inkscape:connector-curvature="0"
       sodipodi:nodetypes="sssssccccccsscscssscs"
       inkscape:export-filename="/Users/jsheunis/Desktop/path4588-1.png"
       inkscape:export-xdpi="299.96201"
       inkscape:export-ydpi="299.96201" />
    <path
       d="m 204.78488,787.45224 c -6.87579,0 -12.88376,-2.57008 -18.02392,-7.71023 -5.14015,-5.14016 -7.71023,-11.88244 -7.71023,-20.22685 0,-8.41116 2.63683,-15.12006 7.9105,-20.12671 5.27367,-5.00664 11.38177,-7.50997 18.32431,-7.50997 5.40718,0 10.11343,1.8024 14.11874,5.40718 v -4.50598 h 15.12007 v 54.69838 h -15.12007 v -5.23273 c -4.27233,3.47127 -9.14547,5.20691 -14.6194,5.20691 z m -10.61409,-27.63668 c 0,4.40585 1.30173,8.01063 3.90519,10.81435 2.60345,2.73697 5.64082,4.10545 9.11209,4.10545 3.47127,0 6.4085,-1.36848 8.8117,-4.10545 2.40319,-2.80372 3.60478,-6.37512 3.60478,-10.71421 0,-4.40585 -1.20159,-8.07739 -3.60478,-11.01462 -2.4032,-2.93724 -5.3738,-4.40585 -8.91183,-4.40585 -3.53803,0 -6.5754,1.46861 -9.1121,4.40585 -2.5367,2.87047 -3.80505,6.50864 -3.80505,10.91448 z"
       style="font-style:normal;font-variant:normal;font-weight:bold;font-stretch:normal;font-size:96px;line-height:25px;font-family:'Montserrat Alternates';-inkscape-font-specification:'Montserrat Alternates Bold';text-align:start;letter-spacing:0px;word-spacing:0px;writing-mode:lr-tb;text-anchor:start;display:inline;fill:#333333;fill-opacity:1;stroke:none;stroke-width:1.04305px;stroke-linecap:butt;stroke-linejoin:miter;stroke-opacity:1"
       id="path4616-0-0"
       inkscape:connector-curvature="0"
       sodipodi:nodetypes="sssssccccccsscscssscs"
       inkscape:export-filename="/Users/jsheunis/Desktop/path4588-1.png"
       inkscape:export-xdpi="299.96201"
       inkscape:export-ydpi="299.96201" />
    <path
       d="m 397.16468,787.45224 c -6.87579,0 -12.88376,-2.57008 -18.02392,-7.71023 -5.14015,-5.14016 -7.71023,-11.88244 -7.71023,-20.22685 0,-8.41116 2.63683,-15.12006 7.9105,-20.12671 5.27366,-5.00664 11.38177,-7.50997 18.32432,-7.50997 5.40717,0 10.11342,1.8024 14.11874,5.40718 v -4.50598 h 15.12006 v 54.69838 h -15.12006 v -5.23273 c -4.27234,3.47127 -9.14547,5.20691 -14.61941,5.20691 z M 386.5506,759.81556 c 0,4.40585 1.30173,8.01063 3.90518,10.81435 2.60346,2.73697 5.64082,4.10545 9.11209,4.10545 3.47127,0 6.40851,-1.36848 8.8117,-4.10545 2.40319,-2.80372 3.60478,-6.37512 3.60478,-10.71421 0,-4.40585 -1.20159,-8.07739 -3.60478,-11.01462 -2.40319,-2.93724 -5.3738,-4.40585 -8.91183,-4.40585 -3.53803,0 -6.5754,1.46861 -9.11209,4.40585 -2.5367,2.87047 -3.80505,6.50864 -3.80505,10.91448 z"
       style="font-style:normal;font-variant:normal;font-weight:bold;font-stretch:normal;font-size:96px;line-height:25px;font-family:'Montserrat Alternates';-inkscape-font-specification:'Montserrat Alternates Bold';text-align:start;letter-spacing:0px;word-spacing:0px;writing-mode:lr-tb;text-anchor:start;display:inline;fill:#ffa200;fill-opacity:1;stroke:none;stroke-width:1.04305px;stroke-linecap:butt;stroke-linejoin:miter;stroke-opacity:1"
       id="path4616-0-3"
       inkscape:connector-curvature="0"
       sodipodi:nodetypes="sssssccccccsscscssscs"
       inkscape:export-filename="/Users/jsheunis/Desktop/path4588-1.png"
       inkscape:export-xdpi="299.96201"
       inkscape:export-ydpi="299.96201" />
    <path
       d="m 258.48755,734.33587 -10e-4,33.49878 c -7e-5,2.06942 0.53518,3.70492 1.60326,4.90652 1.06808,1.13484 2.33644,1.70226 3.80505,1.70226 2.80373,0 3.80815,0.0345 7.10944,0.0215 l 0.005,6.54624 0.005,6.54623 c -5.41041,0.009 -4.0161,0.003 -9.22301,0.003 -5.14016,0 -9.51263,-1.70226 -13.11741,-5.10677 -3.53803,-3.40452 -5.30704,-8.04401 -5.30704,-13.91848 v -34.19971 l 7.56006,4.45498 z"
       style="font-style:normal;font-variant:normal;font-weight:bold;font-stretch:normal;font-size:96px;line-height:25px;font-family:'Montserrat Alternates';-inkscape-font-specification:'Montserrat Alternates Bold';text-align:start;letter-spacing:0px;word-spacing:0px;writing-mode:lr-tb;text-anchor:start;fill:#333333;fill-opacity:1;stroke:none;stroke-width:1.04305px;stroke-linecap:butt;stroke-linejoin:miter;stroke-opacity:1"
       id="path4584-3-1"
       inkscape:connector-curvature="0"
       sodipodi:nodetypes="cscscccscsccc"
       inkscape:export-filename="/Users/jsheunis/Desktop/path4588-1.png"
       inkscape:export-xdpi="299.96201"
       inkscape:export-ydpi="299.96201" />
    <path
       d="m 243.44685,768.55861 -4e-4,-25.88435 -4e-4,-21.42959 7.56016,-1e-5 h 7.56016 v 11.66663 h 13.01727 v 11.71555 h -13.01727 l -0.001,23.23083 -4e-5,1.6921 -7.12232,2.2661 -7.99617,-2.15687"
       style="font-style:normal;font-variant:normal;font-weight:bold;font-stretch:normal;font-size:96px;line-height:25px;font-family:'Montserrat Alternates';-inkscape-font-specification:'Montserrat Alternates Bold';text-align:start;letter-spacing:0px;word-spacing:0px;writing-mode:lr-tb;text-anchor:start;display:inline;fill:#333333;fill-opacity:1;stroke:none;stroke-width:1.04305px;stroke-linecap:butt;stroke-linejoin:miter;stroke-opacity:1"
       id="path4614-2"
       inkscape:connector-curvature="0"
       sodipodi:nodetypes="ccccccccccccc"
       inkscape:export-filename="/Users/jsheunis/Desktop/path4588-1.png"
       inkscape:export-xdpi="299.96201"
       inkscape:export-ydpi="299.96201" />
    <path
       style="font-style:normal;font-variant:normal;font-weight:bold;font-stretch:normal;font-size:192px;line-height:25px;font-family:Montserrat;-inkscape-font-specification:'Montserrat Bold';text-align:start;letter-spacing:0px;word-spacing:0px;writing-mode:lr-tb;text-anchor:start;display:inline;fill:#333333;fill-opacity:1;stroke:none;stroke-width:0.609004px;stroke-linecap:butt;stroke-linejoin:miter;stroke-opacity:1"
       d="m 127.81275,705.50694 -8.63543,8.63544 8.78768,8.78768 h 1.28104 c 4.28737,0 8.10727,1.0135 11.4592,3.04025 3.35195,1.94881 5.9629,4.71541 7.83375,8.30121 1.9488,3.58578 2.92368,7.71698 2.92368,12.3941 0,4.59918 -0.89646,8.69175 -2.68935,12.27755 -1.7929,3.5858 -4.28802,6.35359 -7.48406,8.3024 -1.14427,0.69771 -2.35057,1.26488 -3.61475,1.71281 0.88214,0.93821 7.90988,6.96068 7.90988,6.96068 l -5.62136,10.53144 c 4.33908,-0.84734 8.3674,-2.22012 12.08367,-4.12146 6.78182,-3.4299 12.00492,-8.2621 15.66867,-14.49826 3.7417,-6.23617 5.61304,-13.36923 5.61304,-21.39829 0,-8.02906 -1.83272,-15.12231 -5.49647,-21.28053 -3.66375,-6.23616 -8.80843,-11.06955 -15.43436,-14.49945 -6.54797,-3.42988 -14.10935,-5.14557 -22.68408,-5.14557 z"
       id="path1711-6-2-1"
       inkscape:connector-curvature="0"
       sodipodi:nodetypes="cccsccssscccccsccsc"
       inkscape:export-xdpi="299.96201"
       inkscape:export-ydpi="299.96201"
       inkscape:export-filename="/Users/jsheunis/Desktop/path4588-1.png" />
    <path
       style="font-style:normal;font-variant:normal;font-weight:bold;font-stretch:normal;font-size:192px;line-height:25px;font-family:Montserrat;-inkscape-font-specification:'Montserrat Bold';text-align:start;letter-spacing:0px;word-spacing:0px;writing-mode:lr-tb;text-anchor:start;fill:#ffa200;fill-opacity:1;stroke:none;stroke-width:0.609004px;stroke-linecap:butt;stroke-linejoin:miter;stroke-opacity:1"
       d="m 94.400982,705.50694 v 81.96768 c 0,0 30.455518,0.008 32.956218,0 2.50069,-0.008 3.56037,-0.45674 3.56037,-0.45674 l 5.73422,-8.96619 -9.17657,-7.88245 h -11.67596 v -47.23917 l -4.07506,-4.07626 -4.71144,-4.71143 -0.002,-10e-4 c 5.9e-4,6e-4 4.33749,-4.33654 8.63542,-8.63425 z"
       id="path1711-6-2-1-9"
       inkscape:connector-curvature="0"
       sodipodi:nodetypes="cczcccccccccc"
       inkscape:export-xdpi="299.96201"
       inkscape:export-ydpi="299.96201"
       inkscape:export-filename="/Users/jsheunis/Desktop/path4588-1.png" />
    <circle
       cx="-274.36224"
       cy="84.669174"
       r="8.1765184"
       fill="#fba304"
       data-name="Ellipse 271"
       id="circle3133-9-6-8"
       transform="matrix(-0.80690922,-0.59067547,-0.59067547,0.80690922,0,0)"
       style="stroke-width:4.51243" />
    <g
       id="g17758"
       transform="matrix(4.8897581,0,0,4.8897581,611.3824,310.8686)">
      <g
         id="g17212"
         transform="matrix(0.60743502,-0.16276172,0.16276172,0.60743502,-15.944036,-2.9876284)">
        <g
           id="g4585"
           transform="matrix(-0.10812945,0,0,0.10812945,-136.02002,36.721637)">
          <path
             id="path3698"
             sodipodi:nodetypes="czscccccczzzzccccccccccccccccccz"
             style="fill:#ff0000;fill-rule:evenodd;stroke:#000000;stroke-width:1px"
             d="m 202.14,509.51 c 3.51,-8.24 56.07,-68.58 97.15,-74.29 41.17,-5.73 70,26.43 75.71,31.43 5.71,5 27.86,62.86 27.86,62.86 l 19.28,65 12.86,29.28 12.14,19.29 10,11.43 16.43,7.14 c 0,0 -1.87,-3.48 -4.37,0.8 -2.5,4.29 11.87,13.57 -10.63,17.32 -22.63,3.77 -43.21,-4.55 -70,-19.55 -26.78,-15 -27.5,-30.89 -32.14,-41.43 -4.64,-10.53 13.57,-0.71 13.57,-0.71 l 1.43,-10.72 6.43,-14.28 7.14,-30.72 -7.14,-7.85 -4.29,-3.58 3.57,-10.71 -50.71,-21.43 -11.43,-15.71 -16.43,6.43 -5.71,-11.43 -12.15,5 -5,-11.43 -5,-0.72 -4.28,12.86 -30.72,7.86 -5.71,-7.14 -6.43,8.57 c 4.61,-5.22 -24.94,4.66 -21.43,-3.57 z" />
          <path
             id="path2801"
             sodipodi:nodetypes="csssssssssssssssssssssssssssssssssssssssssssssssssssssssssssssssssssssssssssssssssssssssssssssssssssssssssssssssssssssssssssssssssssssccssssssssssssssssssssssssssssssssssssccsssssssssssssssssssssssssssssssssssssssssssssssssssssssssssssssssssssssscsscccsssssssssssssssssssssssssssssssssssssssssssssssssssssssssssssssssssssssssssssssssssssssscccssssssssssc"
             style="fill:#000000"
             d="m 488.51,726.88 c -1.22,-0.86 -2.22,-2.38 -2.22,-3.38 0,-3.38 -2.1,-3.99 -8.32,-2.41 -6.94,1.77 -8.22,1.1 -9.42,-4.99 -0.79,-4.04 -0.95,-4.18 -5.09,-4.48 -3.49,-0.25 -4.44,-0.76 -5.22,-2.81 -1.25,-3.27 -1.22,-8.09 0.05,-8.88 0.55,-0.34 1,-1.71 1,-3.04 0,-1.75 1.12,-3.14 4,-4.96 4.57,-2.89 4.92,-4.31 1.75,-7.2 -1.67,-1.53 -4.21,-2.23 -9.75,-2.71 -14.16,-1.21 -21.51,-2.25 -24.32,-3.42 -1.55,-0.64 -4.88,-1.17 -7.41,-1.17 -4.21,0 -11.12,-1.53 -18.77,-4.18 -1.65,-0.56 -4.82,-1.35 -7.04,-1.73 -4.12,-0.72 -9.96,-4.33 -10.88,-6.74 -0.29,-0.74 -1.14,-1.35 -1.89,-1.35 -0.76,0 -3.04,-1.8 -5.07,-4 -2.04,-2.2 -4.38,-4 -5.2,-4 -1.83,0 -9.42,-7.56 -9.42,-9.38 0,-0.72 -0.9,-2.12 -2,-3.12 -1.1,-0.99 -2,-2.25 -2,-2.79 0,-0.54 -0.7,-1.5 -1.56,-2.12 -0.86,-0.63 -1.92,-3.6 -2.36,-6.61 -0.44,-3.01 -1.53,-6.83 -2.44,-8.48 -0.9,-1.65 -1.63,-3.53 -1.64,-4.19 -0.01,-2.22 -2.01,-2.44 -4.76,-0.51 -3.53,2.48 -9.91,4.55 -11.79,3.83 -0.81,-0.31 -1.45,-1.84 -1.45,-3.44 0,-1.58 -0.88,-3.67 -1.96,-4.64 -1.34,-1.22 -2.04,-3.36 -2.25,-6.91 -0.26,-4.62 -0.54,-5.17 -2.79,-5.48 -3.19,-0.43 -6,-2.93 -6,-5.32 0,-1.02 -0.95,-2.64 -2.1,-3.6 -1.15,-0.95 -2.5,-2.8 -3.01,-4.09 -0.73,-1.85 -1.43,-2.23 -3.31,-1.76 -4.51,1.13 -8.7,-0.43 -10.1,-3.77 -1.16,-2.75 -1.69,-3.05 -4.94,-2.77 -4.01,0.35 -6.54,-1.14 -6.54,-3.83 0,-0.96 -0.86,-2.83 -1.91,-4.16 -1.04,-1.33 -2.05,-3.52 -2.25,-4.85 -0.39,-2.74 -4.31,-4.12 -11.47,-4.04 -2.5,0.02 -4.62,-0.55 -5.37,-1.46 -1.6,-1.93 -3.46,-1.91 -6.47,0.06 -3.39,2.23 -8.78,1.52 -10.02,-1.32 -1.1,-2.5 -2.51,-2.99 -2.51,-0.86 0,1.71 -7.51,8.61 -9.37,8.61 -0.75,0 -3.06,1.35 -5.13,3 -2.7,2.15 -4.86,3 -7.57,3 -2.89,0 -3.95,0.47 -4.42,1.96 -0.35,1.12 -3.26,3.2 -6.82,4.89 -3.41,1.62 -7.24,4.16 -8.52,5.64 -1.97,2.28 -2.86,2.61 -5.7,2.08 -2.77,-0.52 -3.57,-0.26 -4.48,1.45 -2.76,5.14 -12.38,7.75 -16.12,4.37 -0.99,-0.89 -3.26,-1.92 -5.05,-2.29 -4.85,-0.99 -7.05,-5.28 -5.55,-10.84 1.42,-5.29 0.33,-6.82 -3.74,-5.27 -6.01,2.28 -9.23,-2.22 -6.17,-8.63 2.76,-5.78 2.31,-6.72 -2.85,-6.01 -3.77,0.51 -4.79,0.27 -6.5,-1.56 -2.54,-2.73 -2.53,-3.01 0.42,-7.68 2.62,-4.16 6.54,-7.65 9.71,-8.65 2.92,-0.93 1.82,-3.78 -1.74,-4.51 -1.69,-0.34 -3.6,-0.95 -4.24,-1.35 -1.62,-1 -1.45,-4.11 0.3,-5.56 2.13,-1.78 8.93,-2.44 12.44,-1.22 2.82,0.98 3.21,0.82 5.28,-2.13 1.24,-1.75 2.82,-3.64 3.54,-4.19 0.71,-0.55 2.08,-2.57 3.03,-4.5 1.43,-2.86 2.43,-3.59 5.52,-4 2.6,-0.34 4.3,-1.3 5.5,-3.09 0.95,-1.42 2.63,-3.91 3.73,-5.52 1.1,-1.61 5.22,-5.84 9.17,-9.4 3.95,-3.57 7.46,-7.42 7.82,-8.56 0.57,-1.88 9.55,-10.77 24.6,-24.37 3.08,-2.78 6.33,-5.06 7.22,-5.06 0.89,0 2.08,-0.86 2.64,-1.91 0.56,-1.05 2.71,-2.93 4.78,-4.18 2.07,-1.25 5.42,-3.55 7.44,-5.11 2.03,-1.57 5.18,-3.35 7,-3.96 1.83,-0.61 4.45,-2.08 5.83,-3.26 1.37,-1.18 5.87,-3.65 10,-5.48 4.12,-1.83 8.97,-4.03 10.77,-4.88 2.76,-1.32 4.25,-1.37 9.61,-0.39 3.49,0.65 7.79,1.17 9.56,1.17 3.14,0 13.89,3.68 19.21,6.56 1.46,0.8 3.28,1.44 4.04,1.44 0.76,0 6.99,2.9 13.84,6.44 11.2,5.78 13.19,7.23 19.55,14.25 8.25,9.09 15.69,19.74 18.4,26.31 0.57,1.38 1.75,3.78 2.63,5.35 0.89,1.56 2.19,5.16 2.9,8 1.38,5.54 3.23,11.1 4.62,13.89 0.48,0.96 0.87,2.62 0.87,3.69 0,1.08 0.41,2.21 0.91,2.52 0.5,0.31 1.23,2.47 1.62,4.81 0.38,2.33 1.32,5.44 2.07,6.91 2.03,3.98 6.34,17.61 7.04,22.26 0.59,4 5.18,16.6 7.86,21.62 0.75,1.4 1.91,5.67 2.57,9.5 0.71,4.1 2.99,10.69 5.56,16.06 2.4,5.01 4.37,9.7 4.37,10.42 0,0.73 0.6,2.03 1.33,2.89 0.74,0.87 1.94,3.16 2.68,5.08 0.74,1.93 2.39,4.78 3.67,6.33 1.27,1.56 2.32,3.29 2.32,3.86 0,0.56 1.12,2.36 2.5,4 1.37,1.63 2.5,3.51 2.5,4.18 0,0.66 2.28,3.44 5.07,6.17 2.8,2.73 5.7,6.14 6.46,7.57 0.93,1.78 2.79,3 5.86,3.86 4.13,1.16 4.72,1.09 7.19,-0.85 1.48,-1.16 3.29,-2.12 4.03,-2.12 0.74,0 1.6,-1.23 1.91,-2.75 1.57,-7.66 2.83,-10.35 6.84,-14.66 4.36,-4.68 4.39,-4.69 7.75,-3.32 2.62,1.07 3.82,2.48 5.34,6.31 1.09,2.71 2.11,5.12 2.27,5.35 0.17,0.24 1.89,-0.32 3.82,-1.25 1.94,-0.92 4.37,-1.68 5.41,-1.68 3.1,0 7.77,4.69 8.73,8.76 0.75,3.14 1.64,4.1 5.56,5.96 2.78,1.33 5.28,3.4 6.17,5.11 0.82,1.59 2.82,3.44 4.44,4.11 4.93,2.05 7.38,5.47 7.92,11.06 0.38,3.96 0.09,5.49 -1.34,7.07 -1.72,1.91 -1.73,2.17 -0.13,4.88 1.89,3.2 2.19,7.26 0.73,9.99 -0.53,0.99 -3.57,2.84 -6.75,4.1 -7.94,3.15 -8.28,3.52 -8.28,9.13 0,6.29 -3.08,12.56 -6.6,13.45 -1.42,0.35 -5.47,0.41 -9,0.13 -5.06,-0.41 -7.22,-0.12 -10.13,1.37 -4.49,2.29 -9.07,2.41 -12.05,0.33 z m 12.25,-6.01 c 2.43,-3.18 2.59,-3.86 1.53,-6.44 -1.38,-3.32 -0.7,-5 2.02,-5 2.33,0 3.98,2.85 3.98,6.9 0,4.72 6.19,6.88 10.55,3.68 1.67,-1.22 1.95,-2.66 1.95,-10.03 0,-9.66 0.58,-10.59 6.53,-10.37 9.77,0.36 13.9,-8.21 4.85,-10.07 -3.5,-0.71 -5.49,-4.11 -2.41,-4.11 0.89,0 2.95,-0.68 4.58,-1.52 2.41,-1.25 2.95,-2.16 2.95,-5.04 0,-4.08 -2.52,-8.44 -4.87,-8.43 -0.9,0 -2.98,0.9 -4.63,1.99 -6.41,4.24 -9.84,1.01 -4.63,-4.36 2.76,-2.86 2.98,-3.46 1.79,-5.08 -1.2,-1.64 -2.25,-1.76 -9.38,-1.14 -9.85,0.86 -11.07,-0.42 -5.89,-6.19 2.71,-3.01 3.19,-4.16 2.5,-6 -2,-5.34 -8.08,-3.29 -11.1,3.75 -3.61,8.43 -6.79,7.24 -6.79,-2.53 0,-12.28 -3.52,-14.92 -9.01,-6.78 -3.34,4.95 -3.47,6.83 -1.43,20.17 1.13,7.42 -2.06,7.95 -6.8,1.11 -1.51,-2.17 -3.2,-3.95 -3.75,-3.95 -1.81,0 -1.07,2.78 1.56,5.91 3.01,3.57 2.86,6.46 -0.36,6.92 -2.62,0.37 -5.97,4.83 -4.61,6.15 0.49,0.49 2.47,1.03 4.39,1.2 5.52,0.51 5.09,3.16 -1.18,7.17 -8.63,5.53 -13.75,15.66 -8.3,16.44 1.27,0.18 3.45,-1.19 5.95,-3.75 5.77,-5.9 10.12,-4.91 6,1.37 -2.3,3.52 -3.05,11.86 -1.2,13.39 2.47,2.06 4.56,0.31 6.7,-5.64 2.74,-7.58 3.4,-8.6 5.75,-8.96 1.92,-0.29 1.99,0.11 1.52,9.08 -0.48,9.3 -0.47,9.4 2.27,11.55 3.86,3.03 5.84,2.73 8.97,-1.39 z m -33.92,-45.62 c 3.05,-2.67 3.53,-3.64 3.04,-6.08 -0.79,-3.94 -4.34,-8.74 -6.47,-8.74 -1.97,0 -17.5,-14.67 -21.16,-20 -1.33,-1.92 -3.15,-4.31 -4.06,-5.3 -0.9,-0.99 -2.42,-3.69 -3.36,-6 -0.95,-2.31 -4.44,-10.05 -7.76,-17.2 -7.27,-15.64 -7.62,-16.46 -12.26,-28.5 -2.01,-5.22 -4.3,-10.97 -5.09,-12.78 -0.79,-1.81 -1.43,-4.25 -1.43,-5.43 0,-2.16 -1.17,-6.35 -3.57,-12.79 -0.72,-1.92 -1.76,-5.75 -2.32,-8.5 -2.82,-13.92 -5.84,-25.61 -8.24,-31.88 -1.03,-2.69 -1.87,-5.73 -1.87,-6.77 0,-1.05 -1.58,-5.02 -3.5,-8.85 -1.93,-3.82 -3.5,-7.58 -3.5,-8.35 0,-0.77 -0.63,-1.92 -1.39,-2.55 -0.77,-0.64 -2.74,-3.95 -4.39,-7.38 -2.23,-4.63 -5.55,-8.71 -12.97,-15.97 -5.49,-5.36 -10.5,-9.75 -11.14,-9.75 -1.53,0 -16.17,-6.88 -18.11,-8.51 -1.72,-1.44 -12.23,-4.66 -22.5,-6.89 -9.81,-2.13 -23.2,-0.06 -30.32,4.68 -2.03,1.35 -6.61,4.11 -10.18,6.13 -13.43,7.61 -29.3,18.6 -34.59,23.96 -2.25,2.27 -10.52,10.21 -18.38,17.63 -7.86,7.43 -15.01,14.58 -15.88,15.91 -1.5,2.27 -1.45,2.48 0.82,4 2.85,1.89 14.03,2.45 14.03,0.7 0,-1.38 6.65,-7.61 8.13,-7.61 0.58,0 2.32,1.35 3.87,3 3.53,3.79 7.89,3.95 15.22,0.58 2.9,-1.34 7.86,-3.18 11.03,-4.1 3.16,-0.91 5.75,-2.16 5.75,-2.77 0,-2.25 5.24,-8.57 8.09,-9.75 2.56,-1.05 3.24,-0.97 5.04,0.66 1.14,1.04 2.76,3.59 3.6,5.68 0.83,2.08 1.8,3.64 2.14,3.47 0.34,-0.18 2.31,-1.17 4.36,-2.22 3.27,-1.66 4.05,-1.73 6.28,-0.54 1.4,0.75 2.79,2.37 3.1,3.6 0.31,1.24 1.33,2.94 2.26,3.78 1.53,1.38 2.17,1.3 6.66,-0.85 10.18,-4.87 11.8,-4.37 13.99,4.27 1.11,4.36 1.47,4.74 4.94,5.3 3.61,0.59 5.49,2.13 5.52,4.54 0.02,1.49 2.38,2.35 6.43,2.35 2.21,0 4.97,1.27 8.66,3.98 8.71,6.39 9.36,6.61 12.49,4.15 1.49,-1.17 3.7,-2.13 4.92,-2.13 2.72,0 6.12,3.58 5.72,6.02 -0.21,1.28 0.69,2.12 3.13,2.93 6.62,2.18 7.52,4.7 5.12,14.3 -0.53,2.13 -0.33,2.75 0.88,2.75 5.71,0 9.43,5.38 8.11,11.74 -0.94,4.55 -0.71,6.27 1.15,8.34 1.49,1.67 1.87,6.73 0.64,8.45 -0.4,0.56 -1.97,1.81 -3.48,2.77 -2.28,1.45 -2.76,2.47 -2.79,5.98 -0.01,2.32 -0.69,5.1 -1.5,6.16 -0.8,1.07 -1.46,3.17 -1.46,4.66 0,1.64 -1.39,4.38 -3.5,6.9 -1.93,2.31 -3.5,5.3 -3.5,6.65 0,6.31 -5.35,10.84 -9.91,8.4 -2.76,-1.47 -2.77,0.17 -0.02,7.17 2.16,5.49 8.9,14.15 16.83,21.61 7.4,6.97 8.46,7.56 22.24,12.14 3.1,1.04 6.47,2.35 7.5,2.92 6.25,3.49 17.77,7.5 23.35,8.15 3.58,0.41 7.77,1.24 9.32,1.85 1.55,0.61 6.27,1.12 10.5,1.13 4.23,0.01 8.36,0.45 9.19,0.98 2.2,1.43 2.59,1.3 6.55,-2.18 z M 348.81,610.34 c 0.38,-1.19 1.53,-1.91 3.04,-1.91 1.88,0 2.44,0.53 2.44,2.34 0,3.65 1.19,3.96 3.59,0.94 l 2.21,-2.77 1.85,3.24 c 3.19,5.6 6.86,3.3 5.75,-3.61 -0.6,-3.77 -0.45,-4.17 2,-5.1 4.27,-1.62 4.34,-3.85 0.25,-7.72 -2.01,-1.89 -3.65,-3.77 -3.65,-4.18 0,-1.86 2.5,-2.88 5.94,-2.42 4.87,0.66 6.12,-1.79 3.04,-5.96 -2.59,-3.5 -2.25,-6.83 0.85,-8.37 1.43,-0.7 1.92,-1.42 1.25,-1.83 -1.78,-1.1 -1.24,-3.95 1.42,-7.56 4.88,-6.61 2.58,-9.29 -5.68,-6.63 -7.31,2.36 -8.47,2.16 -9.21,-1.57 -0.58,-2.88 -0.12,-3.73 4.59,-8.5 4.89,-4.96 5.12,-5.4 3.55,-6.97 -1.41,-1.42 -2.26,-1.51 -5.29,-0.58 -3.13,0.96 -3.86,0.85 -5.54,-0.82 -1.06,-1.06 -1.92,-2.65 -1.92,-3.54 0,-1.6 -1.17,-1.58 -5.18,0.08 -1.08,0.45 -2.31,-0.05 -3.5,-1.43 -5.62,-6.5 -9.72,-9.54 -14.59,-10.78 -3.98,-1.02 -5.79,-1.06 -7.95,-0.17 -3.78,1.57 -6.18,-0.33 -5.4,-4.28 0.66,-3.27 -1.05,-3.73 -4.78,-1.28 -3.02,1.98 -5.92,0.92 -5.25,-1.91 1.48,-6.24 1.81,-11.62 0.71,-11.62 -2.08,0 -6.5,2.75 -9.5,5.91 -3.34,3.51 -5.03,3.87 -6.45,1.34 -0.57,-1.02 -2.16,-1.75 -3.8,-1.75 -2.67,0 -2.8,-0.21 -2.62,-4.25 0.24,-5.55 -1.7,-5.62 -6.81,-0.25 -5.13,5.4 -7.36,5.38 -6.49,-0.05 0.75,-4.68 -2.44,-13.43 -4.63,-12.71 -1.94,0.64 -3.73,4.86 -3.75,8.81 -0.02,5.07 -1.42,5.95 -9.38,5.95 -6.08,0 -7.78,0.45 -13.34,3.5 -8.63,4.75 -12.59,4.67 -15.21,-0.31 -1.93,-3.66 -3.54,-2.11 -3.22,3.11 0.42,6.86 -0.43,8.7 -4.03,8.7 -2.07,0 -3.91,-0.94 -5.8,-2.96 -3.19,-3.41 -4.03,-3.06 -4.03,1.66 0,4.76 -2.38,5.3 -6.37,1.44 -1.78,-1.73 -3.77,-3.14 -4.42,-3.14 -0.65,0 -1.48,1.8 -1.83,3.98 -1.07,6.7 -2.83,7.08 -7.78,1.69 -4.74,-5.17 -6.03,-5.62 -7.6,-2.68 -0.8,1.5 -0.68,2.73 0.47,4.95 2.04,3.97 1.92,5.06 -0.55,5.06 -1.8,0 -1.99,0.42 -1.41,3.07 0.57,2.58 0.34,3.16 -1.42,3.62 -1.15,0.3 -2.09,1.13 -2.09,1.85 0,0.71 -2.89,2.26 -6.41,3.43 -7.24,2.41 -15.87,7.71 -15.31,9.41 0.59,1.8 5.56,1.9 9.82,0.2 8.15,-3.26 8.83,-1.46 2.9,7.67 -6.07,9.33 -5.42,10.65 2.94,6 3.93,-2.18 5.19,-2.49 6.19,-1.51 0.99,0.99 0.7,2.79 -1.47,8.93 -3.29,9.34 -2.4,11.41 2.77,6.4 4.78,-4.63 6.57,-3.71 6.57,3.4 0,3.04 0.41,5.53 0.91,5.53 4.51,0 7.47,-5.25 6.53,-11.55 -0.62,-4.08 -0.5,-4.45 1.46,-4.45 1.45,0 2.66,1.12 3.8,3.5 3.06,6.43 8,3.66 6.87,-3.86 -0.53,-3.54 -0.34,-4.51 0.97,-5.02 1.9,-0.72 3.42,0.02 5.26,2.57 2.8,3.88 8.2,0.73 8.2,-4.77 0,-1.8 0.76,-4.04 1.7,-4.98 1.61,-1.61 1.86,-1.53 4.32,1.43 1.44,1.72 3.1,3.13 3.69,3.13 1.54,0 2.26,-2.43 1.21,-4.09 -1.31,-2.06 -1.12,-3.56 0.65,-5.33 2.24,-2.25 3.93,-1.95 5.24,0.92 3.17,6.96 11.06,-2.26 12.41,-14.5 0.19,-1.68 0.89,-2.5 2.16,-2.5 1.8,0 3.27,3.35 5.05,11.5 1.05,4.82 2.18,5.66 4.65,3.46 1.21,-1.07 3.07,-3.9 4.13,-6.27 2.65,-5.91 5.17,-5.43 5.59,1.07 0.17,2.61 0.75,4.74 1.28,4.74 0.54,0 1.93,-1.59 3.08,-3.55 2.86,-4.84 5.24,-4.27 5.65,1.37 0.37,5.14 2.35,6.32 5.55,3.31 3.37,-3.16 4.64,-2.67 4.64,1.79 0,6.75 0.66,7.48 4.67,5.11 1.89,-1.11 3.86,-2.03 4.38,-2.03 1.76,0 0.96,3.6 -1.56,7.01 -1.42,1.92 -2.12,3.77 -1.63,4.26 1.02,1.02 6.17,-1.2 11.03,-4.77 6.29,-4.61 8.86,-2.23 4.7,4.35 l -2.54,4.03 6.4,-0.47 c 5.81,-0.43 6.45,-0.28 7.05,1.61 0.4,1.26 0,3.09 -1,4.62 -2.05,3.13 -1.28,4.12 1.9,2.41 4.27,-2.28 5.74,1.11 3.13,7.2 -0.6,1.41 -0.25,1.75 1.78,1.75 3.28,0 5.18,5.21 4.23,11.58 -0.76,5.04 0.49,5.82 3.05,1.92 1.92,-2.93 3.95,-3.21 5.28,-0.73 0.64,1.2 0.51,2.56 -0.43,4.25 -0.75,1.37 -1.39,2.83 -1.41,3.26 -0.07,1.47 4.89,-2.47 5.49,-4.37 z" />
        </g>
        <path
           style="opacity:0.74955;fill:#ff60c4;fill-opacity:1;stroke:#3f3d56;stroke-width:0.0619924;stroke-linejoin:bevel;stroke-miterlimit:4;stroke-dasharray:none;stroke-opacity:1"
           d="m -169.21799,83.934057 c -4.10526,0.351072 -7.94776,3.224376 -9.09409,7.246122 -1.2557,4.098688 -2.11411,8.344718 -4.08539,12.186801 -0.843,2.04447 -2.19509,3.75394 -3.98801,5.04561 -0.69895,0.5604 -0.19713,1.70185 0.6956,1.50607 3.0118,-0.23294 6.08814,-1.11455 8.61961,-2.7883 0.7641,-0.85282 1.80681,-1.7421 2.09179,-2.85231 -0.57958,-0.33992 -1.22494,-0.64033 -1.32036,-1.42979 -0.6097,-0.97079 -0.76887,-2.14663 -1.28631,-3.123842 -0.59576,-0.928228 -0.28578,-2.346032 0.30284,-3.213284 0.63065,-0.416665 0.25388,-1.405791 0.70559,-1.816638 0.65757,-0.380313 1.10739,-1.373353 2.01824,-0.990729 1.00052,-0.06668 1.82228,-0.785627 2.76741,-1.022512 0.31225,-0.603346 1.19394,-0.584713 1.26588,-1.41844 0.42445,-1.305235 1.92605,0.705223 2.44685,-0.518067 0.39045,-0.814986 1.47893,0.152377 1.86704,-0.707857 0.66142,-1.084238 1.39145,0.459153 2.04639,0.739187 1.00656,0.58481 2.36893,1.271247 3.39671,0.368685 0.7419,0.23336 1.79565,1.276641 2.5463,0.549396 -0.83571,-1.366434 -2.25829,-2.437386 -3.42724,-3.568339 -2.10006,-1.644443 -4.24238,-3.572103 -6.90595,-4.17905 -0.22026,-0.0204 -0.44201,-0.02416 -0.6629,-0.01271 z"
           id="path15351" />
      </g>
      <path
         style="opacity:1;fill:#ffffff;fill-opacity:1;stroke:#3f3d56;stroke-width:0.0296523;stroke-linejoin:bevel;stroke-miterlimit:4;stroke-dasharray:none;stroke-opacity:1"
         d="m -101.88798,78.745598 c -0.37164,0.211773 0.066,0.819261 -0.12184,1.083509 -0.23812,-0.0309 -0.73784,-0.522021 -0.80986,-0.06515 0.004,0.443387 -0.46721,0.885645 -0.87545,0.526009 -0.27248,-0.219288 -0.74,-0.0143 -0.50169,0.346184 0.0627,0.152014 0.30117,0.52073 -0.0649,0.429581 -0.34474,-0.07661 -0.40367,0.256274 -0.45,0.48822 -0.67385,0.111342 -1.19296,0.573755 -1.50788,1.168209 -0.17508,0.278792 -0.60594,0.138592 -0.6498,0.567707 -0.15798,0.21165 -0.79073,0.01743 -0.61831,0.444133 0.17666,0.305039 0.85784,0.461208 0.71908,0.891522 -0.26029,0.207457 -1.05306,-0.115132 -1.00901,0.387014 0.26654,0.385554 0.62398,0.729941 0.78597,1.169078 -0.0695,0.254958 -0.10646,0.723933 0.30622,0.587905 0.18665,-0.05517 0.64499,-0.105936 0.31318,0.215007 -0.25663,0.195023 -0.30417,0.640682 0.10033,0.659358 0.31954,0.07068 0.22103,0.974259 0.60637,0.598112 0.10018,-0.267365 0.16943,-0.508599 0.42241,-0.230862 0.28061,0.05964 0.0897,-0.563027 0.41004,-0.31187 0.32515,0.290551 0.30439,-0.230755 0.40591,-0.39114 0.17076,0.115187 0.47914,0.149158 0.41112,-0.166577 -0.059,-0.322071 -0.0624,-0.649563 0.11619,-0.909765 -0.13964,-0.29035 -0.19233,-0.570072 0.2074,-0.566839 0.12981,-0.196641 -0.37408,-0.519159 0.0502,-0.609188 0.35063,0.0934 0.5882,-0.24488 0.32555,-0.531656 -0.27299,-0.517086 0.57958,-0.01877 0.79727,-0.06472 0.64809,0.216795 0.22483,-0.318983 -0.0222,-0.546423 -0.0948,-0.20263 0.69707,0.04903 0.5386,-0.397005 -0.12655,-0.307513 -0.0482,-0.429927 0.26866,-0.281682 0.45949,0.141116 0.24335,-0.35567 0.31187,-0.58747 0.19285,-0.131645 0.51622,0.366118 0.57357,-0.05755 -0.007,-0.213079 -0.0151,-0.584927 0.22022,-0.248888 0.13611,0.265472 0.682692,0.583379 0.756652,0.106418 0.0954,-0.221464 -0.0715,-0.732397 0.13747,-0.81855 0.34848,0.267377 0.57424,1.137043 1.13585,0.882401 0.105679,-0.26247 0.439829,-0.309829 0.471718,0.0189 -0.09049,0.449653 0.490991,0.271525 0.477578,-0.0682 0.276606,-0.252766 0.37079,0.46825 0.618745,0.539257 0.313031,0.175567 0.460759,-0.374608 0.698015,-0.344229 0.10049,0.225167 0.201719,0.956886 0.584213,0.611577 0.05748,-0.09656 0.310577,-0.652481 0.377893,-0.34032 0.01949,0.282422 0.381061,1.020341 0.687807,0.665438 0.141463,-0.190046 -0.166071,-0.8661 0.269085,-0.662398 0.203852,0.189398 0.551441,0.03151 0.327508,-0.229341 -0.07727,-0.226781 -0.453295,-0.54794 -0.361605,-0.755785 0.238961,-0.06194 0.843494,0.19686 0.808994,-0.191553 -0.176574,-0.287947 -0.582013,-0.539692 -0.69063,-0.796831 0.22554,-0.06227 1.069672,0.08666 0.893911,-0.369206 -0.644155,-0.367041 -1.676553,-0.129401 -2.036711,-0.940605 0.0079,-0.244976 -0.08703,-0.84007 -0.432404,-0.505811 -0.189605,0.122079 -0.286141,0.565686 -0.524706,0.547727 -0.184337,-0.639668 -0.551804,-0.510321 -0.837227,0.03822 -0.192299,-0.400087 -0.507416,-0.55708 -0.681076,-0.09122 -0.427912,0.307649 -0.502025,-0.447317 -0.696498,-0.6422 -0.28467,-0.01121 -0.16173,0.546247 -0.53534,0.400479 -0.6741,-0.108971 -1.358192,0.0027 -2.021732,0.01412 -0.27867,-0.154188 -0.30684,-0.656115 -0.68672,-0.663049 z"
         id="path17251" />
    </g>
  </g>
</svg>
